<?xml version="1.0" encoding="utf-8"?>
<!-- Generator: Adobe Illustrator 25.2.1, SVG Export Plug-In . SVG Version: 6.00 Build 0)  -->
<svg version="1.1" id="Layer_1" xmlns="http://www.w3.org/2000/svg" xmlns:xlink="http://www.w3.org/1999/xlink" x="0px" y="0px"
	 viewBox="0 0 347.26 341.78" style="enable-background:new 0 0 347.26 341.78;" xml:space="preserve">
<style type="text/css">
	.st0{fill:#398958;}
</style>
<g>
	<g>
		<path class="st0" d="M282.1,51.25c-0.15,0.55-0.26,1.11-0.45,1.64c-9.86,27.11-19.73,54.22-29.6,81.33
			c-10.3,28.28-20.61,56.57-30.91,84.85c-8.05,22.1-16.09,44.19-24.15,66.28c-0.31,0.86-0.7,1.76-1.29,2.45
			c-2.31,2.72-6.6,1.89-7.95-1.56c-1.25-3.2-2.38-6.45-3.55-9.68c-8.61-23.61-17.22-47.21-25.83-70.82
			c-3.08-8.44-6.16-16.88-9.21-25.33c-0.3-0.82-0.83-1.15-1.58-1.42c-14.34-5.07-28.67-10.16-43.01-15.25
			c-21.28-7.55-42.57-15.09-63.86-22.64c-3.32-1.18-4.66-4.25-3.07-6.95c0.71-1.2,1.81-1.87,3.11-2.33
			c14.64-5.3,29.27-10.62,43.91-15.94c41.85-15.21,83.7-30.41,125.55-45.62c21.73-7.9,43.46-15.79,65.2-23.68
			C278.72,45.37,282.01,47.7,282.1,51.25z M265.74,68.22c-0.11-0.06-0.22-0.12-0.32-0.19c-0.29,0.25-0.59,0.48-0.85,0.75
			c-35.45,35.45-70.9,70.9-106.36,106.34c-0.58,0.58-0.73,1.04-0.43,1.86c3.93,10.68,7.8,21.39,11.7,32.08
			c7.24,19.88,14.48,39.75,21.73,59.63c0.2,0.54,0.44,1.07,0.66,1.61c0.11,0,0.22-0.01,0.33-0.01
			C216.7,202.93,241.22,135.57,265.74,68.22z M256.33,63.8c-0.06-0.11-0.13-0.22-0.19-0.33c-66.68,24.18-133.36,48.35-200.04,72.53
			c0.01,0.1,0.01,0.21,0.02,0.31c0.34,0.16,0.68,0.34,1.03,0.47c4.59,1.63,9.18,3.25,13.76,4.87c25.9,9.18,51.81,18.35,77.7,27.57
			c1.2,0.43,1.9,0.24,2.78-0.64c34.68-34.64,69.4-69.24,104.1-103.86C255.8,64.45,256.05,64.12,256.33,63.8z"/>
		<path class="st0" d="M140.2,191.72c0,1.41-0.61,2.52-1.6,3.51c-6.1,6.07-12.18,12.16-18.26,18.25c-2,2-4.02,3.99-6,6.02
			c-1.84,1.88-4.16,1.99-6.11,0.23c-2.02-1.83-2.17-5-0.24-6.93c8.1-8.13,16.22-16.24,24.34-24.34c1.49-1.48,3.5-1.85,5.24-1.08
			C139.15,188.07,140.2,189.81,140.2,191.72z"/>
	</g>
</g>
</svg>
