<?xml version="1.0" encoding="utf-8"?>
<!-- Generator: Adobe Illustrator 25.2.3, SVG Export Plug-In . SVG Version: 6.00 Build 0)  -->
<svg version="1.1" id="Layer_1" xmlns="http://www.w3.org/2000/svg" xmlns:xlink="http://www.w3.org/1999/xlink" x="0px" y="0px"
	 viewBox="0 0 612 345" style="enable-background:new 0 0 612 345;" xml:space="preserve">
<style type="text/css">
	.st0{display:none;}
	.st1{display:inline;}
	.st2{display:inline;fill:#ECEBEA;}
	.st3{display:inline;fill:#7EBB4B;}
	.st4{display:inline;fill:#5AA34A;}
	.st5{display:inline;fill:#5AA34B;}
	.st6{display:inline;fill:#569A48;}
	.st7{display:inline;fill:#5BA34B;}
	.st8{display:inline;fill:#5AA24B;}
	.st9{display:inline;fill:#7DBB4B;}
	.st10{display:inline;fill:#7FBB4B;}
	.st11{display:inline;fill:#569A49;}
	.st12{display:inline;fill:#599B49;}
	.st13{display:inline;fill:#5BA34A;}
	.st14{display:inline;fill:#59A04B;}
	.st15{display:inline;fill:#7EBB4D;}
	.st16{display:inline;fill:#48A04C;}
	.st17{display:inline;fill:#5BA24B;}
	.st18{display:inline;fill:#ACCF70;}
	.st19{display:inline;fill:#69AA4C;}
	.st20{display:inline;fill:#5CA24C;}
	.st21{display:inline;fill:#539749;}
	.st22{display:inline;fill:#5EA34B;}
	.st23{display:inline;fill:#80BC4D;}
	.st24{display:inline;fill:#5DA24C;}
	.st25{display:inline;fill:#A3CA69;}
	.st26{display:inline;fill:#9EC76E;}
	.st27{display:inline;fill:#579E4A;}
	.st28{display:inline;fill:#70B250;}
	.st29{display:inline;fill:#5DA84C;}
	.st30{display:inline;fill:#56A04A;}
	.st31{display:inline;fill:#64A951;}
	.st32{display:inline;fill:#78B94C;}
	.st33{display:inline;fill:#7DB94C;}
	.st34{display:inline;fill:#8CC14A;}
	.st35{display:inline;fill:#7CB751;}
	.st36{display:inline;fill:#78B94D;}
	.st37{display:inline;fill:#A1CA5E;}
	.st38{display:inline;fill:#53A24D;}
	.st39{display:inline;fill:#539E4A;}
	.st40{display:inline;fill:#A4CB74;}
	.st41{display:inline;fill:#589F4D;}
	.st42{display:inline;fill:#559E4A;}
	.st43{display:inline;fill:#92C152;}
	.st44{display:inline;fill:#76B84D;}
	.st45{display:inline;fill:#64A84A;}
	.st46{display:inline;fill:#EEF3E7;}
	.st47{display:inline;fill:#EEF3E5;}
	.st48{display:inline;fill:#5CA14B;}
	.st49{display:inline;fill:#72B64D;}
	.st50{display:inline;fill:#A0C866;}
	.st51{display:inline;fill:#4B9A49;}
	.st52{display:inline;fill:#7EBB4E;}
	.st53{display:inline;fill:#75B74D;}
	.st54{display:inline;fill:#74B25B;}
	.st55{display:inline;fill:#74B74D;}
	.st56{display:inline;fill:#B5D276;}
	.st57{display:inline;fill:#DAE7CF;}
	.st58{display:inline;fill:#6FAE5A;}
	.st59{display:inline;fill:#6FB54C;}
	.st60{display:inline;fill:#4C9B49;}
	.st61{display:inline;fill:#53A04F;}
	.st62{display:inline;fill:#81BC4F;}
	.st63{display:inline;fill:#F5F8F2;}
	.st64{display:inline;fill:#9AC555;}
	.st65{display:inline;fill:#ABCE7C;}
	.st66{display:inline;fill:#71B64C;}
	.st67{display:inline;fill:#A0C763;}
	.st68{display:inline;fill:#4E9A4B;}
	.st69{display:inline;fill:#4AA04B;}
	.st70{display:inline;fill:#75B84B;}
	.st71{display:inline;fill:#CEE0B2;}
	.st72{display:inline;fill:#489147;}
	.st73{display:inline;fill:#4E9349;}
	.st74{display:inline;fill:#74B74C;}
	.st75{display:inline;fill:#B9D594;}
	.st76{display:inline;fill:#77B555;}
	.st77{display:inline;fill:#96C454;}
	.st78{display:inline;fill:#80B350;}
	.st79{display:inline;fill:#88BD51;}
	.st80{display:inline;fill:#3A9649;}
	.st81{display:inline;fill:#C8DD8F;}
	.st82{display:inline;fill:#499A49;}
	.st83{display:inline;fill:#6CB44C;}
	.st84{display:inline;fill:#6DAF5B;}
	.st85{display:inline;fill:#70B64C;}
	.st86{display:inline;fill:#72B64C;}
	.st87{display:inline;fill:#78B851;}
	.st88{display:inline;fill:#77B557;}
	.st89{display:inline;fill:#95C371;}
	.st90{display:inline;fill:#88BD5D;}
	.st91{display:inline;fill:#74B74B;}
	.st92{display:inline;fill:#73B74C;}
	.st93{display:inline;fill:#74AF51;}
	.st94{display:inline;fill:#4B9F4E;}
	.st95{display:inline;fill:#5FA34D;}
	.st96{display:inline;fill:#A2CA89;}
	.st97{display:inline;fill:#4D9D4F;}
	.st98{display:inline;fill:#379148;}
	.st99{display:inline;fill:#81B959;}
	.st100{display:inline;fill:#EAEFE2;}
	.st101{display:inline;fill:#74B459;}
	.st102{display:inline;fill:#83BC57;}
	.st103{display:inline;fill:#89BF6A;}
	.st104{display:inline;fill:#B0CD9C;}
	.st105{display:inline;fill:#75B74E;}
	.st106{display:inline;fill:#5A9F4E;}
	.st107{display:inline;fill:#6EB24C;}
	.st108{display:inline;fill:#67A153;}
	.st109{display:inline;fill:#6DB053;}
	.st110{display:inline;fill:#6EAF50;}
	.st111{display:inline;fill:#9EC864;}
	.st112{display:inline;fill:#63A04C;}
	.st113{display:inline;fill:#77B55A;}
	.st114{display:inline;fill:#EDF1E7;}
	.st115{display:inline;fill:#4D9A49;}
	.st116{display:inline;fill:#6EB54C;}
	.st117{display:inline;fill:#7DB75B;}
	.st118{display:inline;fill:#71B34F;}
	.st119{display:inline;fill:#6AAD4D;}
	.st120{display:inline;fill:#489E4D;}
	.st121{display:inline;fill:#A6CA78;}
	.st122{display:inline;fill:#A2CA56;}
	.st123{display:inline;fill:#4C9347;}
	.st124{display:inline;fill:#88BC55;}
	.st125{display:inline;fill:#A5CB68;}
	.st126{display:inline;fill:#94C359;}
	.st127{display:inline;fill:#62A94B;}
	.st128{display:inline;fill:#78B74E;}
	.st129{display:inline;fill:#62A85B;}
	.st130{display:inline;fill:#76B44B;}
	.st131{display:inline;fill:#2B7F41;}
	.st132{display:inline;fill:#2D7F42;}
	.st133{display:inline;fill:#6CA159;}
	.st134{display:inline;fill:#459648;}
	.st135{display:inline;fill:#489849;}
	.st136{display:inline;fill:#479849;}
	.st137{display:inline;fill:#60A250;}
	.st138{display:inline;fill:#509C4A;}
	.st139{display:inline;fill:#FBFCF9;}
	.st140{display:inline;fill:#7DB458;}
	.st141{display:inline;fill:#89C04B;}
	.st142{display:inline;fill:#A8CD7C;}
	.st143{display:inline;fill:#A7CC7A;}
	.st144{display:inline;fill:#A6CB77;}
	.st145{display:inline;fill:#9BC764;}
	.st146{display:inline;fill:#A4CB75;}
	.st147{display:inline;fill:#A1CA6F;}
	.st148{display:inline;fill:#AFD088;}
	.st149{display:inline;fill:#9EC96A;}
	.st150{display:inline;fill:#97C45D;}
	.st151{display:inline;fill:#9AC660;}
	.st152{display:inline;fill:#A6CC79;}
	.st153{display:inline;fill:#70AD4A;}
	.st154{display:inline;fill:#75B24D;}
	.st155{display:inline;fill:#F0F5EC;}
	.st156{display:inline;fill:#7FB44B;}
	.st157{display:inline;fill:#77B44C;}
	.st158{display:inline;fill:#8DBF57;}
	.st159{display:inline;fill:#7CB850;}
	.st160{display:inline;fill:#6DAC4A;}
	.st161{display:inline;fill:#6FAF4B;}
	.st162{display:inline;fill:#87BB53;}
	.st163{display:inline;fill:#AECE95;}
	.st164{display:inline;fill:#499949;}
	.st165{display:inline;fill:#D3E2C4;}
	.st166{display:inline;fill:#87BC55;}
	.st167{display:inline;fill:#82BA53;}
	.st168{display:inline;fill:#94C34C;}
	.st169{display:inline;fill:#AFCF6C;}
	.st170{display:inline;fill:#ADCE6D;}
	.st171{display:inline;fill:#60A54B;}
	.st172{display:inline;fill:#ABCE67;}
	.st173{display:inline;fill:#B5D271;}
	.st174{display:inline;fill:#9EC660;}
	.st175{display:inline;fill:#BFD77F;}
	.st176{display:inline;fill:#A1C95A;}
	.st177{display:inline;fill:#C2D87F;}
	.st178{display:inline;fill:#B4D271;}
	.st179{display:inline;fill:#C0D883;}
	.st180{display:inline;fill:#C6DB84;}
	.st181{display:inline;fill:#ABCD67;}
	.st182{display:inline;fill:#8EC14B;}
	.st183{display:inline;fill:#C5DB81;}
	.st184{display:inline;fill:#AFCE69;}
	.st185{display:inline;fill:#8CC04A;}
	.st186{display:inline;fill:#A4C95B;}
	.st187{display:inline;fill:#89C04A;}
	.st188{display:inline;fill:#7FBB4C;}
	.st189{display:inline;fill:#97C44D;}
	.st190{display:inline;fill:#BFD682;}
	.st191{display:inline;fill:#8AC04A;}
	.st192{display:inline;fill:#9AC650;}
	.st193{display:inline;fill:#8FC14A;}
	.st194{display:inline;fill:#9FC857;}
	.st195{display:inline;fill:#A8CC63;}
	.st196{display:inline;fill:#98C358;}
	.st197{display:inline;fill:#B5D274;}
	.st198{display:inline;fill:#99C551;}
	.st199{display:inline;fill:#8AB968;}
	.st200{display:inline;fill:#78B151;}
	.st201{display:inline;fill:#8AB969;}
	.st202{display:inline;fill:#6AAA4B;}
	.st203{display:inline;fill:#77AF4E;}
	.st204{display:inline;fill:#80B459;}
	.st205{display:inline;fill:#82B55D;}
	.st206{display:inline;fill:#4A9949;}
	.st207{display:inline;fill:#E0E9D6;}
	.st208{display:inline;fill:#98C45C;}
	.st209{display:inline;fill:#9FC766;}
	.st210{display:inline;fill:#92C151;}
	.st211{display:inline;fill:#86BA51;}
	.st212{display:inline;fill:#92C251;}
	.st213{display:inline;fill:#96C358;}
	.st214{display:inline;fill:#82B84C;}
	.st215{display:inline;fill:#A2C763;}
	.st216{display:inline;fill:#9BC45E;}
	.st217{display:inline;fill:#87BA4F;}
	.st218{display:inline;fill:#78B24B;}
	.st219{display:inline;fill:#8EBE54;}
	.st220{display:inline;fill:#B2D172;}
	.st221{display:inline;fill:#8BBC52;}
	.st222{display:inline;fill:#E1EBD0;}
	.st223{display:inline;fill:#77B84D;}
	.st224{display:inline;fill:#9AC563;}
	.st225{display:inline;fill:#F0F4E9;}
	.st226{display:inline;fill:#ABCB83;}
	.st227{display:inline;fill:#95C34D;}
	.st228{display:inline;fill:#A1C771;}
	.st229{display:inline;fill:#87B868;}
	.st230{display:inline;fill:#79B04A;}
	.st231{display:inline;fill:#88B94E;}
	.st232{display:inline;fill:#84B64C;}
	.st233{display:inline;fill:#81B44D;}
	.st234{display:inline;fill:#75AE4A;}
	.st235{display:inline;fill:#86B74F;}
	.st236{display:inline;fill:#6EAB4A;}
	.st237{display:inline;fill:#61A249;}
	.st238{display:inline;fill:#E8F0E1;}
	.st239{display:inline;fill:#559F4A;}
	.st240{display:inline;fill:#A5C966;}
	.st241{display:inline;fill:#BDD77F;}
	.st242{display:inline;fill:#529D4A;}
	.st243{display:inline;fill:#72AF4B;}
	.st244{display:inline;fill:#7BB44B;}
	.st245{display:inline;fill:#9FC761;}
	.st246{display:inline;fill:#9DC55E;}
	.st247{display:inline;fill:#91C056;}
	.st248{display:inline;fill:#C8DD89;}
	.st249{display:inline;fill:#B4D172;}
	.st250{display:inline;fill:#4F9C4A;}
	.st251{display:inline;fill:#87BA4E;}
	.st252{display:inline;fill:#73AF4B;}
	.st253{display:inline;fill:#9BC45D;}
	.st254{display:inline;fill:#A9CC6A;}
	.st255{display:inline;fill:#B5D273;}
	.st256{display:inline;fill:#B5D373;}
	.st257{display:inline;fill:#A6CA66;}
	.st258{display:inline;fill:#58A04A;}
	.st259{display:inline;fill:#8FC050;}
	.st260{display:inline;fill:#C2D881;}
	.st261{display:inline;fill:#A0C959;}
	.st262{display:inline;fill:#A8CB62;}
	.st263{display:inline;fill:#90C24B;}
	.st264{display:inline;fill:#B2D06F;}
	.st265{display:inline;fill:#AFD06B;}
	.st266{display:inline;fill:#AECF6A;}
	.st267{display:inline;fill:#85B951;}
	.st268{display:inline;fill:#9DC663;}
	.st269{display:inline;fill:#74B04B;}
	.st270{display:inline;fill:#A0C661;}
	.st271{display:inline;fill:#E5EDDA;}
	.st272{display:inline;fill:#6FAD4A;}
	.st273{display:inline;fill:#87BF4B;}
	.st274{display:inline;fill:#509C49;}
	.st275{display:inline;fill:#EAF0DF;}
	.st276{display:inline;fill:#89BF4B;}
	.st277{display:inline;fill:#DEE8CF;}
	.st278{display:inline;fill:#9BC664;}
	.st279{display:inline;fill:#92C255;}
	.st280{display:inline;fill:#EEF2E6;}
	.st281{display:inline;fill:#93C153;}
	.st282{display:inline;fill:#67A84A;}
	.st283{display:inline;fill:#94C257;}
	.st284{display:inline;fill:#77AE4A;}
	.st285{display:inline;fill:#469047;}
	.st286{display:inline;fill:#88BF4A;}
	.st287{display:inline;fill:#66A549;}
	.st288{display:inline;fill:#66A653;}
	.st289{display:inline;fill:#73AF4A;}
	.st290{display:inline;fill:#82B74D;}
	.st291{display:inline;fill:#86B94F;}
	.st292{display:inline;fill:#99C455;}
	.st293{display:inline;fill:#69A94B;}
	.st294{display:inline;fill:#79B154;}
	.st295{display:inline;fill:#6CAA4A;}
	.st296{display:inline;fill:#71AE4A;}
	.st297{display:inline;fill:#A0C855;}
</style>
<g class="st0">
	<path class="st1" d="M256.8,363c-12,0-24,0-36,0c-2.4,0-3.9-0.3-3.8-3.3c0.2-10.8,0.2-21.5,0.2-32.3c0-0.9-0.4-1.9-0.9-2.5
		c-6.2-6.4-12.5-12.7-18.8-18.9c-9.2-9-18.6-17.9-27.6-27.1c-5.8-5.9-11.7-11.8-16.7-18.3c-5.3-6.8-8.3-15-7.9-23.7
		c0.5-11.9,1.9-23.7,2.9-35.5c0.4-4.2,0.6-8.4,0.8-12.6c0.8-12.6,1.3-25.3,2.5-37.9c0.6-6.3,12.3-16.5,20.6-12
		c8.6,4.7,12,9.2,9.9,18.8c-0.2,0.9-0.1,1.8-0.2,2.7c-0.8,14.6-1.7,29.2-2.3,43.8c-0.3,7.5-0.5,15.1,0.2,22.6
		c0.4,3.6,2.4,7.5,4.8,10.3c3.9,4.7,8.7,8.6,13.1,12.9c3.2,3.2,6.2,6.7,9.5,9.8c3.9,3.6,6.8,8.7,13.5,8c3.1-0.3,5.7-1.1,6.2-4
		c0.5-2.9,0.7-7-1-8.9c-7.3-8.1-15.6-15.3-23.1-23.2c-4.4-4.7-9.1-9.8-6.2-17.3c3.5-9.2,13.4-14.7,22.1-7.4
		c4.2,3.6,8.3,7.5,12.2,11.4c6.7,6.6,13.3,13.4,20,20.1c8.4,8.3,17.1,16.4,25.2,25c3.4,3.6,6,8.1,8.7,12.3
		c8.7,13.6,12.2,28.5,11.8,44.6c-0.3,12.9-0.2,25.8,0,38.7c0,3.3-1,4.1-4.2,4.1C280.3,362.9,268.5,363,256.8,363z"/>
	<path class="st1" d="M368,363c-11.9,0-23.7-0.1-35.6,0.1c-3,0-4-0.8-4-3.9c0.2-14.7-0.6-29.5,0.3-44.1c0.6-8.9,3.5-17.6,5.9-26.3
		c3.4-12.6,12.1-21.8,20.9-30.8c15.9-16.1,32-32.1,48-48.1c1.4-1.4,3-2.8,4.8-3.9c5.3-3.4,12.6-2.7,16.6,1.7c5.2,5.6,6.1,12.4,2,18
		c-2.2,3.1-4.6,6.1-7.3,8.8c-6.7,6.8-13.5,13.5-20.4,20.1c-2.9,2.9-1.5,6.1-0.4,8.8c0.7,1.8,3.2,3.5,5.2,4c4.4,1.1,8-0.8,11.2-4.2
		c7.1-7.5,14.5-14.7,21.8-22c5.9-5.8,10.4-12.3,9.7-21.1c-0.9-11.1-2-22.1-2.8-33.2c-0.5-7.3-0.8-14.6-0.9-21.9
		c-0.1-5.3,0.1-10.7,0.4-16c0.2-3.8,2.1-6.6,5.6-8.4c6.9-3.6,10.1-4.7,17.3-0.3c5.1,3.1,6.6,7.5,7,13.1c0.8,11.9,2,23.7,3,35.5
		c0.6,6.9,1.1,13.8,1.6,20.7c0.6,9.3,1.4,18.7,1.5,28c0,4.6-0.4,9.6-2.1,13.7c-2,4.7-5.6,8.7-8.7,12.9c-1,1.4-2.3,2.4-3.5,3.6
		c-18.5,18.5-37,37-55.5,55.5c-1.6,1.6-2.3,3-2.2,5.5c0.3,10.3,0.1,20.6,0.2,31c0,2.8-1.4,3.1-3.7,3.1C392,362.9,380,363,368,363
		C368,363,368,363,368,363z"/>
	<path class="st1" d="M296,153c0-9.4,0-18.1,0-26.9c0-9.8,6.3-16.7,16.1-18.6c6.7-1.4,16.4,7.6,16.5,14.9c0.1,5.8,0,11.6,0,17.4
		c0,4.2,0,8.4,0,13.2c9.9,0,18.8-0.1,27.6,0c1.9,0,3.9,0.1,5.6,0.8c10.2,4.2,15.2,12.2,11.4,21.7c-2.1,5.4-9.9,11.6-18.5,11.6
		c-8.2,0-16.5,0.1-24.8,0.1c-0.2,0-0.5,0.1-1.2,0.4c-0.1,1.2-0.2,2.6-0.2,3.9c0,8-0.2,16,0,24c0.2,9.9-7.1,16.2-13.3,18.3
		c-2.3,0.8-5.7,0.2-8.1-0.9c-7.1-3.4-11.1-9.2-11.3-17.2c-0.2-9.3,0-18.6,0-28.4c-1.5-0.1-2.9-0.2-4.2-0.2c-7.4,0-14.7,0.1-22.1,0
		c-8.3-0.2-17.2-6-19.2-15.1c-1.8-7.9,8.3-19,17.5-19.1C277.1,152.9,286.2,153,296,153z"/>
	<path class="st1" d="M213.1,103.6c-7.1,0-13.6-0.2-20,0c-7.6,0.2-12.9-5.7-13.7-12c-0.6-4.5,2.5-8.6,6.8-10.7
		c2.6-1.2,5.6-2,8.4-2.2c5.8-0.4,11.6-0.2,17.4-0.2c0.2,0,0.4-0.2,1-0.5c0-5.9-0.1-11.9,0-17.9c0.1-5.4,2-10.1,6.8-13.1
		c7-4.3,16,1.2,16.6,9.8c0.3,3.8-0.1,7.7,0.1,11.6c0.1,3.3,0.5,6.6,0.8,10.2c6.3,0,12.2,0,18.1,0c5.8,0,10.3,2.1,13.5,7.1
		c2.8,4.4,0.2,13.7-4.7,15.4c-3.8,1.3-7.9,2-11.8,2.3c-5.1,0.4-10.2,0.1-15.9,0.1c0,6.3,0.4,12.2-0.1,18.1
		c-0.3,3.8-1.4,7.8-3.3,11.1c-1.8,3.3-5.6,5.4-9.4,4.6c-5.2-1-8.6-4.9-9.7-9.9c-1-4.4-0.7-9.2-0.9-13.8
		C213.1,110.6,213.1,107.4,213.1,103.6z"/>
	<path class="st1" d="M316.1,37c-5.7,0-10.7,0-15.7,0c-4.9,0-8.5-2.2-11.5-5.9c-4-4.9-1.1-9.9,3.3-12.8c2.2-1.4,5.2-2.1,8-2.2
		c5.1-0.3,10.3-0.1,16-0.1c0-5.6-0.3-10.8,0.1-16c0.3-3,1.4-6.2,3-8.6c1.8-2.6,4.4-5.2,8.2-4.2c4.9,1.3,8.1,5.2,8.1,9.4
		c0.1,6.3,0,12.5,0,19.3c6.7,0,12.4-0.5,17.9,0.2c3.1,0.4,6.7,2.1,9,4.2c5.2,5,1.2,12.6-4.8,15.2c-2.2,0.9-4.7,1.2-7,1.4
		c-4.6,0.2-9.3,0.2-13.9,0.2c-0.2,0-0.5,0.2-1.2,0.5c0,5,0,10.3,0,15.5c0,5.7-2.6,9.8-7.9,11.7c-1.6,0.6-4.1,0.5-5.3-0.4
		c-3.7-2.9-7-6.3-6.4-11.9C316.5,47.6,316.1,42.6,316.1,37z"/>
	<path class="st1" d="M391.2,106.7c-6.4,0-12.4,0.1-18.4,0c-4.9-0.1-7.8-3.3-10.2-7.2c-1.7-2.9-0.7-5.6,0.9-7.9
		c2.9-4.1,7.1-5.9,12.1-5.9c5,0,10,0,15.6,0c0-5.8,0.2-11.1,0-16.5c-0.2-5.1,2.6-8.5,6.4-11c4.7-3.1,12.2,2.1,12.4,8.3
		c0.1,3.2-0.1,6.4,0,9.7c0.1,3,0.5,6.1,0.9,9.6c5.3,0,10.2,0,15.2,0c4.1,0,8,1,10.7,4.2c5.5,6.3,2.4,10.2-3.4,15.2
		c-1.2,1-3,1.6-4.6,1.6c-6.1,0.2-12.3,0.1-18.9,0.1c0,6,0.2,11.5-0.1,17c-0.1,2.4-0.9,5.1-2.2,7.1c-1.9,2.8-4.4,5.7-8.4,4.6
		c-4.4-1.3-8-6.1-8-10.2C391.1,119.2,391.2,113.1,391.2,106.7z"/>
</g>
<g class="st0">
	<path class="st1" d="M137.8,140.6c7.3,0,14.6,0.1,21.9,0c5.2-0.1,10.2-5.1,11.2-10.3c10.1-51.4,37.6-89.2,86.7-110.1
		c29.2-12.4,59.6-14.4,90.2-8.4c28.3,5.5,53.1,18.8,73.7,39.2c5.2,5.1,5.8,11.6,3.3,18.7c-2.5,6.9-7.2,11.7-13.8,12.5
		c-3.8,0.4-8.9-2.6-12.1-5.6c-12.5-11.4-26.2-20.5-42.2-26c-23-7.9-46.5-8.8-69.7-2.9c-37.9,9.7-64.1,33.4-78.6,69.8
		c-5.2,13-6.4,26.8-7.5,40.6c-0.9,11.2-8.4,18-19.6,18c-19.5,0-39,0-58.5,0c-12.9,0-22.4-11.4-19-26.2c1.3-5.6,5.9-8.9,12.1-9.1
		C123.2,140.5,130.5,140.7,137.8,140.6C137.8,140.7,137.8,140.6,137.8,140.6z"/>
	<path class="st1" d="M490.9,176.1c-7.5,0-15,0-22.5,0c-3.3,0-5,1.3-5.7,4.8c-9.1,49.8-36.1,86.7-80.8,110.5
		c-20.3,10.8-42.3,16.5-65.2,16.1c-40.1-0.6-74.6-15.5-103.2-43.8c-4.6-4.6-6.8-10.3-6.1-16.8c2-17,20.5-16.1,29.3-8.7
		c7.8,6.6,15.7,13.4,24.5,18.7c23.8,14.3,49.8,18.7,76.7,12.4c49.5-11.6,79.7-43.5,92.2-92.3c2-7.7,1.7-16,2.6-24
		c1-8.8,4.7-12.2,13.6-12.3c22.3-0.1,44.6-0.1,66.9-0.1c9.3,0,15.5,3.7,16.9,10c2,9.3-2.1,19.4-9.9,23c-2.9,1.4-6.4,2.1-9.6,2.3
		C504,176.3,497.4,176.1,490.9,176.1C490.9,176.1,490.9,176.1,490.9,176.1z"/>
	<path class="st1" d="M376.5,155.9c1.2,36.3-28.6,63.8-59.7,63.7c-31.6-0.1-60-27.5-59.8-63.3c0.2-38.7,26.4-59.7,58.6-60.1
		C347.2,95.9,377.6,117.1,376.5,155.9z"/>
</g>
<g class="st0">
	<path class="st1" d="M248.9,361.2c-40.2,1.6-75.7-24.3-83.7-59.9c-4.3-18.9-1-36.7,10.6-51.9c8.7-11.5,20-20.3,33.6-26.3
		c24.4-10.8,47.4-23.9,68.1-40.9c23.6-19.3,41.7-43.3,58-68.7c10.3-16,23-29.1,41.4-35.1c21.5-7,41.4-2.8,58.4,12
		c32.1,28.1,36.8,62.9,23.8,101.6c-9.1,27-25.1,49.8-43.6,70.9c-24,27.4-51.6,50.8-82.9,69.7c-22,13.3-45.2,24-71,27.6
		C256.9,360.9,252.2,360.9,248.9,361.2z M251.1,343.4c6.5-1.3,18-2.4,28.6-6c51.6-17.8,92.5-51.3,128-91.6
		c13-14.8,23.3-32.2,32.5-49.7c10.8-20.4,15.1-42.7,4.9-65c-8.2-17.9-20.5-32.4-40.9-36.1c-24.5-4.4-41.4,8.4-54.2,27.5
		c-17,25.2-34.2,49.8-57.5,69.9c-15.4,13.3-31.8,24.6-49.5,34.2c-13.3,7.2-27.6,12.9-40.1,21.3c-25.3,17-30.8,40.8-15.6,64.2
		C200.9,333.2,221.5,342.5,251.1,343.4z"/>
	<path class="st1" d="M263.9,53.1c-0.3,35.8-14.8,66.7-34,95.7c-8.7,13.1-19.2,25.3-30.2,36.6c-16.1,16.5-35.1,25.9-59.6,24
		c-16.6-1.3-29.2-7.4-38.6-20.1c-11-14.9-10.8-37.5,0.5-52.7c8.1-10.7,17.5-20.5,26.7-30.3c17.9-19,27.6-42.2,34.4-66.9
		c2-7.3,3.6-14.8,6.6-21.6c16.4-37,57.8-37.1,81-9.2C260.6,20.2,264,32.2,263.9,53.1z M109.3,162.9c0.1,6.9,3.3,13.4,9,18.5
		c15.6,14.2,38.5,15.5,56.2,2.5c39.6-28.9,61.9-69,72.9-115.8c4.2-17.8,2.2-35.1-11.3-48.9C215.7-1.7,194,4.1,183.6,25.6
		c-2.1,4.4-3.1,9.4-4.2,14.2c-8.9,38-27.5,70.2-56.4,96.5C115.6,143.1,109.7,151.2,109.3,162.9z"/>
	<path class="st1" d="M291.5,50c-1.1-20.3,0.9-39.3,10-57.3c11.6-23,35-33.4,58.8-26.4c11.5,3.4,21.9,15.6,22.6,28.3
		c0.5,8-0.3,16.1-0.7,24.1c-0.5,9.4-1.2,18.9-2.2,28.3c-0.3,3.4-1,7.1-2.7,10c-1,1.6-4.5,2.8-6.5,2.4c-2-0.4-4.9-3-5-4.7
		c-0.3-10.3-0.1-20.7,0.3-31c0.3-6.6,2.1-13.2,1.9-19.7c-0.3-9.8-5.3-17.9-14.5-20.9c-10.1-3.3-20.2-0.8-28.7,6.2
		c-11.1,9.3-15.2,22.1-17.1,35.7c-3.4,23.8-1.4,47.2,5.3,70.3c0.4,1.4,0.9,2.7,1.2,4.1c1.5,6.6-1,12.4-6.2,13.3
		c-6.7,1.2-8.4-3.7-9.8-8.8C293.5,86,290,68,291.5,50z"/>
	<path class="st1" d="M248,322.6c-14.5,0.7-27.7-3.1-38.1-14.5c-3.5-3.8-6.1-8.2-2.2-12.6c3.9-4.6,9.8-3.6,13.4,0
		c15.7,16,33.1,11.6,50.7,5c7.3-2.7,14.3-6.3,21.4-9.5c1.7-0.8,3.3-2,5.1-2.5c5-1.5,10.5-5.2,14.3,1.7c2.7,5,0.3,9.9-6.6,13.7
		C287.8,314.2,266.7,323.1,248,322.6z"/>
	<path class="st1" d="M362,260c-3.4,4.6-5.6,8.7-8.9,11.8c-4.9,4.6-10.3,8.9-15.9,12.7c-4.7,3.2-7.8,1.7-9.3-3.8
		c-0.1-0.2-0.1-0.5-0.1-0.7c-2.3-10,18.2-29.8,28-26.7C358,254,359.5,257.2,362,260z"/>
</g>
<g class="st0">
	<path class="st2" d="M446.3,53.5c0,2.7,0,5.3,0,8c-3-0.4-6.5,1.3-8.9-2c1.2-1.4,2.3-2.7,3.5-4.1c0-0.4,0.1-0.8,0.5-1
		C443,54.2,444.6,53.8,446.3,53.5z"/>
</g>
<g class="st0">
	<path class="st3" d="M200.2,154.4c-0.6,3.8-1.3,7.6-1.9,11.3c-1.2-1.8-0.7-3.6-0.5-5.4c0.2,6.1-0.9,12.1,0.5,18.2
		c0.7,0.2,1.5,1.5,2.1,0c0.5-1.3,1.2-2.9,1-4.2c-1.8-11.3,5.6-18.8,11-28.2c1,3.2,1.5,5.7,2.6,7.9c0.9,1.7-0.5,5.4,4.2,4.7
		c1.7-0.2,1.5,4,0.6,6.1c-1.4,3.4-3.3,6.7-5.3,10.7c4.7-0.8,6.5-4.6,10-6.9c0.1,5.4,0.7,10.3-3.3,14.2c1.1,2.2-0.5,3.7-1.5,5.3
		c-5,7.9-9.4,16.1-7.6,26c-0.4,2,0.2,4.3-1.9,5.7c-0.5,0.1-1,0-1.5-0.2c-11.6-5.8-23.3-11.1-36.4-12.1c0.7-0.8,1.6-0.8,2.5-0.7
		c1.2,0.1,2.6-0.5,3-0.1c-2.4,0.3-5.4-0.5-8.5,0.5c-3.4,0.5-6.5-0.8-9.6-1.5c-0.9-0.2-2.4-0.3-2.3-1.8c0.1-1.2,1.3-1.6,2.2-2.1
		c3.9-2,8.6-0.8,13.3-3.4c-7.6-2.3-16.1,0.6-21.4-6.4c1.1-2.3,3.1-1.7,4.9-1.3c0.7,0.1,1.9,1.2,1.8-0.8c2.1-1.6-0.1-2-0.8-2.7
		c-3-2.9-5.5-6.2-7.1-10.4c4.8-1.2,8.8,0.4,13.7,2.6c-0.9-2.1-1.5-3.3-2.2-4.8c7.6,1.8,12.4,8.8,20.9,9.7
		c-6.9-9.1-17.8-11.3-25.5-18.2c2.3-1.4,4.2-0.1,6.6,0.2c-2.3-3.9-5.8-6.3-6.6-10.8c4.9,0.1,8.9,2,13.5,4.9
		c-2.2-7.8-9.7-10.5-12.9-17.4c3.8,0.2,7,0,10.7,1.2c-0.9-4.4-1.2-8.5-0.6-13.1c3.7,2.1,6.2,5,8.3,9.1c1.5-1.8,2.8-3.4,4.5-5.4
		c2.3,5.7,1.4,11.6,2.9,17.1c0.3,1,0.1,2.5,1.7,2.1c0.6-0.1,1-1.4,1.5-2.1c0.5,0.3,0.6,0.8,0.6,1.3c-0.7-0.1-0.1,1.2-0.1,0.8
		c0.2-1.9,0.6-3.6-0.2-5.2c-1.4-3.4,3.1-4.6,2.2-8.2c3.2,3,5.7,5.2,5.7,9.2c0,0.7-0.4,4.6,2.9,2.1
		C199.4,152.2,199.6,153.4,200.2,154.4z"/>
	<path class="st4" d="M384.7,269.8c1.2,3.7,3.7,7,3,11.6c-5.6-2.4-9.1-6.2-11.6-11c-3.3-6.5-8-11.6-14.6-14.9c-1.5-0.7-3.3-3-4.6-1
		c-1.3,2,0.9,3.6,2.5,4.7c5,3.2,9.1,7.5,12.4,12.3c1.9,2.8,4.5,5.3,3,9.8c-0.9,2.6,3.1,5,2.8,8.4c-4.6-1.8-7-6.2-10.9-8.8
		c-0.3,0.6-0.5,0.9-0.5,1.1c0.3,1.9,3.5,4.1,1.1,5.5c-2.1,1.2-2.8-2.3-3.8-3.8c-1.7-2.5-3-5.3-4.9-7.9c1.6,4.3-6.1,6.9-1.2,11.4
		c-2.5,1.5-4.2,0.3-4.9-0.8c-3.3-4.9-8.6-8.1-10-14.5c-2.1-9.4-4.4-18.8-8.1-27.8c-0.9-2.1-1.6-4.1-3.9-5c-0.2-0.9-0.1-1.5,1.1-1
		c0.4,0.1,0.8,0.2,1.1,0.3c0.2,0.1,0.3,0.1,0.5,0.2c6.6,2.7,11.9,6.5,12,14.7c-0.8-3.1-2.7-5.6-1.5-8.9c6.4,0.6,12.1,3.8,18.4,4.8
		c1.4,0.6,3.1,0.3,4.3,1.3c0.1,0,0.3,0.2,0.5,0.1c-0.1,0-0.2-0.1-0.5-0.2c-1-0.9-2.3-0.6-3.4-1c-6.1-1.5-12.1-3.3-18.1-5.3
		c-0.5-0.4-0.6-0.8-0.6-1.4c4.2-4.1,10.3-4.6,15-7.9c4.4-0.7,7.9-3.8,11.1-4.2c-1.6,0.4-4.2,1.3-6.7,2.6c-1.1,0.5-2.3,1.8-3.4,0.6
		c-1-1.1,0.2-2.4,0.7-3.5c-0.7,1.5-1.7,2.8-2.4,4.3c-4.2,3.7-10.1,4.3-14.6,7.5c-3.9,0.5-7.4,0.1-9.4-3.9c4.5-2.3,9.1-4.6,13.6-7
		c2.1-1.1,4.5-1.9,5.8-4c5-8.5,13.5-9.5,22.4-10.6c-1.8,2.4-3.5,4.5-5.9,7.7c6.7-2.8,12.3-5.6,18.7-4.8c0.8,2.2-2.2,2.1-2.2,4.4
		c4.5,0,9.2-0.2,13.6,1.5c-2.4,3.3-7.7,2-9.6,6c0.5,1.2,1.9,1.5,2.5,2.7c-1.4,1.2-3.1,1-4.8,0.8c-1.1-0.7-2,0-2.8,0.6
		c0.5,0.8,1.2,1.1,1.9,1.5c1,0.1,2,0.3,3.1,0.5c0.3,1.8-1.3,1.9-2.3,2.4c-1.2,0.3-2.4,0.9-3.7,1.2c-1.6,0-3.1,0.9-4.7,1.1
		c-3.9,0.9-7.7,0.5-11.3-1.4c-0.6-0.8-0.2-1.4,0.5-1.8c-0.8,0-1.2,0.4-1.2,1.2c4.1,3.4,8.6,2.8,13.3,1.8c1.4-0.6,2.9-0.7,4.3-1.1
		c1.4-0.5,2.8-0.9,4.1-1.3c0.7-0.1,1.4-0.2,2.1-0.2c4.3-1.2,8.5-1.2,13-0.3c-1.6,5.8-6.5,7-10.8,9c2.8,3.2,6.2,0.6,9.3,0.9
		c2.4,0.3,6.1-2.2,6.5,2.8c-1.2,0.8-2.4,1.6-3.9,2.5c5.2,5.2,12.5,7.5,16.5,13.7c-10,4.2-19.3-1.8-29.6-2.6c2.6,4.4,7,6.4,7.9,11.6
		c-6.9-1.5-10.6-7.3-16.1-9.8c-1.7,0.5-0.9,1.9-1.2,3c-0.2,0.8-0.1,0.8,0.3,0.2C384.3,270.1,384.4,270,384.7,269.8z"/>
	<path class="st3" d="M297.4,48.6c-0.3-0.4-0.8-0.8-0.9-1.3C293.2,35,286.3,25.2,276.8,17c-3.3-2.8-5.4-6.3-3.9-11.7
		c2.3,2.1,4.3,3.8,6.8,6.1c0.1-7.1-2.3-13.4-0.2-20.3c6.2,4.9,9.5,11,11.9,18c0.5,1.4,0,5.3,3.8,3c0.8-1,1.4-2-0.2-2.8
		c-2.5-6.6-5-13.3-7.5-19.9c-1.4-3.6-1.6-7.1,0.5-10.6c3.1,0.7,4,4,6.5,5.5c4.2-6,5.3-13.6,10.7-19.5c2.7,4.2,4.7,8.4,5.4,13.3
		c0,3.3-0.2,6.6,0.4,9.8c3.4-2.3,3.2-6.8,6.5-10.3c1.1,6.5,2.6,12.3,0.8,18.4c-1.7,5.8-5.2,11-5.8,17.4c4-7.3,6.8-15.4,15.2-19.9
		c0.9,6.7,2.3,13,0.2,19.7c2.9-0.6,3.5-3.2,6.3-4.2c-1.7,14-12.3,23.4-16.9,35.6c-6.5-1.2-7.1-3.1-4.3-12.2
		c-2.8,2.5-3.3,5.7-3.4,9.3c-0.1,3.6,1.8,7.6-1.8,10.6c-3.5-2.8-1.1-7-2.4-10.3c-0.5-2.6-1.8-4.8-5-7.2c3.7,4.1,3.2,7.7,2.7,11.5
		C302.6,50.5,300.7,50.9,297.4,48.6z"/>
	<path class="st3" d="M337.9,135.7c5.2-10.9,6.2-22.3,3.9-34.1c-0.6-3.1,0-6,1.5-8.9c1.5-2.9,2.5-0.5,3.7-0.1c2-0.9,3.5-2.4,4.3-4.4
		c1.2-1.6,2.4-3.1,4.1-5.5c0.4,5.1,1.8,9.3,1.4,14.1c3.3-7.3,7-14.4,14.4-19.5c-0.4,3.3-0.8,6.2-1.3,9.7c7.2-5,12.7-11.2,20.9-15.6
		c-1.4,5.5-4.5,8.9-6.4,12.9c-0.5,1-2.1,2,0,3c1.3,0.2,2.6,0.4,3,2c-5,13.6-18.8,19.3-27.1,30.1c7.4-1.2,13.6-4.3,18.2-10.1
		c4.8-6,8.3-13.1,15.2-17.3c1.6,1.4-0.5,2.6-0.1,4.6c5.2-3.6,10.8-5.1,17.2-3.6c-2.4,3.7-4.2,7.6-8.4,9.6c-2.4,0.6-3.7,2.4-4.8,4.4
		c0.4,0.4,0.7,0.8,1.1,1.2c-1.2,5.1-6.5,6.5-9.3,10.2c-1.4,1.8-2.6,4.7-5.8,4.4c-3-1.9-1.1,1.4-1.9,1.9c-0.1,0.5-0.2,1-0.5,1.4
		c-0.6,0.8-1.5,1.3-2.5,1.6c-2.2,0.5-4.3,1.2-6.5,2c-1.2,0.4-2.4,0.8-3.6,1.2c-2,0.7-4.1,1.3-6.2,1.6c-2.2,0.4-4.3,1.1-6.5,1.1
		c-1.9,0.1-3.9,1.2-5.8-0.1c-1.1-2.2,0.2-4.3,0.6-6.4c0.2-1.1-0.2-2.1,0.6-3.9c-0.8,1.6-0.3,2.6-0.6,3.6c-0.6,2-1.2,4.1-1.2,6.2
		c-0.6,1.4-1.7,2.3-2.9,3.1c-0.8,0.4-1.7,0.6-2.6,0.7C341.9,137.1,339.7,137.3,337.9,135.7z"/>
	<path class="st3" d="M297.4,48.6c0.2-0.7,0-2.2,1.4-0.7c2.2,2.5,2.9,1.2,3-1.3c0.3-4.1,1.6-8.4-2.6-11.5c-0.7-0.5-0.9-1.7-0.1-2.4
		c0.9-0.8,1.7-0.1,2.3,0.6c2,2.2,5.2,3.7,4.8,7.5c1.2,4.6,0.1,9.3,1.1,13.9c-1.3,5.3-0.4,10.8-0.7,16.1c0,2.3-0.2,4.6,0.3,6.8
		c-1,3.2-1.4,6.4,0,9.6c0.1,0.8-0.1,1.6-0.6,2.3c-0.5,0.4-1,0.3-1.5,0c-3.5-1.4-6.2-4-8.7-6.8c-0.6-1.4-1.3-2.7-3.2-2.5
		c-11-8.2-24.2-13.2-35.8-22.7c4.2-0.2,6.9,1.7,10.7,0.2c-8.7-3.2-14.4-8.8-18.5-17c4.7,0.7,9,1.4,14.4,2.2
		c-4.5-5.9-11.3-8.7-12.9-16.2c2.7,0.9,5,1.7,9.1,3c-4.9-7.3-6.6-14.2-6.8-22c3.6,1.4,5.5,4.3,8.1,6.3c1,0.8,1.8,3.4,3.8,1
		c0.9,0,1.5-0.8,2.4-0.8c1.4,0.8,2.5,1.9,3.1,3.4c1.1,3.1,2.4,6.1,4.8,8.4c1.3,0.6,0.6,3.4,3.1,2.6c1-0.8,1.9-1.7,3.4-1.2
		c6.7,5.7,8.5,13.8,10.8,21.6c1.7,5.7,3,11.6,5.4,17.1c0.8,2,1.8,3.3,4.5,4.8C302.8,62.6,298.2,56,297.4,48.6z"/>
	<path class="st3" d="M308.4,51.9c-0.1-4.6-0.1-9.1-0.3-13.7c-0.1-4.1,3.5-6.1,5.4-9c0.2-0.3,1.1-0.3,1.5-0.2c0.8,0.3,0.9,1,0.5,1.8
		c-0.2,0.5-0.4,1-0.7,1.5c-2.8,4.8-3.7,9.1,2.4,12c-3.3,8.2-4.5,16.9-7.4,25.2c-0.4,1.1-0.3,1.7,0.4,2.4c0.9,1,1.9,0.8,3,0.3
		c1.6-0.8,2.2-2.4,2.8-3.9c2.8-6.5,4.8-13.3,6.3-20.3c1-4.4,1-4.4,4.6-8.2c0.8-0.8,0.7-2.4,1.2-3.6c1.2-2.8,0.3-6.2,2.5-8.5
		c2.3,0.2,1.5,3.1,3.5,3.4c1.1-1.4,0.1-3.6,1.6-4.8c0.8,1.1,0.9,2.1,0.6,2.6c0.5-1.1-0.3-3.1,0.4-4.9c1.2-3.3,2.4-1.7,3.7-0.1
		c3.5,0,1.9-3.8,4-5.2c3.9,4.9,7-1.2,11-1.2c0.3,3.5-2.9,5.5-3.1,8.5c5.7,1.2,5.6,3.4-0.7,11c2.1,0.3,4,0.6,5.9,0.9
		c0.3,3.9-5.2,3.4-5.1,6.9c1.1,1.2,0.1,2.5,0,3.7c-5,3.5-10.6,6.2-15.4,10.8c4.3,0.2,7.1-2.4,10.3-3.7c1.2-0.5,3.8-5,4.5,1
		c0.2,1.7,4.6-0.7,7.2,0.3c-0.4,2.8-1.6,5.1-3.4,7.1c-1.9,1.5-4.5,2.3-4.3,5.4c0.7,0.4,1.5,0.7,2.2,1.1c-0.2,1.1,2.2,1.1,1.1,2.6
		c-4.6,4.8-11.1,3.9-16.8,5.1c-10.5,2.1-20.1,6-28.8,12.2c-1.1,0.1-1.5-0.6-1.8-1.5c-0.2-2.2-1-4.6,1-6.5c4.4-2.7,7.3-7,11.1-10.3
		c1.5-1.3,2.4-3.3,4.8-3.2c4.3-0.9,8.8-0.1,13-2.2c-4,2.1-8.3,1.2-12.4,2.1c-2.6-0.9-3.4,1.5-4.8,2.6c-4.1,3.2-6.5,8.3-11.8,10.1
		c-1.1-0.9-1-2.2-1.1-3.4C307.2,69.4,305.5,60.5,308.4,51.9z"/>
	<path class="st3" d="M383.6,146.6c2.7,1.1,7.8,0,5,5.9c-0.1,0.2,1,1.2,1.7,1.7c1.4,0.9,2.9,1.6,4.2,2.6c1.6,1.1,4,2.2,3,4.6
		c-0.7,1.8-2.9,0.8-4.4,0.7c-2.7-0.1-5.3-0.6-8.3-0.4c8.3,5,15.8,10.6,19.2,20.3c-6.9-0.3-13.1-3.1-19.6-5.5
		c-0.1,0.6-0.2,0.9-0.1,1.1c0.5,2.2,3.2,4.9,1.3,6.4c-2.2,1.8-4.5-1-6.6-2.3c-5.1-3.3-8.8-8.2-12.8-12.7c-1.3-1.5-2.7-2.9-5.2-5.5
		c1.6,8.2,3,14.8,4.4,22c-3.4-1.5-5.5-5.2-9.4-3.5l0.1,0.1c-0.3-1.1,1.8-1.8,0.8-2.8c-3.5-3.1-4.2-7.8-7.4-11.6c0,3.4,0,6.8,0,11.8
		c-5.4-8.1-7.7-15.3-7.8-23.3c-0.1-5.8,0.4-11.7-2.3-17.1c-0.1-3.2,2.2-2.7,4.2-2.8c2.6,1,5.7-0.3,8.2,1.4c1.3,0.7,2.2,1.6,2.5,3.1
		c0.1,0.5,0.2,1,0.1,1.6c-0.6,3.7-0.4,7.4,0,11.1c0.5,1.2,0.4,2.6,1.3,4.4c-0.9-2.1-1-3.8-1.4-5.3c-0.7-2.6,0.4-5.4-0.2-8
		c2.5-1.2,0.8-2.8,0.4-4.2c0.3-0.5,0.8-0.8,1.4-0.9c7.8,3.8,16.1,6.1,24.8,6C381.7,145.4,382.8,145.9,383.6,146.6z"/>
	<path class="st5" d="M219.1,187.4c0.7-1.5,1.5-3.1,2.2-4.6c4.2-0.6,3.6,3.6,5.6,6.1c2.5-6,4-12.2,10.7-15.8
		c0.1,5.4,0.4,10.3-0.9,16c2.6-1.8,2.8-4.2,4.1-5.8c2.6-5.3,7.4-6,12.5-6.1c0.9,0.5,1.9,1.1,2.8,1.6c1.1,0.8,2.2,1.7,1.8,3.4
		c-0.4,4.1-4.4,6.2-5.5,9.8c0.9,1,1.7,0.3,2.6,0.1c1.9-0.3,4.8-1.4,5.6-0.5c1.7,1.8-0.6,3.9-1.3,5.9c-1,2.8-3.3,4.2-5.7,5.7
		c-5.4,3.4-10.6,7-15.5,11.6c7.5-2,14.9-4,22.9-6c-1.4,6.9-4.4,12.4-10.8,15.4c0.9,1.2,2.1,0.5,3.1,0.7c1.3,1.1,3.3-0.2,4.6,1.1
		c-4.1,8-4.9,8.3-13.7,5.5c0.2-0.5,0.9-0.4,1.2-0.8c-1,0.4-2.2-0.2-3.1,0.5c-3.7-0.5-7.4-1-11.2-1.6c-3.2-0.5-6.1,0.2-8.8,1.8
		c-1.8,1-2.6,0.1-2.8-1.6c1.3-3,4.6-4.3,6.1-7.2c1.3-1.2,1.3-3.5,3.5-4.1c1.9,0,3.4,1.4,5.2,1.4c2.4,1.2,4.9-0.7,7.3,0.1
		c-2.3-0.8-4.9,1-7.2-0.2c-1.6,0.1-2.9-0.9-4.4-1.4c-2.1-3.1,1.6-5.2,1.1-7.6c-1,3.8-2.9,7.8-5.4,11.5c-1.7,2-2.9,4.6-5.9,5.1
		c-0.9-0.3-1.3-0.9-1.3-1.8c1.2-3,1-6.3,1.6-9.4c0.3-0.7-0.2,0.1,0.2-0.5c0.9-1.2,1.2-2.5,1.6-3.9c-0.9,0.3-0.2,3.3-2.4,1.4
		C217.5,204.8,215.9,196.2,219.1,187.4z"/>
	<path class="st3" d="M204.8,244.8c-3.7,4.1-7.3,8.1-11,12.2c-2.6,1.1-3.9,3.5-6,5.2c-1.4,1.2-2.7,2.7-4.2,0.1
		c-4.1-0.7-6.7,2.8-10.3,3.5c-1.9,0.4-3.4,2.1-5.9,1.6c2.6-5.7,7.6-9.4,11.5-15.3c-7.2,3.2-13.1,7.8-20.6,5.4
		c-0.2-2.5,3.3-3.2,3.1-6.2c-5-0.7-10.8,1.2-14.8-3.8c4.9-4.1,12.5-2.3,17-7.6c-2.5-2.3-4.9-4.5-7.7-7c8.1-1.8,15.4-1.9,22.6,0.7
		c-0.5,0.7-1.2,0.5-1.9,0.7c0.3,0.8,0.6,0,0.8-0.1c1.7-0.2,3.7,0.9,5.1-0.8c-1.4-2.9-4.5-2.6-6.9-3.3c-5.8-1.6-9.8-4.9-11.6-10.8
		c3.9-3.8,8.7-1.5,13.1-2.1c2.9,0,5.2,2.5,8.6,2c-1.1-2.1-2-3.9-3.3-6.2c3.7,0.2,6.4,1.9,8.9,3.6c6.1,4.2,11.9,8.9,18.6,12.2
		c0.3,0.2,0.3,1,0.5,1.5c-0.5,3.1-4.7,3.1-5.2,6.2c-0.2,0.5-0.4,0.9-0.9,1.1c-1.4,0.6-2.6,0.3-3.6-0.8c-0.9,0.1,0.3,1-0.4,1.2
		c-0.8,0.9-1.9,0.5-2.8,0.9c-3,1.1-6.1,0.5-9.1,1.2c-2.4,0.7-4.9,0.8-7.4,0.8c-0.2,0.7-0.3,0.5,0,0.4c2.7-0.7,5.7-0.4,8.4-1.4
		c2.8-0.1,5.6-0.1,8.3-0.9c1-0.3,2-0.5,2.8,0.5c0.5,0.6-0.6,1-0.1,1.6c0.3-0.4,0.7-0.8,1-1.3c0.8-0.7,1.7-1.2,2.7-0.3
		C205.1,241.1,205.1,242.9,204.8,244.8z"/>
	<path class="st5" d="M383.5,122.5c5.1-4.7,10.3-9.4,15.5-14.2c4.2-0.4,7.4-3.1,10.9-5.1c4.5-2.5,9.3-4.5,14.2-5.7
		c1.1-0.3,5.6-3.5,3.8,2.2c2.6,0.6,5.2,1.4,7.8,1.9c2.7,0.5,5.7-0.9,8.3,0.9c-3.3,1.4-6.6,0-9.4,0.6c2.2,1.1,6.1-1.8,8.4,1.6
		c-3.3,3.6-5.1,8.8-11.3,10.1c2.9,1.8,3,3.4,0.4,5.2c-2.9,2-5.9,3.4-9.6,3.5c-6.5,0.2-13.1,0.8-20.4,1.4c1.7,2.7,4,3.1,5.8,3.9
		c3.3,1.5,6.7,3,9.4,5.5c1,1,2.8,1.6,2.1,3.4c-0.7,1.7-2.5,1-3.9,1.2c-4.4,0.3-8.8-0.9-13.2,0.1c-0.4,1.7,1.8,2.1,1.8,4.2
		c-9.9,1.1-18.9-3.2-28.2-5c-0.1-0.5,0.4-0.7,0.6-1.1c-1.3,0.3-2.5-0.4-3.7-0.6c-1.9-0.2-4.4,0.7-5.1-1.9c-0.7-2.6,2.8-2.1,3.3-4
		c0.1-0.8,0.7-1.2,1.4-1.4c2.1-1.3,4.6-1.5,6.8-2.7c0.6-0.3,1.3-0.7,1.9-1c0.6-0.1,1.2,0.5,1.7,0.1c0.2-0.1-0.4-0.8-0.7-1.3
		C381.9,123.5,382.4,122.8,383.5,122.5z"/>
	<path class="st3" d="M314,259c1,0.5,1.7,1.2,2,2.4c-0.2,1.9,1,2.6,2.5,3.2c1.4,1.4,2.3,0.5,3.3-0.6c0.6-0.6,1.4-2.6,2.6-0.4
		c0.5,0.7-0.9,2.9,1.6,2.1c2-3.2,2-3,5.3-1.8c2.4,0.9,4.6-2.1,7.3-1.1c-0.1,2.4-1.9,4.1-2.8,6.1c-1,1.9,0.4,5-3,5.8
		c-0.6,0.6-1.2,1-1.9,1.4c-0.6,0.3-0.2,1.1-0.1,0.4s0.7,0.8,0.5,0.1c1.6,0.7,1.8,2.1,1.6,3.5c0,2.8-1.1,4-4,4.6
		c-3.1,0.6-6.8,0.2-9.9,3.2c3.7,1.3,7.3-0.1,9.5-0.8c4.2-1.4,4.8,2.6,7.4,3c0.9,0.1,1,1.2,0.3,1.6c-3.8,2.4-5.9,8.4-12.1,5.9
		c-0.4-0.2-1,0.2-2.1,0.4c2.6,0.7,4,2,4.2,4.3c-2.8,0.1-4.5,3.9-7.6,2.1c-2.7-1.5-5-3.7-7.6-5.3c-2.4-1.5-5.1-2.9-5.7,1.8
		c-0.2,1.9-2,2.4-3.8,3.9c0.2-2.5,0.3-4.3,0.5-6.1c-0.4-0.4-0.6-0.9-0.6-1.4c0.1-1.4,0.7-2.6,1.9-3.5c0.5-0.2,1-0.3,1.6-0.3
		c2.4,0.2,4.6,0.8,6.3,1.3c-0.1,0,0.9,0.1,0.6-0.1c-12.6-6.2-5.1-14.4-3-22.2c-1.1,3.1-4,5.5-3.8,9.5c-0.5,1-1.3,1.6-1.9,2.5
		c-1.8,4.1-1.4,8.5-2.2,12.8c-0.3,0.8-0.7,1.5-1.6,1.8c-2.1-0.4-3.1-2.1-4.2-3.6c-1.4-0.6,2.1-4.6-2.2-3.3c-0.3,0.1-0.6-0.3-0.9-0.6
		c-1-1.4-1.1-11.5-0.1-13.3c1-1.4,1.8-2.9,2.5-4.4c0.6-1.3,1-2.7,1.4-4.1c0.5-1.4,0.7-2.9,1.1-4.3c1.3-2.7,2.1-5.6,3.2-8.5
		c0.7-1.3,1.5-2.5,1.7-4c0.1-1,0.3-2,0.7-2.9c1.1-1.6,2.2-4.1,3.8-0.3c0.9,2,2.5,3.5,3.6,5.3C310.9,256.6,312,258.3,314,259z"/>
	<path class="st6" d="M353.5,191.8c0.1,2.4-2.8,2-3.5,3.6c0.2,0.2,0.3,0.7,0.5,0.7c2.3,0.2,6.2-0.2,6.1,1.9
		c-0.1,3.9-4.3,4.1-7.5,4.7c-4.1-0.3-7.5,2-11.3,3c-2,0.5-4.2,1.7-5.5-1.2c-0.4-2.2,1.4-3,2.7-4.4c-1.6,1.3-2.9,2.6-3.7,4.3
		c-1.5,2.3-3.2,4.5-5.3,6.3c-0.4,0.3-0.8,0.6-1.2,0.9c-1.6,0.8-3.2,1.6-4.8,2.6c-2.5,1.1-5.5,3.6-5.8-1.9c-0.2-4.1-1-8.2-0.9-12.4
		c0-2.4-0.1-4.8,0-7.2c-0.1,2.2,0,4.5-0.1,6.8c0,1.6-0.1,3.3,0.1,4.9c0.1,1.4,0.9,3.3-0.8,3.9c-2.2,0.9-2.3-1.7-3.4-2.8
		c-0.9-0.9-1.4-2.1-2-3.2c-0.2-0.2-0.1-0.6-0.3-0.7c-0.2-0.2-0.3,0,0,0.3c1.5,4,5.2,6.5,7.2,10.2c-0.5,3.5,0.5,7.3-3.1,9.8
		c-0.5,0.3-1.1,0.2-1.6-0.1c-4.6-4.8-6-11.4-8.7-17.2c-1.7-3.7-2.5-7.8-4.1-12.9c6.4,3.7,6.5-0.1,6.7-3.7c0.2-4.4,1.5-8.1,5.6-11.1
		c0.3,1.9,0.5,3.6,0.8,5.4c2.6-2.5,4.9-4.6,7.3-6.8c1.9,0.4,1.5,2.2,2.2,3.3c0,1,0.1,2.1,0.1,3.1c1.1,1,0.4,2.4,1,3.5
		c0,3-2.8,5.4-2,9.2c5.2-5.5,7.5-12.9,13.9-17c0.7,2.9-0.6,5.2-1.2,7.6c-0.2,0.9-0.1,1.3,0.4,1.8c0.8,0.8,1.4-0.1,1.7-0.5
		c2.2-4.1,7-5.1,10.5-9.6c-0.9,3.5-1.4,5.6-2.1,8.4c3.9-1,7.5-1.9,11.1-2.8c0.6,0.6,1.1,1.2,1.2,2c-0.7,1.1-1.7,1.7-2.9,2.3
		c-1,0.4-2.2,1.6-1.6,2.8c0.3,0.5,2,0.2,3.1,0.3C353.4,190.2,353.1,191.2,353.5,191.8z"/>
	<path class="st5" d="M288.5,125.7c0,0.4-0.1,0.7-0.1,1.1c-0.7,1-1.6,1.9-1,3.3c0,0.4-0.1,0.8-0.1,1.1c-1.2,1-0.7,4-3.6,3.1
		c-0.6-0.9-0.8-2-0.9-3.1c-0.1-1.8,0-3.6-0.1-5.3c0-0.3-0.1-0.6-0.1-1s-0.1-0.6-0.3-0.9c-0.4,0.3,0.1,0.5,0,0.8
		c0,3.6-0.5,7.2,0.5,10.7c0.4,2,0,3.9-1.3,5.5c-0.4,0.4-0.9,0.7-1.4,0.8c-1.2,0.1-2.1-0.4-2.7-1.4c0.8-1.8-1.1-2.4-1.5-3.7
		c-0.3-3.5-2-6.6-3.2-9.8c-0.3-0.7-0.5-0.1-0.5-0.1c1.4,1.9,2.1,4.1,2.5,6.5c-0.4,2-1.7,3.2-3.5,4c-1.6,0.5-3,0-4.5-0.4
		c-0.5-0.1-0.9-0.3-1.4-0.5c-1.3-0.7-2.6-1.3-3.8-2.2c-0.6-0.5-0.9-1.1-0.9-1.9c0-1.2,1.1-2.9-1.1-3.4c-0.5-0.8-0.7-1.7-0.8-2.6
		c-0.2-1.6-0.7-3.1-1.7-4.4c-0.7-0.9-1.5-1.8-2.1-2.8c-0.6-1.6-1.6-2.9-2.9-4c-0.3-0.4-0.6-0.8-0.8-1.3c-0.7-2-2.4-3.3-3.6-5
		c-0.6-2.1-2.3-4.5,1.6-5.2c0.7-0.1,1.3-0.1,2-0.1c1.8-0.8,2.7,0.3,2.9,0.6c-0.3-0.5-1.2-2-1.8-3.7c0-1.2-0.6-3,1.7-1.7
		c1.9,1.1,3.8,2.3,6.9,4.2c-4.3-6.7-7.1-12.6-8.6-19.1c0.5-0.9,1.3-1.1,2.2-1.2c6,2.9,7.9,9.8,13.2,13.4c1.8-2.8,3.5-2.8,5.8-0.3
		c1.4,1.5,2.3,3.5,4.1,4.7c2.5,1.9,0.6,6.3,4.2,7.5c1.4-2.1-0.2-4.2,0.2-6.4c0-3.8,1-7.4,2.4-11.8c2.1,5.3,3.9,9.6,4.8,14.6
		c1.9,10.2,2.5,11.1,0.3,18.2C288.8,123.4,287.9,124.3,288.5,125.7z"/>
	<path class="st3" d="M302.9,253.6c0,1.6-0.8,2.7-2.2,3.4c-1.4,2.9-1.8,6.2-3.7,8.8c-0.1,1.2-0.4,2.4-0.8,3.5
		c-0.1,1.8-1.4,3.4-1,5.2c-0.8,1.5-1.5,3-2.2,4.5c-1.5,0-2.6,0.4-3.2,2.1c-1.5,4.5-3.8,3.2-6.1,0.6c-0.4-0.2,0.2-1.7-1-0.9
		c-0.8,0.6-1.2,1.7-2.5,1.6c-0.5-0.3-1.1-0.7-1.1-1.1c0.4-5-1-9.4-3.6-13.6c7.2-3.6,15.2-5.9,20.6-13.7c-6.6-1-11.9,0.4-16.7,3.4
		c-4.6,2.9-8.7,6.6-15.1,7.2c0.9-2.5,1.7-4.6,2.6-7.2c-2.2,0.2-4.1,0.3-5.9,0.4c-2-0.4-4.6,0.7-5.6-2.2c0.6-1.6,4.6-2.8,0.4-5.1
		c-0.9-0.5,0.8-2,1.9-2.6c1.7,0,2.9-1.4,4.5-1.8c1.1,0.7,2.3,1,3.6,0.5c1.3-0.5,3.3-0.8,3.7-1.8c0.9-2.2-2.3-1.8-3-3.7
		c4-3.4,8.3-3.6,13.6-3.2c8,0.6,16,1.1,23.8,3.3c0.6,0.7,0.2,1.8,0.9,2.4c1.2,4,2.8,7.8,5.5,11c-0.1,0.5-0.4,0.9-0.9,1.1
		c-2.2-1.4-3.2-3.8-4.4-6c-1.1-2-1.4,0.6-2.2,0.5C301.7,251.4,302.3,252.5,302.9,253.6z"/>
	<path class="st3" d="M265.8,135.6c0.3,0,0.5,0,0.8,0.1c1.5,1.4,3.2,2.4,5.3,1.8c0.8,0,1.4,0.3,2,0.7c1.7,1.2,3.4,2.6,5.2,3.8
		c1.1,0.6,2.3,1.1,2,2.8c-1.3,1.4-2.1,3.7-4.7,3.1c-8.2-3.1-16.5-0.8-24.8-0.5c-4.8,0.2-9.5,0.5-14.2,0.4c-1-1.3,0.1-2.2,0.6-3
		c1.5-2.6,0.8-3.6-2.2-3.5c-3.5,0.1-7,0-10.8-1.4c1.6-1,3-1.8,4.6-2.8c-3.7-3.2-9.6-2-12.1-6.9c1.6-1.9,3.8-1.2,5.7-1
		c4.1,0.4,1.8-2.2,1.3-3.5c6.6-0.3,12,6,19.9,2.4c-12.1-6.1-26-4.7-34.8-15.3c0.8-0.9,2.2-1.4,3.8-1.4c2.1-1.3,3.8,0,5.7,0.6
		c1.9,0.6,3.8,1.4,5.8,0.7c1.6-0.1,3.3-0.3,4.3,1.4c0.2,1.3-1,1-1.6,1.4c1.5,0.1,2.5-0.9,3.7-1.5c7.1-2.4,10.6,2.8,14.6,6.8
		c1.9,2.9,3.9,5.7,7.6,6.4c1.1,0.4,1.9,1.1,2.5,2.1c0.2,0.5,0.4,1.1,0.4,1.7c0,0.9-0.2,1.8-0.8,2.6c-3.5,1.4-7.1,0.3-10.7,0.6
		c-3.6-1.6-7.8-0.6-11.2-2.6c3.4,2,7.5,1.1,11,2.7c4-0.4,8.1,1,12-1c1.4-0.5,2.6-0.4,3.8,0.6C262.2,134.5,263.8,135.6,265.8,135.6z"
		/>
	<path class="st3" d="M258,182.3c-0.9-0.9-1.7-1.7-2.6-2.6c-0.3-1-1.2-0.8-1.9-0.9c-5.1-1-8.8,1.9-12.6,4.5c-1.3-0.3-2-0.8-0.9-2.2
		c1-1.2,2-2.5,3.1-3.8c1.1-0.9,2-1.9,2.4-3.3c1.1-2.4,7-4.3,0.8-7.4c0.6-1.3,2.3-2,2.5-3.6c1.1-1.4,2.2-2.7,3.6-4.4
		c-3-1-5.7-1.9-9.5-3.2c7-2.5,12.9-4.9,19.3-5.4c4.1,1.9,8.6-1.3,12.8,0.8c1.2,0.6,2.2,0.2,2.9-0.9c0.3-0.4,0.7-0.7,1.1-1
		c1-0.6,2-0.7,2.9,0.2c1.2,5.3-0.7,10.3-1.9,15.3c-0.3,1-1,2-0.3,3.1c-1.9,7.2-6.6,12.7-10.9,19.5c-0.9-2.4-1.5-3.8-2-5.3
		c-1.9-5.6-3.1-5.9-7.1-1.6C259,180.8,258.5,181.6,258,182.3z"/>
	<path class="st7" d="M204.8,244.8c-1.8-1.6-0.8-3.8-1.2-5.6c-0.2-1.1,0.5-1.5,1.4-1.7c1.9-0.9,3.7-1.8,5.8-0.6
		c1.7,2.2,1.1,4.9,1.7,7.3c0,2.4,0.3,4.7-0.7,7.2c-0.1,0.6,1,0.1,0.3,0.1c0.5-3.4,0.8-6.7,0-10.1c-0.2-2.7-1-5.4,1.1-7.7
		c0.6-0.9,1.2-1.7,2.1-2.2c2.6-0.7,4.7-0.2,6.1,2.4c1.8,2.4,0.4,5.2,0.9,7.7c-0.5,1.9-1,3.7,0.4,5.4l-0.1-0.1
		c1.7,3.2,0.7,6.7,0.9,10.1c-0.5,4.9-1.8,9.5-3.7,14.5c-1.5-3.4-1.6-6.6-2.1-10.6c-5.5,6.7-8.5,14-13.8,19.6c-1.3,0.1-1.9,0.9-2.2,2
		c-4.8,3-4.9,2.7-5.5-2.7c-1.3-11.1,2.3-20.7,7.9-30C204.6,248.4,207.3,246.9,204.8,244.8z"/>
	<path class="st8" d="M245.8,121.5c-1.2-1-2.5-2-3.7-3.1c-3.1-2.8-6.4-4.9-10.9-3.7c-0.7,0.6-1.4,0.6-2.2,0
		c-1.2-1.5-2.9-0.9-4.5-1.1c-3.8-0.3-7.6-0.8-9.9-4.4c-3.3-1.8-6.6-3.6-10.9-6.1c2.6-0.4,3.8-0.6,5.1-0.8c-2.3-2.4-5.2-4.3-5.3-8.5
		c2.7,0.8,5,1.4,7.4,2.2c1.5,0.5,3.1,2.2,2.3-1.5c-0.4-2,1.9-1.1,2.7-0.5c2.4,1.8,4.7,3.9,7.7,6.4c0.2-4-3.4-4.8-4.4-7.8
		c4.3-0.7,7.1,1.8,9.7,4.2c2.9,2.6,5,5.9,6.5,9.4c1.4,3.3,3.6,5.5,7.6,6c-2.6-4.7-3.7-9.5-3.1-14.6c0.1-1.5,0.1-3.1,1.7-3.7
		c1.9-0.8,1.9,1.3,2.5,2.1c1.8,2.4,3.3,5,4.9,7.5c-2.3,1.7-1.1,3.6-0.2,5.5c0.6,1.8,2.1,3,3.2,4.4c0.1,0.5,0.1,0.9,0.1,1.4
		c2,0.7,2.4,2.6,3.2,4.3c0.7,0.6,1.4,1.3,2.2,2c0,2.2,1.6,4.2,0.9,6.5c-0.6,1.6-1.4,2.6-3.2,1.5c-0.8-0.4-1.6-0.8-2.4-1.2
		C250.2,126.3,248.1,123.7,245.8,121.5z"/>
	<path class="st9" d="M237.4,272.4c0.6,1.1,1.2,2.1,1.8,3.2c1.5,0.6,2.7,1.6,2.9,3.3c0.1-0.5-0.2-0.8-0.2-1.1
		c-0.5-1.1-0.1-2.4-0.6-3.4c1.5-2.1,2.5-6,6.1-0.7c0.2-2.5,0.4-4.4,0.6-6.2c8.9,3.7,8.9,3.7,5.9,7.9c1,1,3.8-0.9,3.4,1.1
		c-0.5,2.2,1.1,5.6-2.9,6.4c2.2,2,4.5,0,7,0.9c-1.9,2.1,0.2,6.4-4.5,6.6c2,2.9-3.3,4.6-1.3,7.5c-0.3,2.2-1.4,1.6-2.5,0.8
		c-0.6-2-2-0.9-3.2-0.8c-4.8-0.7-6.1,4.4-9.7,5.7c-0.8-0.3-1.4-0.8-1.8-1.5c-1-3.6-1.8-7.3-2.6-10.9c-0.8-3-4-4.5-4.5-7.6
		c-0.2-0.2-0.4-0.5-0.3-0.8c0-0.3,0.1-0.5,0.1-0.5c0.6-0.6,1.5-0.9,1.2-2c-0.3-0.6-0.5-1.3-0.6-2C232.6,275.4,234,272.9,237.4,272.4
		z"/>
	<path class="st10" d="M280.9,305.5c0,1.5,0.2,3.1-1,4.3c-1.1,1.7-1.3,4.2-4,4.5c-2.8-1.1,0.9-5.2-2.8-5.9c-1.2,0.3-2.4,0.9-3.6,0.9
		c-1.5,0-4.9,2.6-3.3-2.4c0.5-1.6-1.6-1.3-2.9-1.3c-1.6-1.9-4.3-2.9-4.5-5.9c4.8,1.2,7.7-2.6,11.3-4.5c1.2-0.6,1-1.7,0.3-2.1
		c-1.5-0.9-1.5-3.8-4-3c-1.4,0.4-2.6,1.2-5,2.3c1.8-5.3,2.2-10,6.8-13c1.4-0.9,4.5-1.8,1-4.6c-1.3-1.1,1.6-2.6,2.9-3.8
		c2.5,1,2.5,3.5,3.3,5.5c0.2,1.6,1.7,1.8,2.8,2.5c0.7,1.3,1.2,2.7,1.2,4.1c-0.1,3.2-1.6,6.4-0.4,9.6c0.2,0.5,0.4,0.9,0.5,1.4
		c0.1,2.7,2.5,5.4,0.3,8.2c-2.8,1.1-5.6,1-8.7,0.3c3,1.4,6.1-0.2,9,0.7C280.8,304,281.4,304.5,280.9,305.5z"/>
	<path class="st3" d="M259,335.2c-3.1,2.2-1.7,6.2-3.4,9c-1.3-0.6,0.2-2.8-1.8-3c-0.6,0.4-1.1,0.8-1.2,1.6c0.4-0.9,0.9-1.6,2.1-1
		c0.6,1.4-0.2,3,0.7,4.4c-1.9,4.7-5.9,5.8-12,3.4c-0.6-0.1-0.9-0.7-1.3-1.1c-1.9-1.4-4,0.3-5.9,0.1c-0.5-1.6,2-1.5,1.1-2.6
		c-0.4-0.5-1.8,0-2.8,0c-0.6-1-2.1-1.8-1.2-3.4c0.1-0.9-0.1-2.2,0.4-2.6c1.9-1.6,4.7-3-0.6-4.1c6.8-4.5,12.7-1.8,18.5,0.4
		c1-2.3-0.6-2.9-1.5-3.2c-4.3-1.2-7.8-3.1-8.9-7.9c0.4-2.6,2.1-1.4,3.4-1.1c3.8,0.3,8.3-1.2,10.5,3.6
		C256.9,330,259.5,331.8,259,335.2z"/>
	<path class="st11" d="M349.4,209.6c0.8,0.7,1.5,1.3,2.3,2c-0.3,0.5-0.8,0.6-1.2,0.8c0.2,0,0.4,0,0.6,0c1,0.3,2.1,0.4,2.6,1.5
		c0.3,0.8-2.6,1.1-0.5,2.2c1.7,0.9,3.6,1.4,6.4,2.4c-4.4,1.6-7.5,3.4-11.3,2.3c-0.5-0.1-2.1-1-1.5,1c0.2,0.5,0.8,0.7,1.2,1.1
		c0,2-1.1,1.6-2.3,1.1c-2.1-0.6-4.3-0.9-6.2-1.8c-8.7-3.8-17.2-4-25.6,0.8c-0.9-0.2-1.4-0.8-1.8-1.6c0.8-5.7,6-6.3,9.8-8.5
		c1.3-0.3,2.5-0.9,3.8-0.8c0.5,0,1,0.2,1.5,0.4c2.5,0.8,4.9,4.2,7.5,0.2C339.3,209.5,344.3,209.4,349.4,209.6z"/>
	<path class="st3" d="M230.2,307.6c-0.4-1.5-1.8-1.3-2.7-1c-5.2,1.5-8.5-2.2-12.4-4.4c-2.3-1.3,0.2-1.2,0.2-1.7
		c0.1-3.2,2.7-6.4-0.7-9.3c2.1-1.3,4.7,2.4,5.8-1.2c1.8-1.2,3.2-1,4.1,1c0.8,0.4,1,3.4,2.3,0.8c0.6-1.3,0.4-3.5,2.1-3.8
		c1.7-0.2,2.9,1.7,3.2,3.1c0.6,2.7,2.1,1.6,3.5,1.2c1.4,3.2,2.8,6.4,2,10.1c-0.8,2-3.1,1.9-4.3,3.4
		C232.4,306.6,231.8,308,230.2,307.6z"/>
	<path class="st8" d="M270,355c-0.1-0.3-0.2-0.6-0.2-1c-0.3-0.3-0.4-0.6-0.3-0.9c0.1-0.3,0.2-0.5,0.2-0.5c1.4-0.5,1.8,0.7,2.5,1.5
		c1.5,2.8,2.5,5.9,4.5,8.4c-2.1-2.7-3-6.1-4.9-9c-0.8-1.7-3.5-3.1-1.7-5.2c1.6-1.9,3.7-0.4,5.6,0.4c2.2,0.9,4.1,3,6.8,1.6
		c2,0.5,4.3,1.2,4.7,3.1c0.6,3.2-0.1,6.1-5.9,4.5c2.1,2.2,3.4,3.6,4.8,5c-0.8,1.7-2.7,0.2-3.6,1.3c1.6,1.9,1.2,1.9,0,4.4
		c-1,2.1,1.3,4.5,0.1,7.2c-3.9-0.9-4.2-4.9-6.6-8c-0.5,1.6-0.8,2.8-1.3,4.3c-2.6-1.6-0.9-4.2-2-5.9c-2.2-0.3-1.3,3-3.5,2.9
		c-1-2.3-0.4-4.4,0.8-6.5C270.7,360.1,270.6,357.6,270,355z"/>
	<path class="st12" d="M267.7,326.4c0.9-5.8,5-6.6,9.8-6.3c0.4,1.8,3.5,0.4,3.3,2.8c-1.2,1-2.3,2-4.5,3.9c5.5-1.2,7.5,0.2,9.9,4.4
		c2.3,3.9-1.5,4.6-1.5,7.1c0,1.8-2.4-0.7-3.8-0.7c-0.4,0-0.8,0.5-1.1,0.8c1.1,2.2,0,3.9-1.2,5.6c-2.6-0.8-4.7-2-5.6-4.9
		c-0.9-3-3.3-4.7-6-5.7c-2.8-1-2.1-2.2-0.6-3.8c0.8,0.1,1.4,0.4,2.1,0.8c0.6,0.6,1.4,1,2,1.7c-0.1-0.8-1.3-1.2-1-2.2
		c0.4-0.9,1.5-1.3,2-2.1c-1.3-0.4-1.3,1.5-2.5,1.2C267.8,328.4,268.2,327.2,267.7,326.4z"/>
	<path class="st9" d="M307.6,335.2c-1.5,1.7,0.5,3.9-0.7,5.6c-1.4,0.4-1.9-1.7-3.7-0.9c1.6,2.8,0.4,5.3-0.7,7.8
		c-3.2-0.3-0.8-5.9-5-5.3c0.5-2.9-0.9-5.5-1-8.3c-0.3-0.8-0.1-2.7-1.8-1c-1.2,1.3-1.6,3.3-3.4,4c-4.1-8.3,1-13.4,6.2-18.5
		c2.9-1.1,3.2,1,3.6,3c-2.4,3.5,0.4,7.2-0.5,10.2c0.3-1.4-0.5-3.5,0.6-5.3c0.4-0.4,0.8-0.6,1.4-0.5c1.5,0.8,2.3,2.1,2.9,3.6
		C306.4,331.4,306.7,333.4,307.6,335.2z"/>
	<path class="st13" d="M278.7,294.4c0-0.3,0-0.7,0-1c0-1.2,0.5-2.4,0.4-3.6c0.2-1.9,0.5-3.7,0.8-5.5c0.2-0.5,0.4-0.9,0.7-1.2
		c1.1-0.6,1.5-2.7,3.5-1.8c2.3,2.5,4,2.6,5-1.1c0.6-2.1,1.6-3.7,3.8-1.1c-1.6,2-4.1,3.7-0.4,6.5c1.5,1.1,0.3,3.7-0.8,6.2
		c2.1-1,3.4-1.6,5-2.4c0.7,2.5-1.9,4-1.5,6.3c0.2,0.5,0.2,1-0.1,1.4c-1.9,1.6-3.9,2.6-6.4,2.5c-0.4,0.5-0.9,0.9-1.3,1.4
		c-0.7,0.7-1.4,0.6-2.2,0.2c-0.6-2,1.5-2.6,2.1-3.9c2.2-2.3,0.4-5.3,1.4-7.5c-0.3,2.3-0.7,5.1-1.8,7.6c-1.2,1.4-2.3,2.9-3.8,4
		c-0.5,0.1-1,0.2-1.6,0C279.5,299.5,279.5,296.8,278.7,294.4z"/>
	<path class="st14" d="M371,131.1c0.5,0.2,1.9,0.3,1.4,0.9c-1,1.1-3.1,0.8-3.9,3.1c2.8,0.6,5.5,1.1,8.1,1.7c0.5,0.1,1.7-0.4,1.2,0.8
		c-0.2,0.5-1.2,0.6-1.9,0.9c-5.8,0.2-11.5-3.3-18.1-0.5c4.5,3.9,9.7,3.1,14.2,4.5c3.9,1.2,9-0.6,11.6,4.3c-10.3,0.9-20-1.3-28.9-6.6
		c-1.9-1.2-3.8-2.4-3.6-5c1.6-1.8,4.1-1.1,6-2c2.4-0.1,4.7-0.6,7.1-0.9c1.5-0.5,3-0.9,4.5-1.4C369.5,130.6,370.3,130.5,371,131.1z"
		/>
	<path class="st15" d="M321.8,314c2.7,0.5,5.8-0.4,9.3,2.2c-4.8-1-5.5,4.3-9.3,3.8c-2.4,1.6-4.9,0.5-6.9,0.8
		c1.9,0.3,4.4-0.1,6.9,0.2c3.7,0.3,5.4,3.2,7.7,6.5c-2.2,0-4.4,0-6.5,0c-0.2-0.1-0.4-0.2-0.7-0.3c-1.5-3.4-3.8-1.6-5.9-0.9
		c-0.4,0.3-0.8,0.6-1.1,0.9c-0.8,0.6-1.7,1-2.8,1.1c-2.4-0.2-4.4-1.2-6.2-2.6c-1-1.7-2.1-3.3-3.4-4.8c-0.2-2.2,1.6-3,2.7-4.4
		c0.9-1,1.9-1.8,3.3-1.9C313.1,314.8,317.5,316.1,321.8,314z"/>
	<path class="st16" d="M207.7,317c-1.9,2.6-4.5,5.1-3.2,8.9c-5.8-1.6-6.6,5-10.5,6.4c-2.8,1-4.5-1.7-6.1-3.4
		c-1.6-1.7,0.8-2.5,1.7-3.2c4.2-3.8,8.6-7.4,12.9-11.1c1-0.9,2-2,3.3-0.9C206.6,314.4,207,315.8,207.7,317z"/>
	<path class="st17" d="M258.8,299.9c1.5,2,5.3,2.2,4.5,5.9c0,1.5-5-0.7-2.1,3.1c0.6,0.9-2,1.6-3.1,1.4c-2.6-0.3-5.2-1-7.9-1.5
		c-0.6,0.5-0.9,1.3-1.8,1.4c-1.5-0.3-2.3-1.2-2.3-2.8c0.2-0.9,0.8-1.3,1.5-1.7c2.4-1.4,5.1-1.2,7.7-1.9c-2.7,0.6-5.6,0.5-8.1,1.9
		c-1.2,0.6-2.2,1.5-3.5,1.5c-0.5,0-1-0.2-1.5-0.4c-0.3-0.4-0.5-0.9-0.6-1.4c0.5-2.6,2.2-4,4.4-4.9c2.6-0.3,3.8-4.1,7-2.8
		c0.7,1,1.5,1.3,2.4,0.1c1.3-1.1,3.1-1.7,4.3-0.8C261.2,298,258.7,298.7,258.8,299.9z"/>
	<path class="st18" d="M275.4,214c-2.7,5.5-6.3,10.4-9.9,15.3c-1.7,1.3-2,4.8-5.4,3.4c0.4-3.6,3.8-5,5.5-7.6
		c10.7-16.2,21.8-32.2,30.8-49.5c0.4-0.8,0.8-1.1,2-1c-0.3,2.9-0.7,5.6-3.2,7.5c-1,1.4-1.1,3.1-2.2,4.4c-2.1,3.6-4.3,7.2-6.4,10.8
		c-1.3,1.6-2.2,3.6-3.5,5.2c0.7,2.2-2.1,2.3-2.3,3.9c-0.9,1.3-1.9,2.5-2.6,3.9C277.2,211.4,276.4,212.8,275.4,214z"/>
	<path class="st19" d="M282.5,350.4c-1.2,0.8-1.7,2.9-4,1.3c-2.1-1.5-4.7-2.4-7.4-3.7c-1,2.6,1.2,4,1,5.9l0,0
		c-0.7-0.4-1.5-0.8-2.2-1.1c-2.5-0.5-2.8-0.3-2.5,3.6c0.3,3.4-0.1,5.5-4.3,4.2c-0.4,0-0.7-0.1-1-0.3c-0.1-0.2-0.2-0.4-0.3-0.6
		c0-0.2,0.1-0.5,0.1-0.7c1.1-1.6-0.1-2.9-0.4-4.4c0.7-4,5.1-6.2,4.8-10.7c0-0.2,0-0.5,0.1-0.5c1.9-0.6,16.4,3.4,17.3,4.8
		C284.9,349.8,282.5,349.4,282.5,350.4z"/>
	<path class="st8" d="M322.8,327.5c0.2,0.3,0.4,0.8,0.6,0.8c6.5,0.9,10.5,4.6,12.1,10.7c-6.8,2.7-12,0.4-16-5.3
		c0-1.6,1.1-1.3,2.1-1.2c1.2,0.4,2.2,1,3.7,1.7c-1.4-0.9-2.6-1.4-3.8-1.9c-0.5-0.1-1-0.2-1.5-0.4c-1.9-1.7-6.3-1.2-5-5.7l0,0
		c2.7-1.1,5.2-0.4,7.6,1L322.8,327.5z"/>
	<path class="st20" d="M230.2,307.6c0.7-0.7,1.4-1.5,2.1-2.2c2.8-1.4,4.3,0.5,5.9,2.1c0.3,0.9,0.2,1.7-0.3,2.5
		c-0.8,2.7-3.2,3.9-5.2,5.4c-1.6,1.2-1.5,0.9-4.3-0.4c-1-0.5-2.5,0.3-3.7,0.2c-2.2,0-4.7,1.5-6.8-0.8
		C220.7,309.9,225.2,308.3,230.2,307.6z"/>
	<path class="st21" d="M349.4,209.6c-4.7,2-10.6-0.1-14.5,4.3c-2.9,1.8-5.3,0-7.7-1.1c-0.4,0-0.7,0-1,0c-0.8-0.5-1.8-1-1.1-2.2l0,0
		c2.3-1.5,4.2-3.5,5.9-5.6c0.5-0.6,1.1-1,2-1c1.8,2.5,3.7,0.8,5.8,0.5c3.6-0.5,6.7-4.2,10.7-1.7c-5.6,2.7-12.2,3.1-18.2,7.5
		c6.4,0.4,11.4-2.5,16.7-2.1C349.2,207.7,349.5,208.4,349.4,209.6L349.4,209.6z"/>
	<path class="st22" d="M320.6,331.9c0.3,0,0.7,0,1,0c0.3,0.2,0.4,0.5,0.3,0.7c-0.1,0.2-0.2,0.4-0.3,0.4c-0.7,0.3-1.4,0.5-2.1,0.8
		c-0.3,0.2-0.8,0.4-0.8,0.6c-0.2,2,2.1,5.6,0.2,5.7c-2.3,0.2-5.1-2.2-7.3-4c-2.1-1.7-2.1-5-4.4-6.8c-1.3-0.3-2.4-1-2.7-2.4
		c0-0.5,0-1,0.3-1.5c0.4-0.4,0.9-0.5,1.4-0.2c2.2,0.8,4.4,1.6,6.6,2.4C315,329.6,318.3,330,320.6,331.9z"/>
	<path class="st23" d="M308.4,315.3c-1,0.4-1.8,1.2-2.2,2.2c-2.2,0-5.1,4.6-6.6-1c3.3-2.1,6.9-3.6,9-7.4c2.1-3.8,5.4,0.2,8.1-0.7
		c0,4.3,3.2,1.9,5,2.4c3,0.9,0.1,1.5-0.1,2.2c-3.2,3.8-7.5,3.1-10.6,1C308.3,312.3,309.7,316.1,308.4,315.3z"/>
	<path class="st24" d="M242.3,306.5c0.4,0,0.7,0,1.1,0c0.7,0.6,1.9,0.2,2.5,1c0.6,1.2,0.9,2.9,3,2.2c0.4-0.3,0.9-0.7,1.3-1
		c1.3,2.3,4.3,2.5,6.2,4.8c-2,1.9-5.2,1.4-6.9,3.9c-0.7,1-2.5-0.1-3.4-1.6c-1.5-2.4-3.2-4.7-4.9-7.1c-0.7-0.5-1.5-1.1-1-2
		C240.6,305.9,241.5,305.8,242.3,306.5z"/>
	<path class="st25" d="M303.7,142.2c0,0.4,0.1,0.9,0.1,1.3c-0.7,2.7,0.1,5.6-1,8.2c-0.9,4.8-1,9.6-1.2,14.4
		c-0.1,3.1-1.9,5.2-5.3,2.3c-1.1-1.8-0.7-3.5,0-5.3c4,0,2.9-3.4,3.4-5.5c1.3-5.4,2.2-10.9,3.2-16.3
		C303.4,141.4,303.6,141.7,303.7,142.2z"/>
	<path class="st26" d="M303.7,142.2c-0.2-0.3-0.5-0.6-0.7-0.9c0.6-15.4,3.6-30.7,3.3-46.1c0-2,0.4-4.1-1.3-5.6
		c0.4-0.1,0.8-0.1,1.2-0.2c0.5-0.4,1-0.5,1.5-0.1c0.2,0.5,0.4,1.1,0.6,1.6c0.5,2.8,0.2,5.7,0.3,8.6c-0.1,2.9-1.2,5.7-0.2,8.6
		c0.2,2,0.4,4-0.8,5.8c-1-0.7-0.5-1.8-0.8-2.8c0,2.9,0,5.7,0,8.5c0,2.4-0.1,4.9-0.3,7.3c-1.6,1.5-0.1,3.8-1.3,5.5
		c-0.1,0.8-0.1,1.5-0.2,2.3c-1,2.1,0.3,4.5-0.9,6.6C304,141.6,303.9,141.9,303.7,142.2z"/>
	<path class="st27" d="M215.9,231.4c-0.4,0.8-0.8,1.6-1.2,2.4c-1.7,0.8-2.9,2.6-5,2.7c-1.6,0-3.3,1-4.8-0.4c-1-4.8,4.3-3.3,5.7-5.8
		c4.6-4.4,0.6-7.4-1.7-10.7c0.5-0.1,1-0.2,1.5-0.2c5.6,0.8,5.6,5.8,7.3,9.5C217.5,230.1,217.1,231,215.9,231.4z"/>
	<path class="st28" d="M241,258c2.6-3.6,5.3-7.3,7.9-10.9c1.1-0.5,2-2.1,3.6-0.9c0.3,1.1,0.4,2.2-0.3,3.2c-1.7,3.2-3.8,6.1-6.5,8.4
		c1.4,3.1-2,3.2-3,4.8C238.6,262.2,241.8,259.4,241,258z"/>
	<path class="st17" d="M274.3,277.8c-0.8-2.2-1.5-4.4-2.3-6.6c1.2-1.1,0.6-3.9,3.4-3.4c3.8,3,7,6.2,4.4,11.6c-0.4,0.9,0,2.1,1,2.8
		c0.3,0.2,0.5,0.5,0.4,0.8s-0.2,0.4-0.3,0.4l0,0c-0.5,0.6-1.1,0.7-1.8,0.5c-0.2-0.1-0.3-0.3-0.5-0.4c-0.4-1.5-0.7-3-1-4.5
		C276.7,277.9,275.3,278.3,274.3,277.8z"/>
	<path class="st29" d="M241,258c2.4,1-1,3.5,1.2,4.5c0.6,2.1-1.8,2.9-2.2,4.5c-0.7,1.1-1.4,2.1-2.1,3.2c-3.7,4.2-3.7,4.2-5.7,1
		c0.4-1.1,0.8-2.2,1.1-3.3c0.1-1.5,0.6-2.8,2.2-3.3C237.4,262.4,239.2,260.2,241,258z"/>
	<path class="st30" d="M263.1,360.6c2.6-0.4,3.9-1.7,3.5-4.6c-0.3-2.3-0.4-4.7,1.4-6.7c1.5,0.7,1.7,2.1,1.9,3.5c0,0.4,0,0.9-0.1,1.3
		c-1.4-0.1-2,0.6-1.6,2c1.1,4.5-0.5,8.4-2.9,12c-2.4,0.4-0.9-3.4-3.3-3.1C262.4,363.5,262.7,362,263.1,360.6z"/>
	<path class="st31" d="M308.6,230.4c1,0.2,2.2,0,3.4,1.8c-6.6,0-12.6,0-18.6,0c4-2.6,8.4-1.6,12.7-1.8
		C307,229.8,307.8,229.8,308.6,230.4z"/>
	<path class="st32" d="M275.4,153.3c-1.9-2.5-4.6-2.1-7.2-2.2c-2-0.1-4.3,0.8-6.1-1c4.7-1,9.8,0.3,14.2-2.3c2-0.4,2.1-3.3,4.4-3.3
		c0.7,0.5,0.8,1.2,0.6,2c-0.6,1.4-2.1,2.1-2.8,3.5l0,0C277.9,151.3,276.7,152.4,275.4,153.3z"/>
	<path class="st33" d="M244.6,324.1c-1.2,0.1-2.6-0.2-3.4,1.1c-1.4-0.7-2.9-1.4-4.3-2.1c-1.2-1.5-3.9,0.2-4.6-2.2
		c5.7-0.4,11.3-1.6,17.5-1.1c-1.8,1.8-3.8,1-5.4,1.7C241.7,322.6,245.2,323.2,244.6,324.1z"/>
	<path class="st34" d="M308.4,315.3c0.3-2,1-3.8,2.8-5.1c0.7,4.5,3.4,5.3,10.5,2.9c0.1,0.3,0.1,0.6,0.1,0.9c0.1,1,0.8,2.5-1,2.4
		C316.7,316.2,312.4,317.4,308.4,315.3z"/>
	<path class="st35" d="M343.8,244.8c0.7,2.9,1.4,5.9,2.2,8.8c-2.6-6.8-6.7-12-13.2-15.1c0.7-0.1,1.5-0.2,2.2-0.2
		c2.6,3.3,6.3,3.3,9.9,3.2c0.3,0.2,0.5,0.5,0.4,0.8c-0.1,0.3-0.2,0.4-0.3,0.4c0,0.3,0,0.7,0,1C344.8,244.3,344.1,244.4,343.8,244.8z
		"/>
	<path class="st36" d="M279.6,167.6c-1.5-5.1,1.6-9.7,1.7-14.7c0-1.4,0.3-2.8-0.4-4.1c-0.5-1.3,0.6-2.1,1-3.1c2,0.6,2,0.7,1.4,4.4
		C283,156.2,282.2,162.1,279.6,167.6z"/>
	<path class="st37" d="M273.1,308.4c2.1,0.9,2.1,0.9,2.5,4.8c2.5,0.3,2.4-2.8,4.3-3.3c3.1,6.1-3.4,5-5.5,6.8
		c-1.4,1.2-4.5,0.6-6.8,0.8c-0.3-0.2-0.4-0.4-0.3-0.5s0.2-0.3,0.3-0.3C275.4,315,275.6,314.7,273.1,308.4z"/>
	<path class="st38" d="M232.3,271.2c2.6,3.4,3.8-0.9,5.7-1c-0.2,0.8-0.4,1.5-0.6,2.2c-2.2,1.8-3.9,3.9-5.2,6.4
		c-1.2,0.8-1.6-0.5-2.3-0.9c-1.5-0.1-1.8-0.7-0.9-1.9C230.1,274.4,231.2,272.8,232.3,271.2z"/>
	<path class="st39" d="M277.6,100.3c-1.8,3.2-1.7-0.4-2-0.7c-2.1-2.6-3.4-6.4-8-3.6c0-2,0-4,0-6.7
		C271.6,92.9,276.1,95.2,277.6,100.3z"/>
	<path class="st40" d="M235.7,264.7c-0.8,1.1-1.5,2.2-2.2,3.3c-1.7-3.8-2.9-7.9-3.6-12c0.5-0.5,1-0.6,1.5-0.2
		C232.8,258.7,234.2,261.7,235.7,264.7z"/>
	<path class="st41" d="M266.3,343.9c2,1.4,1,2.7,0.1,4.1c-1.5,2.3-2.9,4.6-4.3,7c-1,1.5,1.2,2.9,0,4.4l0,0c-4.5,0.3-2.4-2.6-2.2-4.5
		C262,351.2,264.2,347.6,266.3,343.9z"/>
	<path class="st42" d="M410.4,251.6c-1.8-3.1-4.3-2.4-7.2-1.9c-2.9,0.4-6.7,3-8.6-1.8c4.6,1.2,9.1-0.8,13.6-0.1
		C410.4,248.1,414,247.8,410.4,251.6z"/>
	<path class="st43" d="M253.2,242.6c0.8-4,2.9-7,6.5-8.9c1.3-0.5,1.5,0.1,1.3,1.3c-0.1,0.4-0.2,0.7-0.3,1.1c-0.9,1.9-2.6,3.3-3,5.5
		v0C256.3,242.1,255.2,244.1,253.2,242.6z"/>
	<path class="st44" d="M183.6,262.4c2.5,1.5,3.4-0.9,4.9-1.9c1.8-1.1,2.1-4.4,5.2-3.5c-3.2,4-6.4,8-12.6,10.7
		C182.4,265.1,183,263.7,183.6,262.4z"/>
	<path class="st45" d="M282.1,301c0.3,0,0.6,0,0.9,0c0.8-0.6,1.5-0.7,2.3,0c0.7,0,1.4,0,2.1,0c-0.1,3.5-3.6,5.9-2.5,10.4
		c-3.5-2.5-0.1-6-2.7-7.7C281.3,302.7,281.2,301.9,282.1,301z"/>
	<path class="st46" d="M236.6,303.2c-0.4-3.6-0.7-7.2-1.1-10.8c0-0.4,0.1-0.9,0.1-1.3c2.4,3.3,3.6,7,3.7,11.1
		c0.2,1.1,0.2,2.1-1.1,2.4C237.2,304.8,236.6,304.3,236.6,303.2z"/>
	<path class="st47" d="M321.7,321c-4.3,1.9-8.2,1.3-11.8-2c3.9,0.3,7.9,0.7,11.8,1C321.7,320.3,321.7,320.6,321.7,321z"/>
	<path class="st48" d="M284.1,134.5c1.1-1.1,2.1-2.2,3.2-3.3c-1,4.1-1.9,8.2-2.9,12.3c-1.9,0.4-2.6-0.6-2.8-2.3
		C283,139.2,281.5,136.1,284.1,134.5z"/>
	<path class="st49" d="M177.1,217.3c-4.1,2.6-9-0.5-13.1,2.1c-0.3-0.7-1.5-1.8,0-2C168.4,216.7,172.8,214.8,177.1,217.3z"/>
	<path class="st50" d="M296.4,163.1c1.2,1.8,0.4,3.5,0,5.3c-0.4,0-0.7,0-1.1,0c-1.4-1.9,0.2-4.3-1-6.3c-1.2-1.9-1.5-4-0.7-6.5
		C296.4,157.5,296.1,160.4,296.4,163.1z"/>
	<path class="st51" d="M402.3,139.1c4.4-2.1,8.8-1.9,13.2-0.1C411.1,141,406.7,139.9,402.3,139.1z"/>
	<path class="st52" d="M288.7,299.6c2-1.4,4-2.6,6.5-3c1.3,1.1,1.4,2.6,1,4.1c-0.4,1-0.9,2-2.1,2.2c-1.3,0.7-2-1.6-3.3-0.6
		C289.8,301.5,290.1,299.9,288.7,299.6z"/>
	<path class="st53" d="M198.2,178.5c-2.7-0.1-1.1-2.1-1.1-3c-0.2-5.1-0.1-10.3-0.1-16.4c1.7,2.8,0.8,4.8,1.2,6.7
		C198.2,169.9,198.2,174.2,198.2,178.5z"/>
	<path class="st54" d="M321.7,235.9c-3-0.9-5.9-1.9-10.3-3.3c5.6-2,8.6,0.5,11.8,2C323,235.4,322.2,235.5,321.7,235.9z"/>
	<path class="st55" d="M340.6,24c-5.5-0.8-2.4,4.1-4,5.9c-1.1-1-0.4-2.3-0.7-3.5c-0.6-3.3,1.4-5.3,4.3-7.9
		C340.4,20.8,340.5,22.4,340.6,24z"/>
	<path class="st56" d="M282,141.2c0.3,1.2,1,2.1,2.3,2.4c0.5,2.3-0.2,4.5-1.1,6.6c-1.2-0.9,1.2-3.2-1.4-3.5c-0.4,0.5-0.7,0.4-1.1,0
		c0-0.7,0-1.4,0-2.2c-0.7-0.7-1.5-1.4-2.2-2.1c0.2-0.5,0.6-0.8,1.1-1c0.4-0.1,0.7-0.1,1.1-0.2C281.2,140.7,281.6,140.8,282,141.2z"
		/>
	<path class="st57" d="M259,335.2c-1.2-2.6-3.7-4.5-3.9-7.5c1.7-0.3,2.7,0.5,3.4,1.9c1.4,0.5,2.3,1.3,2.6,2.8
		C260.7,333.5,260.2,334.6,259,335.2z"/>
	<path class="st58" d="M321.7,235.9c0.5-0.4,1-0.8,1.5-1.2c3,0.7,5.9,1.8,8.5,3.5c-0.4,0.3-0.7,0.7-1.1,1
		C327.4,238.7,324.5,237.3,321.7,235.9z"/>
	<path class="st59" d="M311-12.2c-2.8-3.2-1.8-6.5-0.4-9.8C312.3-18.8,311.7-15.5,311-12.2z"/>
	<path class="st60" d="M223.4,256.9c-2-3.2-0.6-6.7-0.9-10.1C226.2,249.9,224.6,253.4,223.4,256.9z"/>
	<path class="st3" d="M214.7,109.2c2.9,2.4,6.7,2.8,9.9,4.4c-4.4,2.4-7.4-2.1-11.2-2.3C213.8,110.6,214.3,109.9,214.7,109.2z"/>
	<path class="st61" d="M281.9,233.7c3.1-1.6,6.3-2.6,11.1-1.9c-3.1,2.5-5.5,2.4-7.8,2.9C284.3,233.8,282.8,234.9,281.9,233.7z"/>
	<path class="st53" d="M158.4,189.8c0.1,0.7,2.9,1.9-0.2,1.9c-2.2,0-4.4-1.5-6.6,0.2c-0.9-0.5-1.8-1.1-2-2.9
		C152.6,189.3,155.5,189.6,158.4,189.8z"/>
	<path class="st62" d="M299.6,316.6c1.7,3.6,4.4,0.3,6.6,1c-1.1,1.1-2.2,2.1-3.3,3.2c0,0.4-0.2,0.8-0.5,1.2
		c-0.2,0.1-0.4,0.2-0.5,0.4c-0.5,0.1-0.8,0-1.2-0.3c-0.8-1.3-1.1-3.2-3.1-3.3C297.5,317.2,298.3,316.7,299.6,316.6z"/>
	<path class="st63" d="M252.2,100.4c1.4,2.7,5.6,4.1,4,8.5c-2.4-1.3-2.2-4.9-5.1-5.4C251.5,102.4,251.8,101.4,252.2,100.4z"/>
	<path class="st64" d="M282.1,301c0,0.9,0,1.8,0,2.6c-0.4,0.6-0.8,1.3-1.2,1.9c-0.4-0.4-0.8-0.8-1.1-1.2c-0.7-0.7-0.7-1.5,0-2.2
		c0.6-2.7-2.3-4.9-1.1-7.7C280.6,296.1,280,299.3,282.1,301z"/>
	<path class="st65" d="M215.9,231.4c0.4-0.7,0.7-1.4,1.1-2c0.6-1.5,1.7-2.1,3.3-1.4c0.5,0.5,0.5,0.9,0,1.4c-0.2,1.6,0.7,2.2,2.1,2.2
		c-0.3,0.7-0.7,1.4-1,2.2C219.9,232.2,217.8,231.9,215.9,231.4z"/>
	<path class="st66" d="M255.3,255.7c1.9,0.7,3.8,1.5,5.6,2.2c-2,1.2-4.2,1.6-6.2,0.5C252.4,257.2,253.9,256.4,255.3,255.7z"/>
	<path class="st67" d="M293.1,302.1c0.9,0,1.7-0.3,2.1-1.2c1-0.2,1.5-0.1,1.1,1.1c-1.2,1.5-2.3,3.1-3.5,4.6
		c-0.6,0.7-1.2,1.1-2.2,0.2c-1.4-1.2,0-1.8,0.3-2.7C291.4,303.3,292.1,302.5,293.1,302.1z"/>
	<path class="st68" d="M443,104.8c-3-1.9-6.4-0.6-9.6-2.2c3.5,0,7.1,0,10.6,0C444.4,103.6,443.7,104.2,443,104.8z"/>
	<path class="st69" d="M240.1,267c-0.3-2,1.5-3,2.2-4.5c0.6-2,3.6-2.2,3.4-4.7c1.6,1.3,1.8,2.6-0.2,3.6
		C242.9,262.5,242.8,266,240.1,267z"/>
	<path class="st70" d="M275.6,26.1c-3.3-1.8-4.6-4.8-4.8-8.4C273.2,20.1,274.6,22.9,275.6,26.1z"/>
	<path class="st71" d="M296.3,302.1c-0.4-0.4-0.7-0.7-1.1-1.1c0-1.5,0-3,0-4.4c0.1-0.3,0.1-0.6,0.1-0.9c2.8-0.8,2.2,2.2,3.4,3.1
		c0.5,1.2-0.3,1.6-1.2,2C297.1,301.2,296.7,301.6,296.3,302.1z"/>
	<path class="st72" d="M319.4,178.6c-0.7-1.1-1.5-2.2-2.2-3.3c0.7-1.2,1.5-2.4,3-2.9C320.8,174.6,320.3,176.6,319.4,178.6z"/>
	<path class="st73" d="M353.8,214c-1.4-0.3-2.8-0.3-3.5-1.8c0.5-0.2,1-0.4,1.5-0.5c1.8,0.5,3.7,0.9,5.7,1.4
		C356.4,215.1,355,214,353.8,214z"/>
	<path class="st74" d="M296.5,334.1c0.9,2.7,2.9,5.2,1,8.3C294.2,340,296.6,336.9,296.5,334.1z"/>
	<path class="st75" d="M330.6,277c-1-0.2-2.2,1.4-2.8-0.2c-0.4-1,1.1-1.1,1.9-1.4c1-0.3,2.1-0.5,3.1-0.8c0.8,0.7,1.5,1.3,2.3,2
		C333.7,278.1,332.1,277.3,330.6,277z"/>
	<path class="st76" d="M304.9,243.7c-2.1-0.1-1.1-1.4-0.9-2.4c0.3-1.5-0.3-3.1,1.1-4.6C307.5,239.2,304.2,241.5,304.9,243.7z"/>
	<path class="st77" d="M307.4,99.3c0-3.3,0-6.6,0-9.9c0.3-0.4,0.6-0.5,1-0.1c0.3,0.4,0.6,0.7,0.9,1.1c0,0.7,0,1.5,0.1,2.2
		c-0.9,2.1,0,4.4-0.6,6.5C308.4,99.6,307.9,99.7,307.4,99.3z"/>
	<path class="st78" d="M308.6,230.4c-0.8,0-1.7,0-2.5,0c1.2-2.2,2.3-4.4,3.5-6.6c0.8-0.6,1.5-0.5,2.2,0.1
		C310.4,225.9,309.2,228,308.6,230.4z"/>
	<path class="st79" d="M306.3,120.2c0-3.3,0-6.6,0-10.1c1.6,1.1,0.7,2.6,1.2,3.7c-0.1,2.1-0.2,4.2-0.3,6.3
		C306.9,120.7,306.6,120.7,306.3,120.2z"/>
	<path class="st80" d="M232.3,320.9c1.6,0.9,3.5,0.6,5.1,1.1c1.4,0.5-0.2,0.7-0.5,1c-1.8,0-3.5,0.1-5.3,0c-0.7,0-1.6-0.2-1-1.1
		C230.9,321.5,231.7,321.3,232.3,320.9z"/>
	<path class="st81" d="M343.9,136.9c-2-0.2-3.8,0-4.7,2.2c-0.9-1-1.9-1.8-1.3-3.4c2.3,0,4.7,0,7,0
		C345.1,136.6,344.8,137,343.9,136.9z"/>
	<path class="st82" d="M282,101.5c1.8,2,1,4.3,0.7,6.6c0,0.1-0.3,0.1-0.5,0.1c-0.2-0.1-0.3-0.2-0.4-0.3
		C281.4,105.7,280.5,103.6,282,101.5z"/>
	<path class="st83" d="M387.6,89.3c-1-0.7-2-1.3-3-2c1.6-1.1,3.2-2.2,5.3-2.3C390.1,87.3,387.4,87.4,387.6,89.3z"/>
	<path class="st84" d="M229.9,277.9c0.8,0.3,1.5,0.6,2.3,0.9c0.4,0.4,0.8,0.8,1.1,1.3c-0.6,0.8-1.4,1.4-2.2,2.1c0,0.4,0,0.8-0.1,1.2
		C226.6,282.5,230.8,279.7,229.9,277.9z"/>
	<path class="st85" d="M169.5,207.2c3.2-1.8,6.6-0.9,9.9-0.1c-2.3,0.1-4.6,0.3-7,0.4C171.4,207.4,170.4,207.3,169.5,207.2z"/>
	<path class="st86" d="M351.6,69.5c-1.2-3.9,1.5-4.7,4.3-5.4C354.5,65.8,353,67.7,351.6,69.5z"/>
	<path class="st87" d="M233.3,342.6c0.4,1.1,0.8,2.2,1.2,3.4c-1.6-0.9-3.3-0.6-5.5,0.6C230.2,344.1,231.6,343.1,233.3,342.6z"/>
	<path class="st88" d="M261,234.9c-0.4-0.4-0.9-0.8-1.3-1.3c0-0.4,0.1-0.7,0.3-1c2.5,0,3.4-2.6,5.4-3.4
		C264.9,231.8,264,234.2,261,234.9z"/>
	<path class="st89" d="M308.3,99.3c0.5-2.2-0.7-4.6,1.1-6.6c0.1,3.4,0.5,6.9-0.8,10.1C307.6,101.7,307.8,100.5,308.3,99.3z"/>
	<path class="st90" d="M302.8,151.7c0-2.8-0.3-5.6,1-8.2C304.3,146.3,305.3,149.2,302.8,151.7z"/>
	<path class="st91" d="M351.3,88.2c-0.4,2.9-1.3,3.9-4.3,4.4C348,90.7,349.6,89.3,351.3,88.2z"/>
	<path class="st92" d="M282,27.5c-1,0.7-2,1.5-3.4,1.2c0.1-1.3-0.4-2.8,0.5-4.1C280.8,24.9,281.3,26.3,282,27.5z"/>
	<path class="st66" d="M330.6,277c1.5-0.1,3-0.2,4.5-0.4c0.9,2.2-1,2.6-2.1,3.5C332.1,279.1,331.4,278,330.6,277z"/>
	<path class="st93" d="M242.3,306.5c-1.9,0-1.7,1-1.2,2.2c-1.5-0.6-2.3,0.5-3.2,1.3c0-0.8,0-1.6-0.1-2.4c-0.6-1.9,0.8-2.4,2.1-3
		c0.9-0.1,1.6,0.1,2.3,0.8C242.2,305.8,242.3,306.1,242.3,306.5z"/>
	<path class="st94" d="M224.4,291c-1.2-0.8-2.6-1.2-4.1-1c0.5-2,1.9-2.7,3.6-2C225.7,288.6,225.2,289.9,224.4,291z"/>
	<path class="st95" d="M259.9,354.9c0.3,1.7-0.8,4.1,2.2,4.5c0,0.3,0,0.6,0,0.9c-1,0.4-2,0.7-3,1
		C258.4,359.1,258.1,356.9,259.9,354.9z"/>
	<path class="st96" d="M388,236.9c-1.8,0.1-4,1-4.6-1.9c1.5-0.9,3.1-1,4.5,0.1C388,235.7,388,236.2,388,236.9z"/>
	<path class="st97" d="M281.9,233.7c1.2,0.1,2.5-0.2,3.3,1c-1.1,0.4-2.3,0.9-3.4,1.2c-0.8,0.2-1.9,0.4-1.9-1
		C280,233.7,281,233.8,281.9,233.7z"/>
	<path class="st98" d="M254.4,82.6c-0.4,1-1.2,1.2-2.2,1.2c-0.7-0.9-2-2.1-0.6-3C252.6,80.2,253.8,81.5,254.4,82.6z"/>
	<path class="st99" d="M308.3,99.3c0.1,1.2,0.2,2.4,0.2,3.5c-0.1,1.7-0.2,3.5-0.3,5.2c-1.8-2.7-0.5-5.8-0.9-8.7
		C307.7,99.3,308,99.3,308.3,99.3z"/>
	<path class="st100" d="M325.9,265.7c-0.4,1.2-0.6,2.7-2.4,3.3c-0.9-2.1,0.9-3.6,0.8-5.4C324.9,264.3,325.4,265,325.9,265.7z"/>
	<path class="st101" d="M253.2,242.6c1.5-0.4,3-0.7,4.5-1.1c-0.8,1.7-1.7,3.4-3.3,4.6c-0.9-0.5-1.3-1.3-1.6-2.2
		C252.8,243.3,252.9,242.9,253.2,242.6L253.2,242.6z"/>
	<path class="st102" d="M253.3,242.5c0,0.4,0,0.8,0,1.1c0.6,1.2-0.1,1.8-1.1,2.2c-1.1,0.4-2.1,0.8-3.2,1.2
		C250.1,245.2,250.6,242.9,253.3,242.5z"/>
	<path class="st103" d="M306.3,120.2c0.3,0,0.6,0,0.9,0c0.1,2.7,0.6,5.4-0.8,8c-0.3-0.1-0.5-0.3-0.5-0.5c0-0.2,0.1-0.4,0.2-0.4
		C306.1,124.9,306.2,122.6,306.3,120.2z"/>
	<path class="st104" d="M262,365c3.9-1.9,1.4,2.9,3.3,3.1C262.1,369.2,263.2,365.9,262,365z"/>
	<path class="st105" d="M200.2,154.4c-1.1-0.5-1.8-1.3-2.2-2.4c0.2-1.2,1-3,1.9-2.4C201.4,150.6,200.6,152.7,200.2,154.4z"/>
	<path class="st106" d="M305.1,326.4c0.7,1,1.4,1.9,2.1,2.9c-0.3,0.2-0.6,0.4-0.9,0.4c-0.4,0.5-0.8,0.5-1.2,0
		c-1.4-0.6-2.2-1.8-2.2-3.4C303.6,325.8,304.4,325.7,305.1,326.4z"/>
	<path class="st53" d="M267.6,14.3c-0.6,0.9-0.9,2.6-2.4,0.8c-0.3-1-1.2-2.3,0.2-2.7C266.6,12,267.1,13.4,267.6,14.3z"/>
	<path class="st92" d="M309.5,255.8c0.3-0.4,0.6-0.7,0.9-1.1c1.2,1.4,2.4,2.8,3.6,4.3C311.1,259.9,310.9,257.1,309.5,255.8z"/>
	<path class="st107" d="M275.4,214c-0.3-2,1.6-2.9,2.3-4.3c0.8-0.4,1.2-0.2,0.8,0.8C277.9,212,277.4,213.7,275.4,214z"/>
	<path class="st108" d="M280.8,322.9c-0.8-1.3-3.3-0.5-3.3-2.8c1.2,0.2,2.4,0.5,3.6,0.7c0.6,0.1,1.6-0.1,1.3,1
		C282.3,322.3,281.4,322.5,280.8,322.9z"/>
	<path class="st19" d="M270,355c1.4,2.6,1.5,5.1,0,7.7C270,360.1,270,357.6,270,355z"/>
	<path class="st109" d="M252.2,245.8c0.4-0.7,0.8-1.4,1.1-2.2c1,0.5,1.1,1.4,1.2,2.4c-0.8,1.1-1.5,2.1-2.2,3.2
		C252.2,248.1,252.2,247,252.2,245.8z"/>
	<path class="st110" d="M305.1,329.7c0.4,0,0.8,0,1.2,0c0.8,1.8,2,3.4,1.3,5.5C305.7,333.9,305.7,331.7,305.1,329.7z"/>
	<path class="st111" d="M267.6,316.7c0,0.3,0,0.5,0,0.8c-1.8,1.8-3.9,1.3-7.3,0.7C263.6,317.6,265.6,317.2,267.6,316.7z"/>
	<path class="st112" d="M311.9,223.9c-0.7,0-1.5-0.1-2.2-0.1c0-0.7,0-1.5,0-2.2c0.3,0,0.7,0,1,0c0.7,0.1,1.5-0.7,2.2,0
		c0.4,0.4,0.8,0.9,1.2,1.3C313.6,223.9,312.7,223.8,311.9,223.9z"/>
	<path class="st113" d="M257.7,241.5c-0.3-2.6,1-4.2,3-5.5C260.9,238.5,259,239.8,257.7,241.5z"/>
	<path class="st114" d="M241.3,274.3c1.1,0.9,1,2.2,1,3.4c0.5,1.1,1,2.3-1,2.3c0.1-1.9-1.1-3.1-2.1-4.4
		C240.1,275.6,240.9,275.2,241.3,274.3z"/>
	<path class="st66" d="M397.8,107.1c0.3-2.9,1.8-4.5,4.8-4.4C401.2,104.4,399.9,106.1,397.8,107.1z"/>
	<path class="st59" d="M182.6,233.5c-1.8,2.6-4.2,1.1-6.5,0.5c0.8-0.1,1.6-0.2,2.4-0.3C179.9,233.6,181.2,233.5,182.6,233.5z"/>
	<path class="st115" d="M393.7,233.9c-1.5-0.2-2.6-0.9-2.5-2.7c1.1,0.4,2.5,0.6,3.3,1.3C396.4,234.2,394.4,233.7,393.7,233.9z"/>
	<path class="st59" d="M254.4,339.6c1.7,1.2,0.9,3.1,1.2,4.6c-0.1,0.6-0.1,1.3-0.2,2c-1.5-1.2-0.8-2.9-1-4.4
		C253.7,341,253.8,340.3,254.4,339.6z"/>
	<path class="st19" d="M278.7,343.9c0.4-1.9,0.8-3.7,1.2-5.6C280.7,340.5,281.5,342.6,278.7,343.9z"/>
	<path class="st86" d="M293,80.3c2.7-1.2,3.4,0,3.2,2.5C295.1,81.9,294.1,81.1,293,80.3z"/>
	<path class="st116" d="M354.9,73.1c0.8-1.4-3.7-0.4-1.1-2.6c1,0.2,2.6,0,2.8,0.5C357,72.1,355.9,72.7,354.9,73.1z"/>
	<path class="st11" d="M349.4,209.7c-0.6-0.5-1.1-1-1.7-1.4c1.2-0.9,2.6-1,4.2-0.8C351.8,209,350.5,209.2,349.4,209.7z"/>
	<path class="st117" d="M278.5,210.4c-0.3-0.2-0.5-0.5-0.8-0.8c0.4-1.7,1.6-2.6,3.1-3.4C281.1,208.2,280,209.4,278.5,210.4z"/>
	<path class="st86" d="M318.4,264.5c-2.2,0-3.8-0.4-2.5-3.2C316.8,262.4,317.6,263.5,318.4,264.5z"/>
	<path class="st118" d="M283.1,202.4c0.6-2.1,1.3-4.1,3.5-5.2C286.4,199.6,285.4,201.4,283.1,202.4z"/>
	<path class="st119" d="M261.1,332.4c-0.9-0.9-1.7-1.8-2.6-2.8c2.3-1,2.4,1.1,3.2,2.2c0.1,0.1,0,0.4-0.1,0.5
		C261.5,332.4,261.3,332.4,261.1,332.4z"/>
	<path class="st120" d="M262.1,246.2c-1.3,1.2-2.2,3-4.5,1.8C258.9,246.9,260.1,245.5,262.1,246.2z"/>
	<path class="st121" d="M228.9,252.7c-1.1-1.2-1.5-2.7-1.6-4.5c2.4,0.1,1.9,2.2,2.6,3.4C229.6,251.9,229.6,252.6,228.9,252.7z"/>
	<path class="st122" d="M297.5,300.7c0.4-0.7,0.8-1.4,1.2-2c0.4-0.4,0.7-0.8,1-1.1c0.7-0.5,1.3-0.6,2-0.1c0,0.4,0,0.9,0,1.3
		C300.1,298.9,299.5,301.5,297.5,300.7z"/>
	<path class="st123" d="M267.6,330.8c-0.4-0.4-0.8-0.8-1.1-1.3c-0.1-1.2,0.5-2.2,1.3-3.1c0.9,0.5,1,1.3,1,2.2
		c0.4,0.3,0.5,0.6,0.3,1.1C268.8,330.3,268.3,330.7,267.6,330.8z"/>
	<path class="st86" d="M352.7,48.6c-1.5-1.2,0.2-2.5,0-3.7C356.7,46.1,354.6,47.4,352.7,48.6z"/>
	<path class="st116" d="M248.7,163.1c1,2.4-1.1,2.7-2.5,3.6C245.2,164.3,247.7,164.2,248.7,163.1z"/>
	<path class="st25" d="M294.2,162.1c1.8,1.9,0.7,4.2,1,6.3C293.5,166.5,294.4,164.2,294.2,162.1z"/>
	<path class="st124" d="M304,141.2c0.3-2.2-0.7-4.6,0.9-6.6C305.5,136.9,306.3,139.3,304,141.2z"/>
	<path class="st125" d="M259.6,319.1c-2,1-3.7,0.9-5.4,0.2C255.8,318.6,257.5,318.1,259.6,319.1z"/>
	<path class="st126" d="M228.9,252.7c0.3-0.4,0.7-0.8,1-1.2c0.5,1.4,1,2.9,1.5,4.3c-0.5,0.1-1,0.1-1.5,0.2
		C229.5,254.9,229.2,253.8,228.9,252.7z"/>
	<path class="st92" d="M187.2,148.9c1.3,1.1,1,2.5,0.9,3.9c0,0.6-0.5,0.7-0.9,0.2c-0.2-0.3-0.2-0.7-0.2-1
		C187.1,150.9,187.1,149.9,187.2,148.9z"/>
	<path class="st127" d="M245.5,174.1c0.9,2.3-0.9,2.7-2.4,3.3C243.2,175.9,244,174.8,245.5,174.1z"/>
	<path class="st128" d="M306.1,127.3c0,0.3,0.1,0.6,0.3,0.9c-0.2,1.5,0.7,3.3-1.2,4.2C305.5,130.7,304.4,128.7,306.1,127.3z"/>
	<path class="st48" d="M287.4,130.1c-1.6-1.7-1.4-2.8,1-3.3C288.7,128.1,288.1,129.1,287.4,130.1z"/>
	<path class="st129" d="M220.1,324.3c-0.4,1.1-1.1,1-1.8,1c-0.9,0-1.5-0.4-1-1.2c0.3-0.5,1.3-0.7,2-0.7
		C219.6,323.4,219.9,324,220.1,324.3z"/>
	<path class="st130" d="M293,186.4c0.2-1.8,0.8-3.3,2.2-4.4C295.2,183.8,295,185.5,293,186.4z"/>
	<path class="st123" d="M320.5,185.2c-1.3-0.9-1-2.2-1-3.5C323.5,181.9,321.5,183.7,320.5,185.2z"/>
	<path class="st59" d="M293.1,302.1c-0.7,0.7-1.5,1.4-2.2,2.1c0-0.7-0.1-1.3-0.2-2C291.4,298.5,292.3,302.7,293.1,302.1z"/>
	<path class="st48" d="M288.5,125.7c-1.6-1.7-1.3-2.8,1-3.3C289.7,123.7,289.1,124.7,288.5,125.7z"/>
	<path class="st131" d="M354,184.2c-1-0.3-1.3-1.1-1.2-2c1-0.5,2.1-0.8,3.2-0.2l-0.1-0.1C355.3,182.7,354.6,183.4,354,184.2z"/>
	<path class="st132" d="M353.5,191.8c-0.8-0.5-0.9-1.2-0.9-2.1c1-0.2,2.2-1.4,2.8-0.4C356.5,191.1,353.6,190.4,353.5,191.8z"/>
	<path class="st133" d="M345.8,223.9c0.8-0.4,1.5-0.7,2.3-1.1c1.1,0.1,2,1.3,1.6,1.7C348.4,225.5,347,224.8,345.8,223.9z"/>
	<path class="st60" d="M201.5,282.3c-0.4-2,0.1-2.9,2.2-2C203.3,281.3,202.6,282,201.5,282.3z"/>
	<path class="st134" d="M257.9,226.1c-1.6-0.2-3.3,0.5-4.6-1.1C254.8,225.4,257,223,257.9,226.1z"/>
	<path class="st135" d="M242.3,231.4c1.3-1.3,2.7-1.1,5.2-0.5c-1.6,0.4-2.4,0.5-3.3,0.7C243.6,231.6,242.9,231.5,242.3,231.4z"/>
	<path class="st136" d="M388,235.1c-1.5,0-3-0.1-4.5-0.1c1.8-1.8,3.6-1.6,5.5-0.2C388.7,235,388.4,235.1,388,235.1z"/>
	<path class="st66" d="M242.1,348.4c0.4,0.4,0.9,0.7,1.3,1.1c-0.7,1.1-2.1,1.9-2.9,1C239.6,349.5,241.8,349.4,242.1,348.4z"/>
	<path class="st137" d="M392.3,239.1c-0.4,0.4-0.8,0.8-1.2,1.2c-0.5-0.8-1.9-0.2-2.2-1.3c0.7-0.6,1.4-1.1,2.2-1.7
		C392.4,237.3,392.2,238.3,392.3,239.1z"/>
	<path class="st51" d="M384.7,269.8c-0.1,0.3-0.1,0.7-0.3,1c-0.3,0.4-0.8,0.9-0.9,0c-0.1-1.5-0.5-3.2,1.6-3.8
		C385,267.9,384.9,268.8,384.7,269.8z"/>
	<path class="st138" d="M222.6,246.9c-2-1.7-1.7-3.5-0.4-5.4C222.4,243.3,222.5,245.1,222.6,246.9z"/>
	<path class="st59" d="M295,9.3c0.6-0.9,1.4-0.8,1.2,0.3c-0.1,0.8,1.4,2.6-1,2.5C295.1,11.2,295,10.2,295,9.3z"/>
	<path class="st139" d="M221.4,216.1c-0.9,3.4,1.4,7.4-2.2,10.1c-5.8-1.5-6.3-6.7-7.9-11.2c-3.1-10.8,2.2-19.3,7.8-27.6
		c-0.3,9,0.1,18,2,26.8C222,214.8,221.8,215.4,221.4,216.1z"/>
	<path class="st140" d="M211.3,215c3.2,3.4,3.1,9,7.9,11.2c0.4,0.3,0.7,0.6,1.1,0.9c0.3,0.2,0.4,0.5,0.3,0.7
		c-0.1,0.2-0.2,0.4-0.3,0.4c-1.1,0.4-2.2,0.7-3.3,1.1c-2.2-3.4-2.8-7.8-6.7-10C211.8,218.2,209.4,216.1,211.3,215z"/>
	<path class="st141" d="M186.2,170.1c-3-5.9-5.9-11.9-8.9-17.8c0.4-0.2,0.9-0.4,1.3-0.7c3,5.9,5.9,11.8,8.9,17.7
		C187,169.6,186.6,169.9,186.2,170.1z"/>
	<path class="st142" d="M196.8,200.8c-3.3,0-6.2-1.1-8.9-3.2c3.8,0.6,7.5,1.3,11.3,1.9C199.4,201.7,198.1,201.2,196.8,200.8z"/>
	<path class="st143" d="M196.8,200.8c1-0.1,1.9-0.2,2.4-1.3c0-0.3,0-0.7,0.1-1c0.4-0.4,0.5-1.1,1.1-1.2c3.4,0.8,1.7,3.6,2.2,5.5
		c0.3,0.3,0.4,0.6,0.3,0.9c-0.1,0.3-0.2,0.4-0.3,0.4C201.4,201.6,198.6,202.1,196.8,200.8z"/>
	<path class="st144" d="M202.6,193c0.6-2.3,1.1-4.7,1.7-7c0.3,0.1,0.7,0.1,1,0.2c-0.4,2.4-0.9,4.8-1.3,7.1
		C203.6,193.2,203.1,193.1,202.6,193z"/>
	<path class="st145" d="M206,183.3c-1.9-2.9,0.2-4.7,0.4-6.7C207.1,178.6,207.3,180.5,206,183.3z"/>
	<path class="st146" d="M200.4,197.2c-0.4,0.4-0.7,0.8-1.1,1.2c-0.8-2.1-1.6-4.3-2.3-6.5c0.3-0.2,0.6-0.3,0.9-0.5
		C198.7,193.4,199.6,195.3,200.4,197.2z"/>
	<path class="st147" d="M193.7,183c1.6,1.4,2.1,3.2,2.9,5.6c-2.4-1.2-2.7-2.8-3-4.4c-0.3-0.3-0.4-0.6-0.3-0.8
		C193.5,183.1,193.6,183,193.7,183z"/>
	<path class="st148" d="M202.5,204.1c0-0.4,0.1-0.9,0.1-1.3c1.5,1.2,2,2.8,2.4,4.8C202.8,207,202.9,205.3,202.5,204.1z"/>
	<path class="st149" d="M182.7,196.2c1,0.2,2.2-0.3,2.7,1c0.1,0.2-0.2,0.8-0.4,0.8c-1.5,0.1-2.7-0.6-3.6-1.8
		C181.9,195.9,182.3,195.8,182.7,196.2z"/>
	<path class="st150" d="M182.7,196.2c-0.4,0-0.8,0-1.2,0.1c-1.4-0.2-2.7-0.4-3.5-1.9C180.1,193.9,181.4,195,182.7,196.2z"/>
	<path class="st151" d="M193.7,183c0,0.4,0,0.8-0.1,1.2c-1.2-1.3-2.3-2.6-1.9-4.7C193.4,180.3,193.6,181.6,193.7,183z"/>
	<path class="st152" d="M207.8,212.5c-1.6-0.9-2.3-1.8-1.9-2.6c1-1.8,1.1,0.2,1.5,0.6C207.7,210.9,207.6,211.5,207.8,212.5z"/>
	<path class="st153" d="M358.1,233.8c1.7-2.2,2.5-5.2,5.7-6.6c-0.2,2.6-3.2,3.5-2.6,6.3c4.1-1.2,7.6-4.2,12.4-3.4
		c-4.5,1.9-8.9,3.9-13.4,5.8C359.5,235.3,358.5,234.8,358.1,233.8z"/>
	<path class="st154" d="M343.8,244.8c0.4-0.4,0.8-0.8,1.2-1.1c6.2,1.8,12.5,3.7,18.7,5.5c-0.3,0.5-0.6,0.8-1.1,1.1
		C356.3,248.4,350,246.6,343.8,244.8z"/>
	<path class="st155" d="M382.2,242.3c-5.6,1.8-11.2,3.2-15.3-2.9c0.7-0.8,1.4-0.8,2.2-0.2c3.9,1.5,7.8,2.3,12,2.1
		C382.3,240.8,382.4,241.4,382.2,242.3z"/>
	<path class="st156" d="M358.1,233.8c1,0.4,1.7,1.1,2.1,2.1c-5.1,2.2-10.2,4.5-15.4,6.7c0-0.4,0-0.8,0-1.2
		C348.5,237.5,354.7,238.1,358.1,233.8z"/>
	<path class="st157" d="M347.6,258.8c1.1,4.9,1.9,8.5,2.7,12.1C348.1,267.6,346.4,264.2,347.6,258.8z"/>
	<path class="st158" d="M385.6,255.9c-3.9,0-7.4-1.3-12.4-3c5.3-0.9,8.7,1.3,12.4,1.9c0.3,0.2,0.4,0.5,0.3,0.8
		C385.8,255.7,385.7,255.9,385.6,255.9z"/>
	<path class="st159" d="M360.3,270.1c-2.4-1.6-4.3-3.6-5.8-6.1c3,1.2,5.1,3.5,6.9,6.1C361,270.6,360.7,270.6,360.3,270.1z"/>
	<path class="st160" d="M390,255.8c2.1,0.5,4.2,0.8,5.8,2.6c-2.3-0.6-4.9,0.3-6.9-1.4C389,256.3,389.7,256.2,390,255.8z"/>
	<path class="st161" d="M360.3,270.1c0.4,0,0.8,0,1.1,0c1.4,0.8,2.7,1.6,3,4C362.4,273.1,361.2,271.8,360.3,270.1z"/>
	<path class="st162" d="M390,255.8c-0.4,0.4-0.7,0.7-1.1,1.1c-1.2-0.1-2.5,0.1-3.3-1.1c0-0.4,0-0.8,0-1.1
		C387.1,255.1,388.6,255.5,390,255.8z"/>
	<path class="st163" d="M389,239c0.8,0.2,1.9,0.1,2.2,1.3c-1.5,0.3-3,0.5-4.5,0.8c-0.5-0.1-0.8-0.4-1-0.9
		C386.4,239.1,387.8,239.3,389,239z"/>
	<path class="st164" d="M393.6,264c2.5-0.6,3.9-0.8,5.4-0.1C397.5,265,396,264.7,393.6,264z"/>
	<path class="st165" d="M385.5,240.3c0.3,0.3,0.7,0.6,1,0.9c-1.5,0.4-2.9,0.8-4.3,1.1c-0.4-0.3-0.8-0.6-1.1-0.9
		C382.4,240.2,384,240.4,385.5,240.3z"/>
	<path class="st166" d="M366.9,250.3c1.4,0.1,3-0.4,4.1,1.2c-1.6,1.2-2.8-0.4-4.1-0.2c-0.3-0.2-0.4-0.5-0.3-0.7
		C366.7,250.4,366.8,250.3,366.9,250.3z"/>
	<path class="st60" d="M369.1,239.3c-0.7,0-1.4,0.1-2.2,0.2c1.1-1.9,2.9-1,4.5-1.3C370.9,239.6,369.9,239.1,369.1,239.3z"/>
	<path class="st167" d="M366.9,250.3c0,0.4,0,0.7,0,1c-1.5-0.4-2.9-0.7-4.4-1.1c0.4-0.4,0.7-0.7,1.1-1.1
		C364.8,249.2,366.1,249,366.9,250.3z"/>
	<path class="st168" d="M308.4,51.9c0,9.2,0,18.4,0,27.6c-2.6-0.4-2-2.6-2.1-4.2c-0.2-3.4-0.1-6.8-0.1-10.2c0-3,0-6,0-9
		c0-0.3,0-0.6,0-0.9c0-4.8,0-9.6,0-14.3C309.1,44.1,305.6,48.6,308.4,51.9z"/>
	<path class="st169" d="M351.4,107c0.1,0.5,0.1,1.3,0.4,1.5c4.3,2.6,1,5.9,1.7,8.8c-0.5,0.1-0.9,0.1-1.4,0.2
		c-0.6-3.5-1.2-7.1-1.8-10.6C350.7,106.5,351,106.6,351.4,107z"/>
	<path class="st170" d="M357.2,133.6c-1.5,1.7-4.3,0-5.7,2.1c-0.4,0.4-0.8,0.8-1.4,0.9c-1.2,0.2-2.3,0.1-3.1-0.9
		c0-1.4,0.7-2.2,2.1-2.4c0.5,0.5,0.9,0.5,1.4,0c1.8-0.3,3.6-0.6,5.4-0.9C356.3,132.8,357,132.9,357.2,133.6z"/>
	<path class="st171" d="M347,135.7c1.1,0,2.2,0,3.3,0c1.2,0.8,2.4,1.6,1.1,3.2c-2.2-1.9-5.4-0.1-7.6-2.1c0.4-0.4,0.7-0.8,1.1-1.2
		C345.6,135.7,346.3,135.7,347,135.7z"/>
	<path class="st172" d="M365.7,98.4c-2.2,2-4.3,4-6.5,6c0.1,0.1,0.2,0.2,0.3,0.4c2.1-2.1,4.3-4.1,6.4-6.1
		C365.9,98.5,365.8,98.5,365.7,98.4z"/>
	<path class="st173" d="M357.2,133.6c-0.4-0.4-0.9-0.8-1.3-1.2c2.2-0.3,4.5-0.6,6.7-1c0.6,0.6,1.7,0.1,2.2,1
		C362.5,134.2,359.7,133.2,357.2,133.6z"/>
	<path class="st174" d="M382.3,124.6c2.3,0.1,2.8,1.6,3,3.6c-2.1,0.2-3.3-0.9-4.2-2.4c0-0.4,0.1-0.8,0.1-1.1
		C381.5,124.3,381.9,124.2,382.3,124.6z"/>
	<path class="st175" d="M350.5,133.3c-0.5,0.9-0.9,0.9-1.4,0c0.2-2.2-0.1-4.5,1.3-6.5c0.3-0.5,0.6-0.5,0.9,0
		C351,129,350.8,131.1,350.5,133.3z"/>
	<path class="st176" d="M351.4,107c-0.4,0-0.7-0.1-1.1-0.1c-1.8-2.1-1-4.4-0.6-7.2C350.3,102.6,350.9,104.8,351.4,107z"/>
	<path class="st177" d="M379.2,126.8c-1.8,1.9-4.4,2.3-6.8,3.1c-0.4-0.2-0.5-0.4-0.4-0.6c0.1-0.2,0.3-0.3,0.4-0.3
		C374.4,127.5,376.7,126.9,379.2,126.8z"/>
	<path class="st178" d="M382.3,124.6c-0.4,0-0.8,0-1.1,0.1c-1-2.2,0.8-3.4,2.3-6.1c0,2.1,0,3,0,3.9
		C383.1,123.2,382.7,123.9,382.3,124.6z"/>
	<path class="st179" d="M351.3,126.8c-0.3,0-0.6,0-0.9,0c0.1-2.1-0.5-4.3,1.8-7.5C351.8,122.8,351.5,124.8,351.3,126.8z"/>
	<path class="st180" d="M364.8,132.4c-0.7-0.3-1.5-0.6-2.2-1c2.2-0.4,4.3-0.8,6.5-1.3c0.2,0.2,0.3,0.4,0.2,0.6s-0.2,0.3-0.2,0.3
		C367.8,131.9,366.4,132.5,364.8,132.4z"/>
	<path class="st181" d="M386.5,113.6c-0.5,1.3-0.7,2.9-2.1,3.6c-0.2-0.3-0.6-0.6-0.5-0.7c0.6-1.1,1.2-2.2,1.9-3.2
		C385.7,113.3,386.2,113.5,386.5,113.6z"/>
	<path class="st182" d="M377.9,85.7c-1.3,2.3-1.9,3.3-3.6,3.3C374.5,87.3,375.6,86.8,377.9,85.7z"/>
	<path class="st183" d="M369.1,131c0-0.3,0-0.6,0-0.9c0.8-1.2,2.1-1.1,3.3-1.1c0,0.3,0,0.6,0,0.9c-0.5,0.4-1,0.7-1.4,1.1
		C370.4,131,369.7,131,369.1,131z"/>
	<path class="st184" d="M307.3,64c0.6,5.1-1.1,10.4,1.1,15.4c0,0.9,0.2,1.7,1.1,2.2c0.3,0.3,0.4,0.5,0.3,0.7
		c-0.1,0.2-0.2,0.3-0.4,0.3c-1.9,2-0.7,4.4-1,6.6c-0.4,0-0.7,0.1-1,0.1l-0.1-0.1c-0.5-0.6-0.5-1.2-0.5-1.9c0-0.5,0.1-1,0-1.5
		c-0.3,0.4-0.1,1.1-0.7,1.3c-0.8-1.8-1.3-3.7-2.3-5.3c-1.8-2.9,4-1,2.3-3.7c-0.8-2.1-0.2-4.3-0.4-6.4c0-2.5-0.1-4.9,0.1-7.4
		C306.2,63.7,306.7,63.6,307.3,64z"/>
	<path class="st185" d="M279.8,57.4c-1.2-5.2-4.7-9.4-6.1-14.5c3.9,4.5,6.5,9.7,9,15c0.4,0.8,0.6,1.9-0.5,2.3
		c-1.3,0.5-1.9-0.7-2.4-1.7c-0.4-0.3-0.5-0.5-0.4-0.8C279.5,57.5,279.6,57.4,279.8,57.4z"/>
	<path class="st186" d="M295,72.8c-2.5-2.8-5-5.7-7.4-8.3C290.9,66,293.1,69.3,295,72.8z"/>
	<path class="st3" d="M306.3,64c-0.1,2.6-0.1,5.1-0.2,7.7c-0.3,0.5-0.6,0.5-1,0c0.6-5.5-1.3-11.1,1.1-16.5l0,0
		C307.1,58.1,307,61.1,306.3,64z"/>
	<path class="st187" d="M275.4,56.3c-1.6-1.2-3.3-2.3-5-3.4c2.3-0.2,4,0.3,5,2.3c0.4,0.2,0.5,0.5,0.4,0.7
		C275.6,56.1,275.5,56.3,275.4,56.3z"/>
	<path class="st185" d="M271.6,38.6c-1.4-1.3-2.5-2.6-2.5-5.1C271.2,35,271.6,36.7,271.6,38.6z"/>
	<path class="st188" d="M305.1,71.7c0.3,0,0.6,0,1,0c0,2.2,0,4.4,0,6.5C304.3,76.3,305.5,73.9,305.1,71.7z"/>
	<path class="st189" d="M275.4,56.3c0-0.4,0-0.7,0-1.1c1.9-0.1,2.9,1.6,4.4,2.2c0,0.4,0,0.8,0,1.2C277.9,58.6,276.9,56.9,275.4,56.3
		z"/>
	<path class="st190" d="M306.1,87.3c0.1-0.8,0.2-1.6,0.3-2.4c0.3,0,0.6,0,0.9,0.1c0,1.5,0,2.9,0,4.4c-0.4,0-0.8,0-1.2,0
		C306.1,88.6,306.1,87.9,306.1,87.3z"/>
	<path class="st191" d="M326.1,60.7c3.4-6.3,6.9-12.7,10.3-19c-2.4,7.1-5,14-9.2,20.1C326.5,61.7,326.4,61.1,326.1,60.7z"/>
	<path class="st192" d="M309.5,82.7c0-0.4,0-0.7,0.1-1.1c4.5-4.7,8.1-10.4,14.4-13.2c0.4,0.3,0.5,0.5,0.4,0.8s-0.3,0.4-0.4,0.4
		C319.1,73.9,314.3,78.3,309.5,82.7z"/>
	<path class="st193" d="M323.9,69.5c0-0.4,0-0.7,0-1.1c4.8-0.7,9.6-1.5,15.6-2.4C334,70.2,328.9,69.4,323.9,69.5z"/>
	<path class="st193" d="M326.1,60.7c0.4,0.4,0.7,0.7,1.1,1.1c-0.9,1.2-0.9,3.1-2.8,3.7C324,63.5,325.6,62.3,326.1,60.7z"/>
	<path class="st194" d="M353.7,153.3c-0.5-3.7-1-7.4-0.1-11.1c0.7,0.1,1,0.5,1.2,1.2c0,3.3,0,6.6,0,9.9
		C354.4,153.7,354,153.6,353.7,153.3z"/>
	<path class="st195" d="M354.8,143.4c-0.4-0.4-0.8-0.8-1.2-1.2c0-0.3,0.1-0.7,0.1-1c0.3-0.5,0.7-0.6,1.1-0.1
		c1.8,1.1,3.3,2.5,4.5,5.5C357.3,145.1,356,144.2,354.8,143.4z"/>
	<path class="st193" d="M353.7,153.3c0.4,0,0.7,0,1.1,0c1.8,1.6,1,3.5,0.9,5.9C354.1,157.2,353.6,155.3,353.7,153.3z"/>
	<path class="st196" d="M354.8,141.1c-0.4,0-0.7,0.1-1.1,0.1c-0.8-0.8-1.5-1.5-2.3-2.2c-0.4-1.1-0.8-2.1-1.1-3.2
		c0.4,0,0.8-0.1,1.2-0.1c1.1,1.5,2.1,2.9,3.2,4.4C354.8,140.4,354.8,140.7,354.8,141.1z"/>
	<path class="st197" d="M365.7,152.5c1.9,0.9,3.2,1.4,3,3.2C367.1,155.6,366.4,154.7,365.7,152.5z"/>
	<path class="st198" d="M376.9,160.6c0.4,0.5,1.1,1,1.3,1.6c0.2,0.7-0.5,0.8-0.9,0.5c-0.5-0.4-0.9-1.1-1.2-1.6
		C376.3,161,376.5,160.8,376.9,160.6z"/>
	<path class="st199" d="M225.7,222.7c1.9-4.5,3.8-9,6.1-14.5c0.7,4.3-2.1,6.9-1.5,10c-0.2,0.6-0.8,0.7-1.2,1.1
		C227.7,220.3,227.5,222.3,225.7,222.7L225.7,222.7z"/>
	<path class="st200" d="M234.5,219.5c2.5,0,5.1,0,7.6,0c-2.5,0.8-4.8,3.5-7.6,1.1c-0.4-0.2-0.5-0.5-0.4-0.7
		C234.3,219.6,234.4,219.5,234.5,219.5z"/>
	<path class="st201" d="M220.2,228.2c0-0.4,0-0.7,0-1.1c1.8-1.5,3.6-3,5.5-4.5l0.1,0.1c-0.6,3.2-3.2,4.8-5.5,6.6
		C220.2,229,220.2,228.6,220.2,228.2z"/>
	<path class="st202" d="M242.2,192.9c0-1.8,1.1-2.9,3.3-4.3c-0.9,2.6-2,4.1-3.3,5.4c-0.3-0.2-0.4-0.5-0.3-0.8
		S242.1,192.9,242.2,192.9z"/>
	<path class="st203" d="M242.2,192.9c0,0.4,0,0.8,0,1.1c-0.7,1.4-1.7,2.6-4.2,3.5C239.3,195.1,240.6,193.9,242.2,192.9z"/>
	<path class="st204" d="M233.1,206.5c-0.3-1.8,0.3-3.2,2-4.2C235.4,204.3,234.3,205.4,233.1,206.5z"/>
	<path class="st205" d="M234.5,219.5c0,0.4,0,0.7,0,1.1c-1.8-0.4-3.7-0.8-5.5-1.2c0.4-0.4,0.8-0.7,1.2-1.1
		C231.6,218.7,233.1,219.1,234.5,219.5z"/>
	<path class="st206" d="M221.4,216.1c-0.1-0.6-0.2-1.2-0.3-1.8c0.1-1.2,0.2-2.4,0.5-4.7C222.6,212.5,222.9,214.4,221.4,216.1z"/>
	<path class="st207" d="M253.5,178.8c1.1-0.2,0.1-3,2.1-1.8c1.4,0.8,0.1,1.8-0.2,2.7C254.6,179.7,253.9,179.6,253.5,178.8z"/>
	<path class="st208" d="M198.1,239.3c-2.7,2.1-5.9,0.6-8.8,1.1c-1.2,0.5-1.3-0.1-1.1-1.1c3.4,0.5,6.6-0.9,9.9-1.1
		c0.4,0.2,0.5,0.5,0.4,0.7C198.4,239.2,198.3,239.3,198.1,239.3z"/>
	<path class="st209" d="M198.1,239.3c0-0.4,0-0.7,0-1.1c0.9-0.1,1.7-0.2,2.2-1.1c-0.3-0.2-0.4-0.5-0.3-0.7c0.1-0.2,0.2-0.4,0.3-0.4
		c1.4,0.7,2.8,1.3,4.4,1.1c0.3,0.2,0.4,0.5,0.3,0.7c-0.1,0.2-0.2,0.3-0.3,0.3c-0.4,0.4-0.8,0.7-1.2,1.1c-0.7,0.4-1.4,0.8-2.1,1.2
		c-0.4,0.5-0.8,0.4-1.1,0C199.9,239.5,199,239.3,198.1,239.3z"/>
	<path class="st210" d="M188.2,239.3c0.4,0.4,0.7,0.7,1.1,1.1c-2.8,2.2-5.9,0.5-8.9,0.5C183,240.3,185.6,239.8,188.2,239.3z"/>
	<path class="st211" d="M204.7,238.1c0-0.3,0-0.7,0-1c0-0.4,0-0.7,0-1c1.8-0.1,3.6-0.1,5.4-0.2c0.3,0.3,0.4,0.6,0.3,0.9
		s-0.1,0.4-0.2,0.4C208.4,237.5,206.5,237.8,204.7,238.1z"/>
	<path class="st212" d="M200.3,240.4c0.4,0,0.8,0,1.1,0c-0.9,1.6-2.1,2.8-4.1,4C197.5,242.1,198.9,241.2,200.3,240.4z"/>
	<path class="st213" d="M200.3,236c0,0.4,0,0.7,0,1.1c-1.1-0.6-2.1-1.3-2.7-2.8C199.2,233.8,199.8,234.9,200.3,236z"/>
	<path class="st214" d="M415.5,114.8c-1.7,1.5-3.6,2.6-6.3,1.9c2.1-1,4.2-2,6.3-3c0.4,0.2,0.5,0.5,0.4,0.8
		C415.7,114.6,415.6,114.8,415.5,114.8z"/>
	<path class="st215" d="M392.3,123.6c-1.9,1.3-3.9,2.1-7.1,1.7c2.5-2.5,5.2-1.5,7.1-2.8c0.4,0.2,0.5,0.5,0.4,0.7
		C392.5,123.5,392.4,123.6,392.3,123.6z"/>
	<path class="st216" d="M393.4,131.3c-2.3-0.1-4.4-0.8-7.1-2.6c3.4-0.7,5,1.4,7.1,1.5c0.3,0.2,0.4,0.5,0.3,0.8
		C393.5,131.2,393.5,131.3,393.4,131.3z"/>
	<path class="st217" d="M397.8,131.3c1.4,0,2.9-0.2,3.8,1.4c-1.5,1.2-2.7,0.9-3.8-0.3c-0.4-0.2-0.5-0.5-0.4-0.7
		C397.5,131.4,397.6,131.3,397.8,131.3z"/>
	<path class="st218" d="M418.7,112.5c1.3-1.3,3-1.6,4.9-1.9c-0.8,2.1-2.5,2.2-3.9,2.9C419.3,113.3,419,112.9,418.7,112.5z"/>
	<path class="st219" d="M397.8,131.3c0,0.4,0,0.7,0,1.1c-1.5-0.2-3.2,0.4-4.4-1.1c0-0.4,0-0.8,0-1.1
		C394.8,130.6,396.3,130.9,397.8,131.3z"/>
	<path class="st220" d="M392.3,123.6c0-0.4,0-0.7,0-1.1c1.1-0.3,2.3-0.6,3.6-0.9C395.5,124.1,393.6,123.2,392.3,123.6z"/>
	<path class="st221" d="M418.7,112.5c0.4,0.4,0.7,0.7,1.1,1.1c-1.4,0.4-2.9,0.8-4.3,1.2c0-0.4,0-0.8,0-1.1
		C416.5,113.2,417.6,112.9,418.7,112.5z"/>
	<path class="st187" d="M304,282.3c-1.5-5.1,3.3-7.3,5-12.5c0.5,5-2,7.6-2.6,10.8c-1.8,8.6-0.2,11.5,8,15.2
		c-3.4-0.8-7.1,0.7-10.4-1.3C301.8,290.3,301.8,286.3,304,282.3z"/>
	<path class="st222" d="M301.7,297.5c-0.7,0-1.4,0-2,0.1c0.3-4.7-0.4-9.5,1.9-13.9c2,3.4,1.5,7.1,1.4,10.7
		C302.6,295.4,302.2,296.5,301.7,297.5z"/>
	<path class="st223" d="M303.1,294.4c-0.5-3.6-1-7.1-1.4-10.7c0.5-1,1.3-1.4,2.4-1.4c0,4,0,8.1,0,12.1
		C303.7,294.4,303.4,294.4,303.1,294.4z"/>
	<path class="st224" d="M296.4,265.8c1.7-2.8,1.9-6.4,4.3-8.8c-0.2,3.2-1,6.3-3.2,8.8C297.1,266.3,296.8,266.2,296.4,265.8z"/>
	<path class="st225" d="M311.5,292.1c1.4-2,2.4-3.6,4.6-2.8c0.3,0.1,0.6,0.7,0.5,0.9C315.6,291.7,314.1,292.4,311.5,292.1z"/>
	<path class="st226" d="M295.2,274.5c-1.9-1.8,0.7-3.5,0.2-5.3c1-0.2,1.5-0.1,1,1C296,271.6,295.6,273,295.2,274.5z"/>
	<path class="st227" d="M312.6,285.7c0.6,0.8,1,1.2,1,1.2c-0.4,0.5-0.8,1.2-1.4,1.5c-0.5,0.3-1.1,0-0.7-0.8
		C311.8,287,312.2,286.4,312.6,285.7z"/>
	<path class="st228" d="M296.4,270.2c-0.3-0.3-0.7-0.7-1-1c0.3-1.1,0.7-2.3,1-3.4c0.4,0,0.8,0,1.1,0
		C297.3,267.3,297.8,269,296.4,270.2z"/>
	<path class="st229" d="M302.9,253.6c-1.1-0.7-1.8-1.8-1.5-3.1c0.2-0.8,0.9-1.1,1.6-0.2C302.9,251.4,302.9,252.5,302.9,253.6z"/>
	<path class="st230" d="M307.3,200.7c1.3,2.5,2.6,5,5.5,7.8c0-3.7,0-6.3,0-9c0.4-0.5,0.7-0.5,1.1,0c-0.3,4.5,1.8,8.7,1,13.2
		c-0.9,0.2-1.5,0-1-1.1c-3.7-2.9-6.6-6.3-7.7-11C306.6,200.3,307,200.3,307.3,200.7z"/>
	<path class="st231" d="M314,211.7c0.3,0.4,0.7,0.8,1,1.1c1.9,4.6,3.7-1.3,5.5,0c1.3-0.7,2.2-0.8,2.2,1.1c-4.2,1.4-8.5,2.7-10,7.7
		c-0.7,0.1-1.5,1.3-2.2,0C313.2,218.8,312,214.7,314,211.7z"/>
	<path class="st232" d="M332.8,204c-0.4,0.4-0.8,0.7-1.3,1c-1,0.3-1.4,0.1-1-1c1.7-3,4.5-4.9,7-7.1
		C337.1,200.2,333.9,201.3,332.8,204z"/>
	<path class="st233" d="M330.5,204.1c0.3,0.3,0.6,0.6,1,1c-1.7,2.5-3.3,5-6.6,5.6C326.8,208.5,328.7,206.3,330.5,204.1z"/>
	<path class="st234" d="M339.3,194.8c1.1-2.4,2.6-4.2,5.9-6.1C343.5,192.1,341.4,193.5,339.3,194.8z"/>
	<path class="st235" d="M322.8,213.9c-0.5-0.9-1.3-1-2.2-1.1c1.2-1.3,2.7-2,4.5-2.2c0.4,0.7,0.7,1.5,1.1,2.2
		C325,213.2,323.9,213.5,322.8,213.9z"/>
	<path class="st236" d="M314,199.6c-0.4,0-0.7,0-1.1,0c0-2.5,0-5,0-7.5c0.4,0,0.7,0,1.1,0C314,194.6,314,197.1,314,199.6z"/>
	<path class="st237" d="M307.3,200.7c-0.4,0-0.7,0-1.1,0c-0.9-0.7-1.8-2-0.4-2.4C307,197.9,307.2,199.6,307.3,200.7z"/>
	<path class="st238" d="M274.1,133.5c-1.3-3.2-2.6-6.4-4-9.6c0.5-0.2,0.9-0.4,1.4-0.6c2.1,4.3,5.8,7.9,5,13.5
		C274.8,136.3,273.8,135.3,274.1,133.5z"/>
	<path class="st239" d="M274.1,133.5c0.8,1.1,1.6,2.2,2.4,3.3c0.6,1,2.4,1.6,1.1,3.2c-1.7,0.4-3.1-0.3-4.5-1.2
		c-0.3-0.3-0.7-0.6-1-0.9c-1.1,0.6-1.3,0-1.2-1C272,135.7,273,134.6,274.1,133.5z"/>
	<path class="st240" d="M282,141.2c-0.4,0-0.9-0.1-1.3-0.1c0.4-1.8,0.7-3.7,1.1-5.5c-0.5-0.6-0.4-1.3-0.3-2c0.4-0.9,0.5-1.8,1.2-2.5
		c0.4-0.3,0.9-0.2,1.3,0.1c0,1.1,0,2.2,0.1,3.3C282.6,136.5,283.9,139.3,282,141.2z"/>
	<path class="st241" d="M255.6,132.3c0-0.7-0.1-1.4-0.1-2c1-1.2,2.1-0.5,3.2-0.3c0.4,0.2,0.8,0.4,1.2,0.7c0.5,0.5,0.9,1.1,0.9,1.8
		c0.4,0.4,0.8,0.8,1.2,1.1c0.2,0.9,0.1,1.5-1.1,1c-1.1-0.3-2.1-0.7-3.2-1C256.5,134.1,256.1,133.1,255.6,132.3z"/>
	<path class="st242" d="M282.1,133.6c-0.1,0.7-0.1,1.4-0.2,2c-1.6-4-1.6-8,0-12C284.1,126.8,282.8,130.2,282.1,133.6z"/>
	<path class="st243" d="M282.1,133.6c0-3.3-0.1-6.7-0.2-10c1.6-1.4,1.7,0.2,2.3,1.1c-1.4,2,0.2,4.6-1,6.6
		C282.8,132,282.4,132.8,282.1,133.6z"/>
	<path class="st244" d="M284.2,113.6c-0.1-1.6,0-3.2,1.9-4.9c0.1,2.8,0.9,5-0.8,7.1C284.5,115.4,285,114.2,284.2,113.6z"/>
	<path class="st245" d="M257.8,126.7c0.8-1.9-2.2-3.7,0-5.6c1.4,1.3,2.1,2.9,2.1,4.7c-0.4,0.5-0.6,1.1-1.1,1.4
		C258.2,127.3,257.9,127.1,257.8,126.7z"/>
	<path class="st246" d="M252.1,113.5c-2.4-0.5-3.6-1.9-3.2-4.4C250.6,110.1,251.9,111.3,252.1,113.5z"/>
	<path class="st247" d="M284.2,113.6c0.9,0.5,1,1.4,1.2,2.2c-0.1,1.8-0.2,3.5-0.3,5.3c-0.3,0-0.6,0-0.9,0
		C284.2,118.6,284.2,116.1,284.2,113.6z"/>
	<path class="st248" d="M273.1,138.7c1.5,0.4,3,0.8,4.5,1.2c0.7,0.4,1.4,0.9,2.1,1.4c-0.4,0.3-0.7,0.7-1.1,1
		C276.8,141.1,274.2,140.9,273.1,138.7z"/>
	<path class="st249" d="M270.9,136.9c0.4,0.3,0.8,0.6,1.2,1c-2.6,1.1-4.5,0.7-5.5-2.2C268,136.1,269.4,136.5,270.9,136.9z"/>
	<path class="st250" d="M260.8,132.4c-0.4-0.4-0.7-0.8-1.1-1.2c-0.5-0.8-0.4-1.6,0.4-2.2c0.5-0.4,1-0.8,1.6-1.2
		C262.4,129.6,262.5,131.2,260.8,132.4z"/>
	<path class="st251" d="M266.5,101.4c1.5,0.7,2.5,1.8,3.3,3.8c-2-0.3-2.7-1.5-3.3-2.6c-0.3-0.2-0.4-0.5-0.3-0.8
		S266.4,101.4,266.5,101.4z"/>
	<path class="st252" d="M266.5,101.4c0,0.4,0,0.8,0,1.1c-0.9-1.2-1.8-2.4-2.9-3.9C266.1,98.6,266.3,100,266.5,101.4z"/>
	<path class="st245" d="M274.3,110.7c-2.3-0.1-2.4-1.6-3.5-2.7C273.4,107.6,273.4,109.2,274.3,110.7z"/>
	<path class="st253" d="M255.5,119.1c-1.1-1.4-2.2-2.9-3.2-4.3C255.3,114.8,255.6,116.8,255.5,119.1z"/>
	<path class="st254" d="M283.2,131.2c0.2-2.2-1-4.7,1-6.6c0,2.2-0.1,4.4-0.1,6.6h-0.4H283.2z"/>
	<path class="st255" d="M261,134.6c0.4-0.3,0.7-0.6,1.1-1c1.2,0.6,2.5,1.3,3.7,1.9C263.8,136.9,262.4,135.7,261,134.6z"/>
	<path class="st256" d="M260.1,129.1c-0.1,0.7-0.3,1.5-0.4,2.2c-0.4-0.1-0.8-0.1-1.1-0.2c-0.6-1.4-0.6-2.8,0.1-4.1
		c0.4-0.4,0.7-0.8,1.1-1.2C259.9,126.9,260,128,260.1,129.1z"/>
	<path class="st257" d="M277.2,115.4c-1.2-0.6-2-1.2-2.1-2.4c0-0.1,0.7-0.4,0.9-0.2C276.9,113.4,277.5,114.1,277.2,115.4z"/>
	<path class="st258" d="M280.9,283.4c0-0.4,0-0.8,0-1.2c0.4-0.9,0.7-2,1.3-2.7c0.5-0.6,1.7-1.3,2-1.1c1,0.8-0.2,1.8,0,2.8
		C283.1,281.9,282,282.6,280.9,283.4z"/>
	<path class="st259" d="M277.2,252.1c2.3-1.3,4.4-2.2,6.9-1.1C281.8,251,280,253.1,277.2,252.1z"/>
	<path class="st260" d="M245.8,121.5c3.5,0.9,5.4,3.6,7.3,6.4C249.1,127.5,246.7,125.4,245.8,121.5z"/>
	<path class="st261" d="M244.5,134.5c-3.6-1.2-7.6-0.5-12.1-3.1c4.9,0.1,8.5,0.6,12,2.1c0.4,0.2,0.5,0.4,0.4,0.7
		C244.7,134.4,244.6,134.5,244.5,134.5z"/>
	<path class="st262" d="M244.5,134.5c0-0.3,0-0.7,0-1c3.7-0.6,7.6,1.2,11.2-1.1c0.7,0.4,1.4,0.8,2.1,1.2
		C253.4,135.6,248.9,134.2,244.5,134.5z"/>
	<path class="st7" d="M258.7,127c0,1.4-0.1,2.8-0.1,4.1c-1-0.3-2-0.6-3-0.8c0-0.4-0.1-0.8-0.1-1.2c1.5-0.1,2.2-0.9,2.3-2.3
		C258.1,126.8,258.4,126.9,258.7,127z"/>
	<path class="st3" d="M229.1,114.7c0.7,0,1.4,0,2.2,0c-1.3,1.7-2.9,0.9-4.7,1.1C227.2,114.4,228.2,114.8,229.1,114.7z"/>
	<path class="st263" d="M258.1,168.8c0.8-1.9,1.4-3.3,2.8-2.6c1.3,0.6,0.1,1.3-0.6,1.7C259.8,168.2,259.3,168.3,258.1,168.8z"/>
	<path class="st264" d="M280.7,146.6c0.4,0,0.7,0,1.1,0c-0.3,0.7-0.7,1.4-1,2.2c-0.7,0.4-1.5,0.8-2.2,1.2
		C278.6,148.4,279.4,147.3,280.7,146.6z"/>
	<path class="st265" d="M275.4,153.3c0.8-1.4,1.6-2.7,3.3-3.3C278.6,152.1,277.6,153.2,275.4,153.3z"/>
	<path class="st266" d="M275,154.6c0,1.7-0.6,2.7-1.4,2.7c-1.9,0-0.6-1-0.2-1.5C273.7,155.4,274.2,155.2,275,154.6z"/>
	<path class="st267" d="M212.6,241.4c2.5,4.9,0.2,9.2-1.8,13.6c0.2-3.4,0.4-6.8,0.7-10.2C212.5,243.8,211.4,242.2,212.6,241.4z"/>
	<path class="st268" d="M212.6,241.4c-0.2,1.2,0.2,2.5-1.1,3.3c-0.2-2.5,0.4-5.2-1.2-7.6c0-0.4,0-0.9,0-1.3c1.2-1.3,2.8-1.8,4.5-2
		C212.6,236,212.2,238.6,212.6,241.4z"/>
	<path class="st269" d="M229.1,110.3c-2.3-0.1-3.6-1.8-5-3.4C226.2,107.3,228.6,107.4,229.1,110.3L229.1,110.3z"/>
	<path class="st270" d="M229,110.3c1.8-0.2,3.4,0.1,4.8,2C231.6,112.6,230.2,111.8,229,110.3C229.1,110.3,229,110.3,229,110.3z"/>
	<path class="st271" d="M242.2,305.4c-0.7,0-1.4,0-2.2,0c-0.7-0.7-0.6-1.4,0.1-2c2.2-3.8,4.3-7.8,9.8-6.7c0.3,2.5-1.8,3.2-3.3,4.3
		C244.9,302.1,243.3,303.5,242.2,305.4z"/>
	<path class="st272" d="M240.1,303.4c0,0.7-0.1,1.4-0.1,2c-1.1,0.4-1.8,1.2-2.2,2.2c-1.9-0.7-3.7-1.5-5.5-2.2c0.4-2.9,2.6-2,4.3-2.2
		c2,2.4,2.1,0.1,2.7-1C239.6,302.6,239.9,303,240.1,303.4z"/>
	<path class="st273" d="M245.6,286.7c1.1-3,2.2-6,3.3-9c0.6,3.4,0.2,6.5-2.2,9C246.3,287.2,245.9,287.2,245.6,286.7z"/>
	<path class="st274" d="M246.7,301c1.1-1.5,2.2-2.9,3.3-4.3c0.9,0.7,3.1-2.3,3.1,1C250.2,297.3,249.8,301.8,246.7,301z"/>
	<path class="st275" d="M248.8,286.8c1.2-1,2.4-2,4.8-4.1C252.9,286.2,251.4,286.9,248.8,286.8z"/>
	<path class="st276" d="M237.8,285.8c0.3-0.8,0-1.9,1.1-1.5c0.5,0.2,0.9,1,0.9,1.6c0.1,0.6-0.2,1.6-1.1,1.2
		C238.3,287,238,286.2,237.8,285.8z"/>
	<path class="st277" d="M241.3,280c0.3-0.8,0.7-1.5,1-2.3c1.2,1.6,1.6,3.4,0.6,5.4C241.4,282.5,241.3,281.3,241.3,280z"/>
	<path class="st278" d="M241.9,292.4c-1.1-0.7-1.8-1.5-1.2-2.9C242,290.1,242.5,291,241.9,292.4z"/>
	<path class="st279" d="M245.6,286.7c0.4,0,0.7,0,1.1,0c-0.2,1.4-0.4,2.7-1.8,3.5C243.9,288.7,245.3,287.8,245.6,286.7z"/>
	<path class="st280" d="M231.2,282.2c-0.1-1.5,0.2-2.7,2.2-2.1C234.6,282.7,233.1,282.6,231.2,282.2z"/>
	<path class="st263" d="M279.7,302.1c0,0.7,0,1.5,0,2.2c-3.4-0.4-7,1.1-11.1-2.2C273.1,302.1,276.4,302.1,279.7,302.1z"/>
	<path class="st281" d="M279.8,290c2,1.9-0.1,2.4-1,3.3c-1-0.2-2.9-0.8-2.4-1.4c2.3-2.5,0-6.1,2.3-8.5l0.1-0.1
		C280.8,285.3,278.9,287.9,279.8,290z"/>
	<path class="st282" d="M274.3,277.8c1-0.3,1.1-2,2.4-1.6c1.2,0.5,0.7,1.8,0.8,2.8C276,279.8,274.9,279.6,274.3,277.8z"/>
	<path class="st276" d="M254.4,339.6c0,0.7,0,1.5,0,2.2c-1.6,1.2-2,3.8-5.6,4.3C251.3,343.6,251.9,340.9,254.4,339.6z"/>
	<path class="st276" d="M250.3,338.1c1.3-0.5,2.7-1.1,4.6-1.9C253.9,338.7,252.4,339,250.3,338.1z"/>
	<path class="st283" d="M243.9,342c1.1-2.1,2.4-2.2,3.9-2.4C247.3,341.8,245.7,341.4,243.9,342z"/>
	<path class="st284" d="M327.1,212.8c2.6,0.4,5.1,0.8,7.7,1.1c0,0.7,0,1.3,0.1,2C332.1,215.5,328.8,216.2,327.1,212.8z"/>
	<path class="st285" d="M322.5,217.7c3.4-0.5,5.1-0.8,7.4,0.1C327.5,218.5,325.8,218.4,322.5,217.7z"/>
	<path class="st286" d="M223.8,295.5c1.7,2.1,3.3,4.3,4.9,6.3C226.4,300.7,224.8,298.4,223.8,295.5z"/>
	<path class="st19" d="M272,353.9c3.8,2.8,4.1,7.4,6.2,11.1C275,361.9,272.3,358.6,272,353.9C272,353.9,272,353.9,272,353.9z"/>
	<path class="st287" d="M268.7,329.7c0-0.4,0-0.7,0-1.1c0.9-2.8,3.2-1.9,5.4-2.6c-0.9,2.5-2.8,2.8-4.3,3.7
		C269.5,330,269.1,330,268.7,329.7z"/>
	<path class="st230" d="M268.7,329.7c0.4,0,0.8,0,1.2,0c0.5,2,2.8,2,4.2,4.3c-2.9-0.6-4.9-1.6-6.5-3.2
		C268,330.4,268.4,330,268.7,329.7z"/>
	<path class="st263" d="M300.7,321.9c0.4,0,0.7,0,1.1,0c1.4,1.5,1.1,2.9,0,4.4c0,2.9,0,5.7,0,9.3c-2-1.5-2-3.2-2.3-4.8
		c-0.3-1.7,0.8-3.4-1.2-5.3C296.6,323.9,299.5,323,300.7,321.9z"/>
	<path class="st288" d="M301.8,326.3c0-1.5,0-2.9,0-4.4l0,0c3.4-1.1,3.3,1.2,3.3,3.4c0,0.3,0,0.7,0,1c-0.8,0-1.5,0-2.3,0
		C302.5,326.4,302.2,326.4,301.8,326.3z"/>
	<path class="st289" d="M286.4,297.7c0.7-3.7,1.4-7.3,2.4-12.2c1.7,8.3,1.4,11-1.3,12.1C287.1,298.2,286.8,298.1,286.4,297.7z"/>
	<path class="st239" d="M279.8,290c-2.4-1.9-0.5-4.5-1.1-6.7c0.7,0,1.5,0,2.2,0C280.9,285.7,281,288,279.8,290z"/>
	<path class="st290" d="M286.4,297.7c0.4,0,0.7,0,1.1,0c-0.7,1.1-1.5,2.2-2.2,3.3c-0.8,0-1.5,0-2.3,0
		C283.8,299.5,284.9,298.4,286.4,297.7z"/>
	<path class="st141" d="M322.7,327.4c-2.6-0.1-5.2,0.4-7.6-1c1.2-4.1,4.5-2,6.8-2.1C324.2,324.2,321.3,326.6,322.7,327.4z"/>
	<path class="st291" d="M320.6,331.9c-2.6-1.6-6.7-0.3-7.9-4.3c0.8-0.4,1.6-0.8,2.4-1.2C315.3,329.8,319.8,329.1,320.6,331.9z"/>
	<path class="st292" d="M305.2,325.4c-0.9-1.3-1-3.5-3.3-3.4c0.4-0.4,0.8-0.8,1.1-1.2c2.6,0.3,3.5,1.9,3.2,4.4
		C305.8,325.2,305.5,325.3,305.2,325.4z"/>
	<path class="st293" d="M246.7,305.4c4.5-2.3,4.5-2.3,10.1-1.9c-2.6,2.6-6.3,1.3-9,3C247.4,306.1,246.7,306.1,246.7,305.4z"/>
	<path class="st294" d="M246.7,305.4c0.4,0.4,0.7,0.7,1.1,1.1c-0.4,0.4-0.7,0.7-1.1,1.1c-0.3,0.5-0.7,0.6-1.1,0
		c-0.9,0-1.7-0.2-2.2-1.1C244.5,306.1,245.6,305.8,246.7,305.4z"/>
	<path class="st295" d="M245.6,307.6c0.4,0,0.7,0,1.1,0c0.4,1,1.2,1.8,2.2,2.2C246,311.8,246.1,309.3,245.6,307.6z"/>
	<path class="st95" d="M262.1,359.4c-0.6-1.5-2-2.9,0-4.4C265.4,356.5,264.6,357.9,262.1,359.4z"/>
	<path class="st296" d="M321.7,333c0-0.4,0-0.7,0-1.1c2.3,0.3,4.3,1.4,7.3,3.7C325.4,335.3,323.3,334.8,321.7,333z"/>
	<path class="st153" d="M233.5,308.1c-1.6,2.9-2.7,3.9-5,3.7C229.3,309.5,231.1,309.7,233.5,308.1z"/>
	<path class="st297" d="M306.3,64c0-2.9,0-5.9,0-8.9c2.1,2.7,0.6,5.9,1,8.9l-0.5,0L306.3,64z"/>
</g>
<g>
	<path d="M287.8,290.4c-23.9,1-45-14.4-49.7-35.6c-2.5-11.2-0.6-21.8,6.3-30.8c5.2-6.8,11.9-12.1,20-15.6
		c14.5-6.4,28.2-14.2,40.5-24.3c14-11.5,24.8-25.7,34.5-40.8c6.1-9.5,13.7-17.3,24.6-20.8c12.8-4.2,24.6-1.7,34.7,7.2
		c19.1,16.7,21.9,37.4,14.1,60.4c-5.4,16-14.9,29.6-25.9,42.2c-14.3,16.3-30.7,30.2-49.2,41.4c-13.1,7.9-26.9,14.3-42.2,16.4
		C292.5,290.3,289.7,290.3,287.8,290.4z M289.1,279.9c3.8-0.8,10.7-1.4,17-3.6c30.7-10.6,55-30.5,76-54.4
		c7.7-8.8,13.9-19.2,19.3-29.6c6.4-12.1,9-25.4,2.9-38.6c-4.9-10.6-12.2-19.3-24.3-21.4c-14.6-2.6-24.6,5-32.2,16.3
		c-10.1,15-20.4,29.6-34.2,41.6c-9.1,7.9-18.9,14.6-29.4,20.3c-7.9,4.3-16.4,7.7-23.8,12.7c-15.1,10.1-18.3,24.3-9.3,38.1
		C259.2,273.8,271.4,279.3,289.1,279.9z"/>
	<path d="M296.6,107.3c-0.2,21.3-8.8,39.7-20.2,56.8c-5.2,7.8-11.4,15-17.9,21.7c-9.6,9.8-20.8,15.4-35.4,14.3
		c-9.9-0.8-17.4-4.4-22.9-11.9c-6.5-8.8-6.4-22.3,0.3-31.3c4.8-6.4,10.4-12.2,15.9-18c10.7-11.3,16.4-25.1,20.5-39.8
		c1.2-4.3,2.1-8.8,3.9-12.9c9.7-22,34.4-22.1,48.2-5.5C294.7,87.8,296.7,94.9,296.6,107.3z M204.8,172.6c0.1,4.1,2,7.9,5.4,11
		c9.3,8.4,22.9,9.2,33.4,1.5c23.5-17.2,36.8-41,43.3-68.8c2.5-10.6,1.3-20.9-6.7-29.1c-12.2-12.4-25.1-9-31.2,3.8
		c-1.3,2.6-1.8,5.6-2.5,8.5c-5.3,22.6-16.3,41.7-33.5,57.3C208.5,160.8,205,165.7,204.8,172.6z"/>
	<path d="M313,105.5c-0.7-12,0.5-23.4,5.9-34c6.9-13.6,20.8-19.8,34.9-15.7c6.8,2,13,9.3,13.5,16.8c0.3,4.7-0.2,9.5-0.4,14.3
		c-0.3,5.6-0.7,11.2-1.3,16.8c-0.2,2-0.6,4.2-1.6,5.9c-0.6,1-2.7,1.7-3.9,1.4c-1.2-0.2-2.9-1.8-3-2.8c-0.2-6.1-0.1-12.3,0.2-18.5
		c0.2-3.9,1.2-7.8,1.1-11.7c-0.2-5.8-3.1-10.6-8.6-12.4c-6-2-12-0.5-17,3.7c-6.6,5.5-9,13.2-10.2,21.2c-2,14.1-0.8,28.1,3.2,41.8
		c0.2,0.8,0.5,1.6,0.7,2.4c0.9,3.9-0.6,7.3-3.7,7.9c-4,0.7-5-2.2-5.8-5.2C314.2,126.9,312.1,116.2,313,105.5z"/>
	<path d="M287.2,267.5c-8.6,0.4-16.4-1.8-22.6-8.6c-2.1-2.3-3.6-4.9-1.3-7.5c2.3-2.7,5.8-2.1,7.9,0c9.3,9.5,19.7,6.9,30.1,3
		c4.3-1.6,8.5-3.7,12.7-5.6c1-0.5,2-1.2,3-1.5c3-0.9,6.3-3.1,8.5,1c1.6,3,0.2,5.9-3.9,8.2C310.9,262.5,298.3,267.8,287.2,267.5z"/>
	<path d="M354.9,230.3c-2,2.7-3.3,5.2-5.3,7c-2.9,2.8-6.1,5.3-9.5,7.5c-2.8,1.9-4.6,1-5.5-2.3c0-0.1-0.1-0.3-0.1-0.4
		c-1.3-5.9,10.8-17.7,16.6-15.9C352.6,226.8,353.4,228.6,354.9,230.3z"/>
</g>
</svg>
