<?xml version="1.0" encoding="utf-8"?>
<!-- Generator: Adobe Illustrator 25.2.1, SVG Export Plug-In . SVG Version: 6.00 Build 0)  -->
<svg version="1.1" id="Layer_1" xmlns="http://www.w3.org/2000/svg" xmlns:xlink="http://www.w3.org/1999/xlink" x="0px" y="0px"
	 viewBox="0 0 347.26 341.78" style="enable-background:new 0 0 347.26 341.78;" xml:space="preserve">
<style type="text/css">
	.st0{fill:#398958;}
</style>
<g>
	<path class="st0" d="M116.69,183.22c-1.03-4.47-4.34-7.85-8.11-8.31c-5.5-0.67-9.32,1.98-11.75,8c-3.27-1.94-6.46-3.73-9.56-5.67
		c-4.86-3.05-9.66-6.25-14.52-9.31c-3.16-1.99-3.18-2.33-1.34-5.96c5.47-10.8,10.83-21.67,16.25-32.51
		c2.62-5.23,5.28-10.42,7.9-15.64c1.05-2.1,2.42-2.43,4.39-1.45c3.04,1.51,6.09,3.23,9.3,4c2.53,0.6,5.46,0.46,7.95-0.32
		c8.39-2.66,16.66-5.79,24.98-8.7c2.65-0.93,5.27-1.14,8.3,0.81c-4.6,3.78-8.73,7.22-12.91,10.6c-4.05,3.27-8.16,6.43-12.2,9.72
		c-4.57,3.72-5.12,11.29-1.21,16c5.12,6.18,12.03,7.51,19.41,3.95c9.62-4.63,19.35-9,28.93-13.73c2.9-1.43,4.79-0.22,6.87,1.6
		c16.89,14.77,33.81,29.51,50.73,44.25c2.7,2.35,5.4,4.71,8.13,7.04c3.3,2.82,3.97,7.89,1.52,11.72c-2.5,3.91-7.33,5.04-10.65,2.22
		c-5.86-4.96-11.58-10.11-17.38-15.16c-7.95-6.93-15.93-13.83-23.89-20.75c-3.25-2.82-6.42-5.77-9.77-8.43
		c-0.81-0.64-2.86-0.91-3.24-0.38c-1.01,1.41-0.13,2.52,1.19,3.65c14.05,12.08,28.02,24.28,42.02,36.43
		c3.81,3.3,4.65,8.43,1.92,12.43c-2.44,3.58-6.97,5.16-11.35,1.3c-11.54-10.17-23.11-20.28-34.69-30.4
		c-2.55-2.22-5.06-4.51-7.77-6.45c-0.79-0.56-2.22-0.03-3.35,0c0.41,1.03,0.57,2.41,1.27,3.04c11.59,10.28,23.25,20.44,34.87,30.68
		c3.22,2.84,3.81,8.7,1.09,11.99c-2.99,3.61-6.91,4.79-10.69,1.5c-5.64-4.9-11.29-9.81-16.85-14.83c-0.65-0.58-1.06-1.82-1.14-2.8
		c-0.51-6.44-5.9-10.85-11.71-10.27c-1.71,0.17-4.21-1.53-5.32-3.21c-5.59-8.41-10.39-9.45-18.06-3.4
		c-0.14,0.11-0.35,0.13-0.53,0.19C132.9,177.74,125.26,176.29,116.69,183.22z"/>
	<path class="st0" d="M124.38,136.12c1.14-1.69,2.13-4.09,3.81-5.49c8.24-6.85,16.56-13.59,25.09-20c2.93-2.21,6.44-3.62,9.83-4.94
		c6.94-2.72,13.99-5.06,20.94-7.71c2.35-0.9,4.48-0.97,6.73,0.24c11.14,5.99,22.34,11.84,33.43,17.93c2.17,1.19,4.06,1.34,6.19,0.41
		c3.01-1.32,6.12-2.41,8.99-4.01c2.56-1.42,4.16-0.44,5.32,1.87c4.46,8.82,8.8,17.71,13.21,26.55c3.66,7.32,7.34,14.62,11.07,21.89
		c0.92,1.78,0.97,3.04-0.71,4.38c-7.65,6.1-15.24,12.3-22.83,18.49c-1.55,1.26-2.81,0.88-4.21-0.36
		c-15.38-13.56-30.79-27.07-46.19-40.61c-5.08-4.47-10.25-8.83-15.16-13.52c-2.27-2.17-4.27-2.01-6.73-0.84
		c-10.63,5.04-21.3,10.02-31.96,14.99c-6.53,3.04-13.39,0.27-15.94-6.4C125.01,138.32,124.83,137.59,124.38,136.12z"/>
	<path class="st0" d="M20.52,141.42c0.68-1.84,1.08-3.3,1.72-4.61c8.49-17.27,17.02-34.52,25.53-51.78c1.25-2.54,2.86-3.4,5.33-1.91
		c11.63,7.03,23.3,13.99,34.92,21.05c2.19,1.33,2.83,2.91,1.31,5.86c-5.63,10.95-10.89,22.13-16.31,33.21
		c-3.36,6.87-6.73,13.75-10.19,20.56c-1.22,2.42-2.65,3.09-5.31,1.42c-9.9-6.23-20-12.06-30.02-18.04c-1.73-1.03-3.48-2.03-5.1-3.25
		C21.62,143.35,21.15,142.3,20.52,141.42z"/>
	<path class="st0" d="M319.17,141.58c-0.6,0.79-1.08,1.9-1.86,2.38c-8.57,5.29-17.18,10.5-25.79,15.7c-3.19,1.92-6.51,3.6-9.61,5.68
		c-2.43,1.63-3.85,0.72-5.03-1.66c-3.49-7.05-7-14.09-10.46-21.14c-5.34-10.88-10.51-21.86-16.04-32.61
		c-1.55-3.01-0.7-4.49,1.45-5.8c6.96-4.25,13.97-8.39,20.96-12.59c4.57-2.75,9.11-5.57,13.71-8.26c2.85-1.67,3.97-1.27,5.5,1.85
		c5.39,10.97,10.72,21.98,16.11,32.95c3.23,6.58,6.56,13.11,9.79,19.7C318.39,138.79,318.63,139.96,319.17,141.58z"/>
	<path class="st0" d="M131.32,210.39c0.08-0.42,0.23-1.84,0.63-3.16c1.53-5.04,3.16-10.04,4.73-15.06c1.15-3.67,4.89-6.94,7.91-6.87
		c3.11,0.07,6.56,3.33,7.43,7.28c0.26,1.18,0.17,2.61-0.18,3.77c-1.75,5.98-3.63,11.92-5.48,17.87c-1.28,4.14-5.07,6.79-8.75,6.17
		C133.92,219.76,131.32,216.03,131.32,210.39z"/>
	<path class="st0" d="M169.02,204.89c-0.33,1.14-0.72,2.59-1.18,4.03c-1.78,5.63-3.41,11.33-5.43,16.85
		c-1.4,3.85-5.74,5.78-8.97,4.51c-4.11-1.59-6.55-5.74-5.35-10.15c1.81-6.64,3.93-13.19,6.21-19.64c1.26-3.56,5.28-5.45,8.35-4.55
		C165.98,196.91,169.07,201.1,169.02,204.89z"/>
	<path class="st0" d="M121.51,209.2c-4.74,0.02-8.46-6.13-6.33-12.05c1.12-3.11,2.03-6.33,3.01-9.49c1.39-4.45,5.56-7.44,9.2-6.21
		c3.82,1.28,7.12,5.06,5.79,10.78c-0.97,4.18-2.23,8.32-3.85,12.23C128.11,207.4,125.75,209.3,121.51,209.2z"/>
	<path class="st0" d="M105.78,198.97c-5.78-0.36-9.53-6.44-7.29-12.2c0.95-2.43,1.9-5.13,3.55-6.91c2.93-3.15,5.61-2.86,9.33-0.45
		c2.65,1.71,3.9,5.72,2.89,9.11c-0.99,3.34-1.31,7.18-4.67,8.98C108.39,198.15,107.05,198.49,105.78,198.97z"/>
	<path class="st0" d="M170.41,209.69c2.93,2.7,5.75,5.03,8.25,7.71c2.19,2.36,2.66,5.31,1.32,8.57c-1.29,3.15-3.15,5.21-6.48,4.99
		c-1.36-0.09-2.87,0.11-4.05-0.47c-3.85-1.91-4.31-3.38-2.95-7.94C167.76,218.38,169.04,214.21,170.41,209.69z"/>
</g>
</svg>
