<?xml version="1.0" encoding="utf-8"?>
<!-- Generator: Adobe Illustrator 25.2.1, SVG Export Plug-In . SVG Version: 6.00 Build 0)  -->
<svg version="1.1" id="Layer_1" xmlns="http://www.w3.org/2000/svg" xmlns:xlink="http://www.w3.org/1999/xlink" x="0px" y="0px"
	 viewBox="0 0 612 457.76" style="enable-background:new 0 0 612 457.76;" xml:space="preserve">
<g>
	<path d="M218.78,277.12c-1.72-6.77-7.26-11.88-13.57-12.58c-9.2-1.02-15.6,2.99-19.67,12.11c-5.48-2.93-10.81-5.64-16-8.58
		c-8.14-4.62-16.16-9.46-24.3-14.09c-5.29-3.01-5.32-3.53-2.25-9.01c9.16-16.34,18.13-32.79,27.2-49.19
		c4.38-7.91,8.84-15.76,13.22-23.67c1.76-3.18,4.05-3.68,7.35-2.2c5.09,2.28,10.19,4.89,15.56,6.05c4.23,0.91,9.13,0.7,13.31-0.49
		c14.04-4.03,27.88-8.76,41.81-13.16c4.43-1.4,8.82-1.72,13.89,1.23c-7.7,5.72-14.61,10.93-21.6,16.04
		c-6.77,4.95-13.66,9.73-20.41,14.7c-7.65,5.63-8.56,17.08-2.02,24.21c8.56,9.35,20.13,11.36,32.49,5.98
		c16.1-7.01,32.38-13.62,48.41-20.78c4.85-2.17,8.02-0.34,11.5,2.42c28.27,22.34,56.58,44.64,84.89,66.95
		c4.52,3.56,9.04,7.13,13.6,10.65c5.52,4.26,6.64,11.93,2.54,17.73c-4.18,5.91-12.27,7.62-17.82,3.36
		c-9.8-7.51-19.38-15.3-29.08-22.93c-13.31-10.48-26.66-20.92-39.98-31.39c-5.44-4.27-10.74-8.73-16.35-12.75
		c-1.36-0.97-4.78-1.37-5.42-0.57c-1.69,2.13-0.21,3.81,1.99,5.52c23.52,18.27,46.89,36.74,70.32,55.12
		c6.37,4.99,7.78,12.76,3.22,18.8c-4.09,5.42-11.67,7.8-19,1.97c-19.31-15.38-38.68-30.69-58.05-46c-4.26-3.36-8.47-6.82-13.01-9.76
		c-1.32-0.85-3.71-0.04-5.6,0c0.69,1.56,0.95,3.65,2.13,4.6c19.39,15.55,38.91,30.93,58.35,46.41c5.39,4.29,6.38,13.17,1.82,18.14
		c-5,5.46-11.57,7.24-17.89,2.27c-9.44-7.42-18.89-14.84-28.2-22.43c-1.09-0.88-1.78-2.75-1.91-4.23
		c-0.86-9.75-9.88-16.42-19.59-15.54c-2.86,0.26-7.04-2.32-8.9-4.85c-9.36-12.72-17.39-14.3-30.23-5.15
		c-0.24,0.17-0.59,0.19-0.89,0.28C245.91,268.83,233.13,266.63,218.78,277.12z"/>
	<path d="M231.65,205.86c1.9-2.55,3.56-6.19,6.37-8.3C251.81,187.2,265.74,177,280,167.3c4.91-3.34,10.78-5.47,16.45-7.48
		c11.61-4.11,23.41-7.65,35.05-11.67c3.94-1.36,7.49-1.47,11.26,0.37c18.64,9.06,37.38,17.91,55.94,27.13
		c3.63,1.8,6.8,2.03,10.36,0.62c5.03-1.99,10.24-3.65,15.05-6.07c4.28-2.15,6.96-0.66,8.91,2.83c7.46,13.34,14.72,26.79,22.11,40.17
		c6.12,11.07,12.28,22.12,18.53,33.12c1.54,2.7,1.62,4.6-1.19,6.63c-12.8,9.23-25.5,18.61-38.21,27.98
		c-2.59,1.91-4.7,1.33-7.05-0.54c-25.74-20.51-51.53-40.96-77.29-61.44c-8.5-6.76-17.15-13.36-25.37-20.45
		c-3.8-3.28-7.15-3.04-11.27-1.27c-17.79,7.63-35.64,15.16-53.48,22.68c-10.92,4.6-22.4,0.41-26.67-9.68
		C232.7,209.18,232.4,208.08,231.65,205.86z"/>
	<path d="M57.84,213.87c1.14-2.79,1.8-5,2.88-6.98c14.21-26.13,28.49-52.22,42.72-78.34c2.1-3.85,4.79-5.15,8.92-2.89
		c19.47,10.64,38.99,21.16,58.44,31.84c3.66,2.01,4.73,4.4,2.19,8.86c-9.42,16.56-18.22,33.48-27.3,50.24
		c-5.63,10.4-11.27,20.8-17.06,31.11c-2.05,3.66-4.43,4.68-8.88,2.15c-16.56-9.43-33.47-18.24-50.24-27.3
		c-2.89-1.56-5.83-3.07-8.54-4.91C59.68,216.79,58.9,215.2,57.84,213.87z"/>
	<path d="M557.62,214.11c-1,1.19-1.8,2.87-3.11,3.6c-14.34,8.01-28.75,15.89-43.16,23.76c-5.34,2.91-10.89,5.45-16.09,8.59
		c-4.07,2.46-6.44,1.09-8.42-2.51c-5.84-10.66-11.71-21.31-17.51-31.99c-8.93-16.46-17.58-33.08-26.85-49.34
		c-2.6-4.56-1.17-6.79,2.42-8.77c11.65-6.43,23.38-12.7,35.07-19.05c7.65-4.16,15.25-8.42,22.95-12.49c4.77-2.52,6.64-1.92,9.2,2.8
		c9.02,16.6,17.94,33.25,26.96,49.85c5.41,9.96,10.97,19.84,16.39,29.8C556.32,209.89,556.73,211.67,557.62,214.11z"/>
	<path d="M243.27,318.22c0.14-0.64,0.38-2.78,1.06-4.78c2.56-7.62,5.28-15.19,7.91-22.78c1.93-5.56,8.19-10.5,13.23-10.39
		c5.2,0.11,10.98,5.04,12.43,11.02c0.43,1.79,0.28,3.95-0.3,5.71c-2.93,9.05-6.08,18.03-9.17,27.03
		c-2.15,6.26-8.49,10.28-14.65,9.33C247.62,332.4,243.26,326.76,243.27,318.22z"/>
	<path d="M306.36,309.9c-0.56,1.72-1.21,3.92-1.97,6.09c-2.98,8.52-5.7,17.14-9.08,25.5c-2.35,5.82-9.6,8.74-15.01,6.83
		c-6.87-2.41-10.96-8.68-8.95-15.36c3.03-10.04,6.57-19.95,10.39-29.71c2.11-5.38,8.83-8.24,13.98-6.88
		C301.26,297.83,306.43,304.17,306.36,309.9z"/>
	<path d="M226.84,316.42c-7.94,0.03-14.15-9.28-10.6-18.23c1.87-4.71,3.39-9.57,5.03-14.36c2.32-6.74,9.31-11.25,15.4-9.4
		c6.4,1.94,11.92,7.65,9.69,16.31c-1.62,6.32-3.73,12.59-6.44,18.51C237.89,313.7,233.94,316.58,226.84,316.42z"/>
	<path d="M200.52,300.95c-9.67-0.54-15.95-9.75-12.2-18.46c1.59-3.68,3.18-7.76,5.94-10.45c4.91-4.77,9.38-4.32,15.62-0.68
		c4.43,2.58,6.52,8.66,4.84,13.79c-1.66,5.06-2.2,10.86-7.81,13.58C204.89,299.71,202.65,300.22,200.52,300.95z"/>
	<path d="M308.68,317.16c4.9,4.09,9.63,7.61,13.81,11.67c3.67,3.57,4.45,8.03,2.21,12.96c-2.16,4.77-5.27,7.88-10.84,7.55
		c-2.27-0.13-4.8,0.17-6.77-0.71c-6.44-2.89-7.21-5.12-4.93-12.02C304.25,330.31,306.39,324,308.68,317.16z"/>
</g>
</svg>
