<?xml version="1.0" encoding="utf-8"?>
<!-- Generator: Adobe Illustrator 25.2.1, SVG Export Plug-In . SVG Version: 6.00 Build 0)  -->
<svg version="1.1" id="Layer_1" xmlns="http://www.w3.org/2000/svg" xmlns:xlink="http://www.w3.org/1999/xlink" x="0px" y="0px"
	 viewBox="0 0 347.26 341.78" style="enable-background:new 0 0 347.26 341.78;" xml:space="preserve">
<style type="text/css">
	.st0{fill:#398958;}
</style>
<g>
	<g>
		<path class="st0" d="M171.27,232.28c0,10.7,0,21.17,0,31.82c-2.64,0-5.16,0-7.9,0c0-10.54,0-21.07,0-31.85
			c-3.63-0.3-7.07-0.55-10.5-0.86c-16.92-1.53-32.96-6.2-48.14-13.75c-23.06-11.47-41.57-28.07-55.66-49.64
			c-1.62-2.47-1.75-4.43-0.06-6.98c21.45-32.41,51.14-52.87,89.05-61.22c7.16-1.58,14.6-1.88,21.91-2.77
			c1.06-0.13,2.12-0.19,3.35-0.3c0-10.73,0-21.27,0-31.94c2.65,0,5.11,0,7.86,0c0,10.57,0,21.16,0,31.91
			c3.64,0.29,7.02,0.55,10.39,0.84c16.93,1.48,32.98,6.15,48.16,13.69c23.14,11.49,41.72,28.14,55.83,49.8
			c1.58,2.42,1.67,4.31,0.05,6.76c-21.46,32.52-51.22,53.03-89.22,61.36c-7.56,1.66-15.43,1.91-23.16,2.82
			C172.67,232.03,172.1,232.14,171.27,232.28z M107.51,168.46c2.42,31.86,28.24,54.18,55.82,55.68c0-7.86,0-15.72,0-23.54
			c2.81,0,5.34,0,8.05,0c0,7.99,0,15.78,0,23.59c33.01-2.3,54.75-30.22,55.47-55.77c-7.79,0-15.57,0-23.45,0c0-2.74,0-5.26,0-8.08
			c7.99,0,15.82,0,23.67,0c-2.6-32.79-29.38-54.28-55.83-55.55c0,7.86,0,15.71,0,23.51c-2.82,0-5.34,0-8.04,0c0-8,0-15.79,0-23.6
			c-33.22,2.44-54.67,30.25-55.48,55.87c7.85,0,15.7,0,23.48,0c0,2.76,0,5.22,0,7.89C123.25,168.46,115.46,168.46,107.51,168.46z
			 M124.39,217.14c-14.88-12.84-23.19-28.96-24.73-48.72c-10.74,0-21.35,0-32.03,0c0-2.76,0-5.28,0-8.03c10.77,0,21.38,0,32.04,0
			c1.57-19.76,9.9-35.85,24.77-48.66c-0.39-0.03-0.68,0.08-0.96,0.18c-27.68,9.74-49.72,26.8-66.32,50.98
			c-0.89,1.29-0.67,2.09,0.14,3.28c9.32,13.8,20.86,25.39,34.54,34.84C101.89,207.96,112.71,213.41,124.39,217.14z M234.9,168.44
			c-1.59,19.92-9.94,35.96-25.33,49c0.92-0.24,1.15-0.29,1.37-0.36c27.68-9.75,49.77-26.75,66.38-50.93c0.95-1.38,0.77-2.2-0.1-3.48
			c-12.42-18.31-28.43-32.63-48-42.87c-6.11-3.2-12.56-5.74-18.85-8.58c-0.13,0.22-0.25,0.43-0.38,0.65
			c15.07,12.72,23.39,28.91,24.94,48.73c10.82,0,21.43,0,32.05,0c0,2.7,0,5.17,0,7.86C256.25,168.44,245.65,168.44,234.9,168.44z"/>
		<path class="st0" d="M103.26,64.64c0,2.7,0,5.16,0,7.89c-9.19,0-18.37,0-27.81,0c0,9.44,0,18.61,0,27.9c-2.73,0-5.19,0-7.88,0
			c-0.04-0.81-0.11-1.61-0.11-2.4c-0.01-9.31-0.01-18.62,0-27.93c0-3.97,1.45-5.46,5.33-5.46c9.39-0.01,18.79,0,28.18,0
			C101.7,64.64,102.43,64.64,103.26,64.64z"/>
		<path class="st0" d="M267.11,100.49c-2.8,0-5.2,0-7.87,0c0-9.23,0-18.4,0-27.84c-9.44,0-18.61,0-27.91,0c0-2.73,0-5.19,0-7.87
			c0.69-0.05,1.4-0.14,2.11-0.14c9.48-0.01,18.95-0.01,28.43,0c3.74,0,5.24,1.52,5.25,5.3c0.01,9.39,0,18.78,0,28.18
			C267.11,98.85,267.11,99.58,267.11,100.49z"/>
		<path class="st0" d="M75.38,256.31c9.5,0,18.55,0,27.81,0c0,2.6,0,5.12,0,7.81c-0.59,0.05-1.22,0.15-1.86,0.15
			c-9.56,0.01-19.12,0.01-28.68,0c-3.62,0-5.18-1.54-5.18-5.11c-0.01-10.14,0-20.27,0-30.61c2.6,0,5.12,0,7.92,0
			C75.38,237.69,75.38,246.87,75.38,256.31z"/>
		<path class="st0" d="M231.4,256.29c9.26,0,18.32,0,27.64,0c0-9.26,0-18.44,0-27.77c2.78,0,5.3,0,8.08,0c0,2.12,0,4.18,0,6.23
			c0,8.06,0.01,16.12,0,24.19c0,3.8-1.49,5.33-5.21,5.33c-10.13,0.01-20.26,0-30.5,0C231.4,261.53,231.4,258.96,231.4,256.29z"/>
		<path class="st0" d="M167.25,192.4c-15.18-0.03-27.89-12.75-27.9-27.93c-0.01-15.29,12.81-28.03,28.12-27.95
			c15.19,0.08,27.82,12.85,27.77,28.05C195.18,179.75,182.44,192.43,167.25,192.4z M187.26,164.42c0-11.11-8.77-19.93-19.82-19.94
			c-11.3-0.01-20.13,8.72-20.13,19.89c0,11.29,8.72,20.05,19.95,20.06C178.52,184.43,187.26,175.69,187.26,164.42z"/>
	</g>
</g>
</svg>
