<?xml version="1.0" encoding="utf-8"?>
<!-- Generator: Adobe Illustrator 25.2.1, SVG Export Plug-In . SVG Version: 6.00 Build 0)  -->
<svg version="1.1" id="Layer_1" xmlns="http://www.w3.org/2000/svg" xmlns:xlink="http://www.w3.org/1999/xlink" x="0px" y="0px"
	 viewBox="0 0 612 457.76" style="enable-background:new 0 0 612 457.76;" xml:space="preserve">
<style type="text/css">
	.st0{display:none;}
	.st1{display:inline;}
</style>
<g class="st0">
	<path class="st1" d="M256.81,415.97c-12,0-23.99-0.04-35.99,0.03c-2.41,0.01-3.89-0.34-3.84-3.32c0.19-10.76,0.2-21.52,0.21-32.29
		c0-0.85-0.37-1.92-0.95-2.51c-6.23-6.35-12.49-12.68-18.82-18.92c-9.19-9.05-18.56-17.92-27.64-27.08
		c-5.81-5.86-11.67-11.77-16.72-18.27c-5.3-6.82-8.26-15.04-7.91-23.72c0.49-11.85,1.92-23.66,2.9-35.5
		c0.35-4.21,0.57-8.43,0.84-12.64c0.79-12.65,1.34-25.32,2.47-37.93c0.57-6.32,12.29-16.51,20.55-12.04
		c8.62,4.67,12.04,9.23,9.86,18.8c-0.2,0.87-0.13,1.79-0.18,2.69c-0.79,14.59-1.71,29.17-2.31,43.77
		c-0.31,7.52-0.54,15.11,0.19,22.57c0.35,3.6,2.39,7.48,4.76,10.33c3.89,4.68,8.71,8.58,13.05,12.9c3.23,3.22,6.18,6.73,9.52,9.83
		c3.87,3.6,6.76,8.72,13.46,8.05c3.08-0.31,5.72-1.14,6.17-3.99c0.46-2.9,0.67-7.05-0.98-8.87c-7.34-8.07-15.63-15.26-23.07-23.23
		c-4.37-4.68-9.12-9.76-6.23-17.31c3.51-9.18,13.38-14.73,22.08-7.39c4.25,3.59,8.27,7.47,12.23,11.38
		c6.74,6.64,13.31,13.44,20.02,20.11c8.4,8.33,17.06,16.4,25.21,24.96c3.43,3.6,6.01,8.06,8.71,12.3
		c8.66,13.58,12.17,28.52,11.82,44.57c-0.28,12.89-0.16,25.8,0.01,38.7c0.04,3.29-1.03,4.13-4.2,4.09
		C280.29,415.87,268.55,415.97,256.81,415.97z"/>
	<path class="st1" d="M368,416c-11.87,0-23.74-0.09-35.61,0.06c-3.02,0.04-4.01-0.78-3.98-3.91c0.16-14.71-0.64-29.46,0.34-44.1
		c0.59-8.87,3.53-17.63,5.88-26.32c3.41-12.58,12.06-21.82,20.87-30.77c15.89-16.14,31.99-32.08,48.03-48.07
		c1.44-1.44,3.05-2.76,4.75-3.87c5.33-3.45,12.62-2.66,16.61,1.66c5.2,5.63,6.07,12.36,2.04,17.99c-2.22,3.1-4.65,6.1-7.31,8.82
		c-6.68,6.81-13.52,13.45-20.35,20.1c-2.92,2.85-1.46,6.15-0.42,8.84c0.69,1.79,3.22,3.51,5.24,4.02c4.44,1.12,7.99-0.79,11.2-4.19
		c7.08-7.51,14.48-14.71,21.84-21.95c5.92-5.82,10.42-12.27,9.72-21.07c-0.89-11.07-2.03-22.12-2.83-33.19
		c-0.52-7.28-0.75-14.59-0.87-21.88c-0.09-5.33,0.07-10.68,0.39-16.01c0.23-3.76,2.07-6.56,5.6-8.38c6.92-3.56,10.14-4.7,17.34-0.29
		c5.13,3.15,6.62,7.48,6.99,13.05c0.79,11.85,1.99,23.67,2.98,35.5c0.57,6.88,1.13,13.76,1.56,20.65
		c0.59,9.33,1.36,18.67,1.45,28.01c0.05,4.6-0.4,9.56-2.15,13.71c-1.98,4.7-5.63,8.71-8.67,12.93c-0.97,1.35-2.29,2.44-3.48,3.63
		c-18.49,18.5-36.98,37-55.5,55.47c-1.58,1.58-2.29,3.01-2.21,5.52c0.33,10.31,0.08,20.63,0.18,30.95c0.02,2.77-1.4,3.11-3.66,3.1
		c-12-0.06-24-0.03-35.99-0.03C368,415.98,368,415.99,368,416z"/>
	<path class="st1" d="M295.98,206.02c0-9.36-0.04-18.11,0.01-26.86c0.05-9.8,6.33-16.66,16.1-18.64c6.7-1.36,16.41,7.61,16.55,14.93
		c0.11,5.8,0.03,11.61,0.03,17.42c0,4.2,0,8.4,0,13.16c9.91,0,18.77-0.05,27.63,0.04c1.89,0.02,3.93,0.13,5.63,0.84
		c10.16,4.21,15.17,12.19,11.38,21.74c-2.13,5.36-9.9,11.6-18.53,11.62c-8.25,0.02-16.51,0.05-24.76,0.09
		c-0.24,0-0.48,0.14-1.16,0.35c-0.06,1.21-0.18,2.57-0.18,3.93c-0.03,8-0.19,16-0.01,24c0.23,9.86-7.1,16.22-13.26,18.32
		c-2.34,0.8-5.71,0.21-8.06-0.91c-7.08-3.38-11.14-9.22-11.31-17.2c-0.2-9.28-0.05-18.56-0.05-28.35c-1.54-0.08-2.89-0.21-4.24-0.21
		c-7.35-0.02-14.71,0.12-22.06-0.04c-8.26-0.18-17.16-6.04-19.25-15.13c-1.83-7.94,8.27-18.97,17.54-19.06
		C277.1,205.95,286.24,206.02,295.98,206.02z"/>
	<path class="st1" d="M213.14,156.64c-7.11,0-13.55-0.16-19.97,0.04c-7.57,0.24-12.87-5.68-13.67-11.99
		c-0.57-4.51,2.53-8.59,6.83-10.69c2.56-1.25,5.55-2.02,8.4-2.2c5.78-0.36,11.59-0.17,17.39-0.23c0.23,0,0.45-0.22,1.02-0.52
		c0-5.86-0.07-11.9,0.02-17.94c0.08-5.44,2.03-10.14,6.75-13.06c6.98-4.32,15.97,1.2,16.57,9.81c0.27,3.85-0.06,7.74,0.08,11.6
		c0.12,3.28,0.51,6.56,0.81,10.24c6.31,0,12.21,0.01,18.11,0c5.76-0.01,10.34,2.09,13.49,7.12c2.76,4.42,0.24,13.69-4.69,15.35
		c-3.79,1.28-7.85,2.04-11.84,2.34c-5.1,0.39-10.25,0.09-15.9,0.09c0,6.3,0.39,12.23-0.14,18.06c-0.34,3.8-1.45,7.79-3.27,11.13
		c-1.8,3.32-5.58,5.36-9.41,4.65c-5.23-0.97-8.59-4.95-9.67-9.94c-0.96-4.45-0.72-9.16-0.89-13.76
		C213.05,163.56,213.14,160.36,213.14,156.64z"/>
	<path class="st1" d="M316.1,90.04c-5.69,0-10.7-0.03-15.71,0.01c-4.87,0.03-8.48-2.18-11.5-5.87c-4.05-4.94-1.13-9.94,3.3-12.79
		c2.23-1.43,5.24-2.06,7.95-2.24c5.11-0.34,10.26-0.1,15.99-0.1c0-5.59-0.34-10.85,0.13-16.04c0.27-2.97,1.35-6.18,3.03-8.62
		c1.76-2.57,4.44-5.19,8.18-4.17c4.86,1.33,8.08,5.21,8.14,9.44c0.08,6.26,0.02,12.51,0.02,19.34c6.69,0,12.38-0.49,17.93,0.19
		c3.15,0.39,6.66,2.05,8.96,4.25c5.25,5,1.2,12.64-4.78,15.17c-2.16,0.92-4.67,1.25-7.04,1.38c-4.63,0.24-9.27,0.15-13.91,0.21
		c-0.22,0-0.45,0.2-1.16,0.53c0,5.02-0.01,10.26,0,15.5c0.01,5.7-2.56,9.79-7.92,11.68c-1.56,0.55-4.09,0.51-5.27-0.42
		c-3.74-2.94-6.95-6.3-6.43-11.9C316.47,100.63,316.1,95.6,316.1,90.04z"/>
	<path class="st1" d="M391.2,159.74c-6.42,0-12.4,0.14-18.36-0.04c-4.86-0.15-7.82-3.29-10.16-7.23c-1.72-2.89-0.72-5.56,0.88-7.86
		c2.86-4.11,7.08-5.92,12.07-5.93c5,0,10.01,0,15.57,0c0-5.75,0.16-11.12-0.05-16.48c-0.19-5.14,2.64-8.53,6.42-11.04
		c4.67-3.1,12.19,2.08,12.36,8.29c0.09,3.22-0.1,6.45,0.05,9.67c0.14,3.04,0.54,6.06,0.88,9.58c5.26,0,10.25-0.03,15.25,0.01
		c4.1,0.03,7.99,1.04,10.73,4.18c5.52,6.34,2.43,10.24-3.44,15.16c-1.18,0.99-3.04,1.56-4.6,1.6c-6.13,0.18-12.28,0.07-18.85,0.07
		c0,6.02,0.22,11.54-0.1,17.03c-0.14,2.43-0.86,5.15-2.21,7.12c-1.88,2.76-4.35,5.74-8.42,4.55c-4.35-1.27-7.96-6.05-8.01-10.22
		C391.14,172.19,391.2,166.15,391.2,159.74z"/>
</g>
<g>
	<path d="M137.82,193.62c7.31,0,14.62,0.07,21.94-0.03c5.22-0.07,10.2-5.08,11.23-10.26c10.15-51.44,37.61-89.21,86.69-110.09
		c29.25-12.44,59.56-14.42,90.25-8.45c28.32,5.5,53.1,18.81,73.74,39.17c5.17,5.11,5.84,11.6,3.29,18.7
		c-2.46,6.87-7.18,11.71-13.8,12.46c-3.84,0.43-8.91-2.64-12.13-5.57c-12.48-11.38-26.18-20.5-42.23-26
		c-22.97-7.86-46.48-8.84-69.74-2.91c-37.89,9.67-64.08,33.4-78.65,69.76c-5.22,13.02-6.43,26.79-7.49,40.6
		c-0.86,11.2-8.44,18-19.64,18.01c-19.5,0.03-39,0.01-58.5,0.01c-12.91,0-22.38-11.39-18.96-26.22c1.29-5.6,5.94-8.93,12.07-9.09
		c7.31-0.2,14.62-0.05,21.93-0.05C137.82,193.66,137.82,193.64,137.82,193.62z"/>
	<path d="M490.88,229.09c-7.5,0-15,0.01-22.5,0c-3.26-0.01-5.04,1.28-5.68,4.79c-9.1,49.82-36.1,86.7-80.75,110.46
		c-20.31,10.81-42.29,16.46-65.24,16.11c-40.14-0.6-74.6-15.53-103.19-43.77c-4.63-4.57-6.84-10.34-6.08-16.78
		c2-16.97,20.49-16.15,29.34-8.68c7.84,6.61,15.72,13.43,24.47,18.68c23.78,14.29,49.79,18.66,76.72,12.35
		c49.55-11.6,79.7-43.46,92.17-92.3c1.97-7.71,1.7-15.97,2.57-23.97c0.95-8.76,4.69-12.25,13.61-12.29
		c22.31-0.11,44.62-0.09,66.93-0.07c9.33,0.01,15.49,3.72,16.87,10.01c2.04,9.31-2.08,19.38-9.92,23.04
		c-2.94,1.38-6.38,2.11-9.64,2.28c-6.54,0.35-13.12,0.1-19.68,0.1C490.88,229.06,490.88,229.07,490.88,229.09z"/>
	<path d="M376.5,208.9c1.23,36.28-28.56,63.84-59.74,63.7c-31.59-0.14-59.97-27.46-59.8-63.27c0.19-38.66,26.36-59.72,58.63-60.09
		C347.17,148.87,377.64,170.13,376.5,208.9z"/>
</g>
</svg>
